0xProto-Regular.ufo
<glyph name="exclam" format="2">
  <advance width="620"/>
  <unicode hex="0021"/>
  <outline>
    <contour>
      <point x="310" y="-16" type="curve" smooth="yes"/>
      <point x="351" y="-16"/>
      <point x="385" y="18"/>
      <point x="385" y="59" type="curve" smooth="yes"/>
      <point x="385" y="100"/>
      <point x="351" y="134"/>
      <point x="310" y="134" type="curve" smooth="yes"/>
      <point x="269" y="134"/>
      <point x="235" y="100"/>
      <point x="235" y="59" type="curve" smooth="yes"/>
      <point x="235" y="18"/>
      <point x="269" y="-16"/>
    </contour>
    <contour>
      <point x="231" y="705" type="line"/>
      <point x="238" y="540"/>
      <point x="253" y="375"/>
      <point x="261" y="210" type="curve"/>
      <point x="359" y="210" type="line"/>
      <point x="367" y="375"/>
      <point x="382" y="540"/>
      <point x="389" y="705" type="curve"/>
    </contour>
  </outline>
</glyph>
<glyph name="quotedbl" format="2">
  <advance width="620"/>
  <unicode hex="0022"/>
  <outline>
    <contour>
      <point x="143" y="710" type="line"/>
      <point x="180" y="438" type="line"/>
      <point x="232" y="438" type="line"/>
      <point x="269" y="710" type="line"/>
    </contour>
    <contour>
      <point x="351" y="710" type="line"/>
      <point x="388" y="438" type="line"/>
      <point x="440" y="438" type="line"/>
      <point x="477" y="710" type="line"/>
    </contour>
  </outline>
</glyph>
<glyph name="numbersign" format="2">
  <advance width="620"/>
  <unicode hex="0023"/>
  <outline>
    <contour>
      <point x="508" y="244" type="line"/>
      <point x="46" y="244" type="line"/>
      <point x="46" y="157" type="line"/>
      <point x="508" y="157" type="line"/>
    </contour>
    <contour>
      <point x="570" y="550" type="line"/>
      <point x="112" y="550" type="line"/>
      <point x="112" y="463" type="line"/>
      <point x="570" y="463" type="line"/>
    </contour>
    <contour>
      <point x="175" y="0" type="line"/>
      <point x="347" y="710" type="line"/>
      <point x="257" y="710" type="line"/>
      <point x="85" y="0" type="line"/>
    </contour>
    <contour>
      <point x="369" y="0" type="line"/>
      <point x="541" y="710" type="line"/>
      <point x="451" y="710" type="line"/>
      <point x="279" y="0" type="line"/>
    </contour>
  </outline>
</glyph>
<glyph name="ampersand" format="2">
  <advance width="620"/>
  <unicode hex="0026"/>
  <outline>
    <contour>
      <point x="114" y="565" type="curve" smooth="yes"/>
      <point x="114" y="512"/>
      <point x="149" y="458"/>
      <point x="178" y="421" type="curve" smooth="yes"/>
      <point x="519" y="-16" type="line"/>
      <point x="586" y="40" type="line"/>
      <point x="268" y="442" type="line" smooth="yes"/>
      <point x="238" y="479"/>
      <point x="212" y="517"/>
      <point x="212" y="557" type="curve" smooth="yes"/>
      <point x="212" y="609"/>
      <point x="250" y="637"/>
      <point x="300" y="637" type="curve" smooth="yes"/>
      <point x="364" y="637"/>
      <point x="387" y="587"/>
      <point x="387" y="550" type="curve"/>
      <point x="485" y="550" type="line"/>
      <point x="485" y="640"/>
      <point x="422" y="725"/>
      <point x="303" y="725" type="curve" smooth="yes"/>
      <point x="174" y="725"/>
      <point x="114" y="654"/>
    </contour>
    <contour>
      <point x="493" y="404" type="line"/>
      <point x="423" y="191" type="line" smooth="yes"/>
      <point x="401" y="123"/>
      <point x="347" y="73"/>
      <point x="273" y="72" type="curve" smooth="yes"/>
      <point x="190" y="71"/>
      <point x="139" y="119"/>
      <point x="139" y="198" type="curve" smooth="yes"/>
      <point x="139" y="277"/>
      <point x="210" y="343"/>
      <point x="294" y="343" type="curve"/>
      <point x="283" y="412" type="line"/>
      <point x="152" y="410"/>
      <point x="42" y="312"/>
      <point x="42" y="198" type="curve" smooth="yes"/>
      <point x="42" y="63"/>
      <point x="131" y="-16"/>
      <point x="274" y="-16" type="curve" smooth="yes"/>
      <point x="400" y="-16"/>
      <point x="467" y="54"/>
      <point x="492" y="128" type="curve" smooth="yes"/>
      <point x="583" y="394" type="line"/>
      <point x="583" y="404" type="line"/>
    </contour>
  </outline>
</glyph>
<glyph name="quotesingle" format="2">
  <advance width="620"/>
  <unicode hex="0027"/>
  <outline>
    <contour>
      <point x="247" y="710" type="line"/>
      <point x="284" y="438" type="line"/>
      <point x="336" y="438" type="line"/>
      <point x="373" y="710" type="line"/>
    </contour>
  </outline>
</glyph>
<glyph name="parenleft" format="2">
  <advance width="620"/>
  <unicode hex="0028"/>
  <outline>
    <contour>
      <point x="350" y="750" type="line"/>
      <point x="86" y="534"/>
      <point x="86" y="96"/>
      <point x="350" y="-120" type="curve"/>
      <point x="455" y="-120" type="line"/>
      <point x="453" y="-110" type="line"/>
      <point x="187" y="101"/>
      <point x="187" y="529"/>
      <point x="453" y="740" type="curve"/>
      <point x="455" y="750" type="line"/>
    </contour>
  </outline>
</glyph>
<glyph name="parenright" format="2">
  <advance width="620"/>
  <unicode hex="0029"/>
  <outline>
    <contour>
      <point x="203" y="-138" type="line"/>
      <point x="381" y="-46"/>
      <point x="495" y="115"/>
      <point x="495" y="311" type="curve" smooth="yes"/>
      <point x="495" y="507"/>
      <point x="381" y="668"/>
      <point x="203" y="760" type="curve"/>
      <point x="160" y="673" type="line"/>
      <point x="306" y="598"/>
      <point x="391" y="463"/>
      <point x="391" y="311" type="curve" smooth="yes"/>
      <point x="391" y="159"/>
      <point x="305" y="24"/>
      <point x="160" y="-51" type="curve"/>
    </contour>
  </outline>
</glyph>
<glyph name="plus" format="2">
  <advance width="620"/>
  <unicode hex="002B"/>
  <outline>
    <contour>
      <point x="545" y="350" type="line"/>
      <point x="75" y="350" type="line"/>
      <point x="75" y="264" type="line"/>
      <point x="545" y="264" type="line"/>
    </contour>
    <contour>
      <point x="355" y="56" type="line"/>
      <point x="355" y="558" type="line"/>
      <point x="265" y="558" type="line"/>
      <point x="265" y="56" type="line"/>
    </contour>
  </outline>
</glyph>
<glyph name="comma" format="2">
  <advance width="620"/>
  <unicode hex="002C"/>
  <outline>
    <contour>
      <point x="253" y="39" type="line"/>
      <point x="167" y="-193" type="line"/>
      <point x="228" y="-193" type="line"/>
      <point x="371" y="39" type="line"/>
    </contour>
    <contour>
      <point x="307" y="0" type="curve" smooth="yes"/>
      <point x="347" y="0"/>
      <point x="380" y="34"/>
      <point x="380" y="76" type="curve" smooth="yes"/>
      <point x="380" y="116"/>
      <point x="347" y="151"/>
      <point x="307" y="151" type="curve" smooth="yes"/>
      <point x="264" y="151"/>
      <point x="230" y="116"/>
      <point x="230" y="76" type="curve" smooth="yes"/>
      <point x="230" y="34"/>
      <point x="264" y="0"/>
    </contour>
  </outline>
</glyph>
<glyph name="hyphen" format="2">
  <advance width="620"/>
  <unicode hex="002D"/>
  <outline>
    <contour>
      <point x="515" y="350" type="line"/>
      <point x="105" y="350" type="line"/>
      <point x="105" y="264" type="line"/>
      <point x="515" y="264" type="line"/>
    </contour>
  </outline>
</glyph>
<glyph name="period" format="2">
  <advance width="620"/>
  <unicode hex="002E"/>
  <outline>
    <contour>
      <point x="310" y="-19" type="curve" smooth="yes"/>
      <point x="356" y="-19"/>
      <point x="393" y="18"/>
      <point x="393" y="64" type="curve" smooth="yes"/>
      <point x="393" y="110"/>
      <point x="356" y="147"/>
      <point x="310" y="147" type="curve" smooth="yes"/>
      <point x="264" y="147"/>
      <point x="227" y="110"/>
      <point x="227" y="64" type="curve" smooth="yes"/>
      <point x="227" y="18"/>
      <point x="264" y="-19"/>
    </contour>
  </outline>
</glyph>
<glyph name="slash" format="2">
  <advance width="620"/>
  <unicode hex="002F"/>
  <outline>
    <contour>
      <point x="372" y="750" type="line"/>
      <point x="107" y="-110" type="line"/>
      <point x="107" y="-120" type="line"/>
      <point x="208" y="-120" type="line"/>
      <point x="473" y="740" type="line"/>
      <point x="473" y="750" type="line"/>
    </contour>
  </outline>
</glyph>
<glyph name="zero" format="2">
  <advance width="620"/>
  <unicode hex="0030"/>
  <outline>
    <contour>
      <point x="312" y="-16" type="curve" smooth="yes"/>
      <point x="510" y="-16"/>
      <point x="565" y="143"/>
      <point x="565" y="355" type="curve" smooth="yes"/>
      <point x="565" y="567"/>
      <point x="510" y="726"/>
      <point x="312" y="726" type="curve" smooth="yes"/>
      <point x="115" y="726"/>
      <point x="55" y="567"/>
      <point x="55" y="355" type="curve" smooth="yes"/>
      <point x="55" y="143"/>
      <point x="115" y="-16"/>
    </contour>
    <contour>
      <point x="312" y="73" type="curve" smooth="yes"/>
      <point x="172" y="73"/>
      <point x="153" y="195"/>
      <point x="153" y="356" type="curve" smooth="yes"/>
      <point x="153" y="516"/>
      <point x="172" y="637"/>
      <point x="312" y="637" type="curve" smooth="yes"/>
      <point x="452" y="637"/>
      <point x="467" y="516"/>
      <point x="467" y="356" type="curve" smooth="yes"/>
      <point x="467" y="195"/>
      <point x="452" y="73"/>
    </contour>
    <contour>
      <point x="129" y="108" type="line"/>
      <point x="209" y="108" type="line"/>
      <point x="495" y="603" type="line"/>
      <point x="415" y="602" type="line"/>
    </contour>
  </outline>
</glyph>
<glyph name="three" format="2">
  <advance width="620"/>
  <unicode hex="0033"/>
  <outline>
    <contour>
      <point x="534" y="195" type="curve" smooth="yes"/>
      <point x="534" y="71"/>
      <point x="448" y="-16"/>
      <point x="313" y="-16" type="curve" smooth="yes"/>
      <point x="209" y="-16"/>
      <point x="147" y="10"/>
      <point x="76" y="59" type="curve"/>
      <point x="126" y="133" type="line"/>
      <point x="171" y="99"/>
      <point x="224" y="72"/>
      <point x="294" y="72" type="curve" smooth="yes"/>
      <point x="389" y="72"/>
      <point x="436" y="129"/>
      <point x="436" y="195" type="curve" smooth="yes"/>
      <point x="436" y="265"/>
      <point x="376" y="319"/>
      <point x="278" y="319" type="curve" smooth="yes"/>
      <point x="258" y="319"/>
      <point x="247" y="319"/>
      <point x="224" y="319" type="curve"/>
      <point x="224" y="405" type="line"/>
      <point x="249" y="405"/>
      <point x="260" y="405"/>
      <point x="280" y="405" type="curve" smooth="yes"/>
      <point x="376" y="405"/>
      <point x="421" y="457"/>
      <point x="421" y="530" type="curve" smooth="yes"/>
      <point x="421" y="600"/>
      <point x="366" y="636"/>
      <point x="299" y="636" type="curve" smooth="yes"/>
      <point x="249" y="636"/>
      <point x="194" y="611"/>
      <point x="151" y="568" type="curve"/>
      <point x="86" y="630" type="line"/>
      <point x="146" y="691"/>
      <point x="224" y="724"/>
      <point x="311" y="724" type="curve" smooth="yes"/>
      <point x="430" y="724"/>
      <point x="519" y="650"/>
      <point x="519" y="537" type="curve" smooth="yes"/>
      <point x="519" y="466"/>
      <point x="485" y="402"/>
      <point x="423" y="365" type="curve"/>
      <point x="486" y="337"/>
      <point x="534" y="272"/>
    </contour>
  </outline>
</glyph>
<glyph name="six" format="2">
  <advance width="620"/>
  <unicode hex="0036"/>
  <outline>
    <contour>
      <point x="83" y="239" type="curve" smooth="yes"/>
      <point x="83" y="90"/>
      <point x="173" y="-15"/>
      <point x="318" y="-15" type="curve" smooth="yes"/>
      <point x="459" y="-15"/>
      <point x="550" y="80"/>
      <point x="550" y="205" type="curve" smooth="yes"/>
      <point x="550" y="334"/>
      <point x="456" y="428"/>
      <point x="345" y="428" type="curve" smooth="yes"/>
      <point x="290" y="428"/>
      <point x="244" y="410"/>
      <point x="207" y="377" type="curve"/>
      <point x="238" y="476"/>
      <point x="299" y="567"/>
      <point x="397" y="657" type="curve"/>
      <point x="329" y="726" type="line"/>
      <point x="166" y="574"/>
      <point x="83" y="395"/>
    </contour>
    <contour>
      <point x="318" y="340" type="curve" smooth="yes"/>
      <point x="397" y="340"/>
      <point x="452" y="284"/>
      <point x="452" y="206" type="curve" smooth="yes"/>
      <point x="452" y="130"/>
      <point x="397" y="73"/>
      <point x="318" y="73" type="curve" smooth="yes"/>
      <point x="240" y="73"/>
      <point x="185" y="127"/>
      <point x="185" y="206" type="curve" smooth="yes"/>
      <point x="185" y="286"/>
      <point x="240" y="340"/>
    </contour>
  </outline>
</glyph>
<glyph name="seven" format="2">
  <advance width="620"/>
  <unicode hex="0037"/>
  <outline>
    <contour>
      <point x="76" y="710" type="line"/>
      <point x="76" y="646" type="line"/>
      <point x="550" y="646" type="line"/>
      <point x="550" y="710" type="line"/>
    </contour>
    <contour>
      <point x="550" y="646" type="curve"/>
      <point x="440" y="646" type="line"/>
      <point x="356" y="386"/>
      <point x="272" y="211"/>
      <point x="246" y="0" type="curve"/>
      <point x="353" y="0" type="line"/>
      <point x="379" y="211"/>
      <point x="466" y="390"/>
    </contour>
    <contour>
      <point x="174" y="646" type="line"/>
      <point x="76" y="646" type="line"/>
      <point x="76" y="486" type="line"/>
      <point x="174" y="486" type="line"/>
    </contour>
    <contour>
      <point x="163" y="710" type="line"/>
      <point x="163" y="622" type="line"/>
      <point x="445" y="622" type="line"/>
      <point x="445" y="710" type="line"/>
    </contour>
  </outline>
</glyph>
<glyph name="colon" format="2">
  <advance width="620"/>
  <unicode hex="003A"/>
  <outline>
    <contour>
      <point x="310" y="0" type="curve" smooth="yes"/>
      <point x="351" y="0"/>
      <point x="385" y="34"/>
      <point x="385" y="75" type="curve" smooth="yes"/>
      <point x="385" y="116"/>
      <point x="351" y="150"/>
      <point x="310" y="150" type="curve" smooth="yes"/>
      <point x="269" y="150"/>
      <point x="235" y="116"/>
      <point x="235" y="75" type="curve" smooth="yes"/>
      <point x="235" y="34"/>
      <point x="269" y="0"/>
    </contour>
    <contour>
      <point x="310" y="397" type="curve" smooth="yes"/>
      <point x="351" y="397"/>
      <point x="385" y="431"/>
      <point x="385" y="472" type="curve" smooth="yes"/>
      <point x="385" y="513"/>
      <point x="351" y="547"/>
      <point x="310" y="547" type="curve" smooth="yes"/>
      <point x="269" y="547"/>
      <point x="235" y="513"/>
      <point x="235" y="472" type="curve" smooth="yes"/>
      <point x="235" y="431"/>
      <point x="269" y="397"/>
    </contour>
  </outline>
</glyph>
<glyph name="semicolon" format="2">
  <advance width="620"/>
  <unicode hex="003B"/>
  <outline>
    <contour>
      <point x="320" y="400" type="curve" smooth="yes"/>
      <point x="361" y="400"/>
      <point x="395" y="434"/>
      <point x="395" y="475" type="curve" smooth="yes"/>
      <point x="395" y="516"/>
      <point x="361" y="550"/>
      <point x="320" y="550" type="curve" smooth="yes"/>
      <point x="279" y="550"/>
      <point x="245" y="516"/>
      <point x="245" y="475" type="curve" smooth="yes"/>
      <point x="245" y="434"/>
      <point x="279" y="400"/>
    </contour>
    <contour>
      <point x="266" y="39" type="line"/>
      <point x="202" y="-179" type="line"/>
      <point x="263" y="-179" type="line"/>
      <point x="386" y="39" type="line"/>
    </contour>
    <contour>
      <point x="322" y="0" type="curve" smooth="yes"/>
      <point x="362" y="0"/>
      <point x="395" y="34"/>
      <point x="395" y="76" type="curve" smooth="yes"/>
      <point x="395" y="116"/>
      <point x="362" y="151"/>
      <point x="322" y="151" type="curve" smooth="yes"/>
      <point x="279" y="151"/>
      <point x="245" y="116"/>
      <point x="245" y="76" type="curve" smooth="yes"/>
      <point x="245" y="34"/>
      <point x="279" y="0"/>
    </contour>
  </outline>
</glyph>
<glyph name="equal" format="2">
  <advance width="620"/>
  <unicode hex="003D"/>
  <outline>
    <contour>
      <point x="545" y="250" type="line"/>
      <point x="75" y="250" type="line"/>
      <point x="75" y="164" type="line"/>
      <point x="545" y="164" type="line"/>
    </contour>
    <contour>
      <point x="545" y="452" type="line"/>
      <point x="75" y="452" type="line"/>
      <point x="75" y="366" type="line"/>
      <point x="545" y="366" type="line"/>
    </contour>
  </outline>
</glyph>
<glyph name="greater" format="2">
  <advance width="620"/>
  <unicode hex="003E"/>
  <outline>
    <contour>
      <point x="110" y="597" type="line"/>
      <point x="110" y="498" type="line"/>
      <point x="530" y="263" type="line"/>
      <point x="530" y="356" type="line"/>
      <point x="120" y="597" type="line"/>
    </contour>
    <contour>
      <point x="110" y="11" type="line"/>
      <point x="120" y="11" type="line"/>
      <point x="530" y="257" type="line"/>
      <point x="530" y="350" type="line"/>
      <point x="110" y="110" type="line"/>
    </contour>
  </outline>
</glyph>
<glyph name="at" format="2">
  <advance width="620"/>
  <unicode hex="0040"/>
  <outline>
    <contour>
      <point x="176" y="-14" type="curve" smooth="yes"/>
      <point x="300" y="-14"/>
      <point x="359" y="123"/>
      <point x="359" y="222" type="curve" smooth="yes"/>
      <point x="359" y="357"/>
      <point x="335" y="494"/>
      <point x="221" y="494" type="curve" smooth="yes"/>
      <point x="102" y="494"/>
      <point x="42" y="361"/>
      <point x="32" y="236" type="curve" smooth="yes"/>
      <point x="23" y="119"/>
      <point x="51" y="-14"/>
    </contour>
    <contour>
      <point x="188" y="71" type="curve" smooth="yes"/>
      <point x="114" y="71"/>
      <point x="104" y="159"/>
      <point x="109" y="232" type="curve" smooth="yes"/>
      <point x="114" y="311"/>
      <point x="152" y="408"/>
      <point x="225" y="408" type="curve" smooth="yes"/>
      <point x="314" y="408"/>
      <point x="328" y="297"/>
      <point x="328" y="220" type="curve" smooth="yes"/>
      <point x="328" y="141"/>
      <point x="258" y="71"/>
    </contour>
    <contour>
      <point x="364" y="143" type="line"/>
      <point x="380" y="491" type="line"/>
      <point x="312" y="492" type="line"/>
      <point x="301" y="461" type="line"/>
      <point x="288" y="48" type="line"/>
      <point x="326" y="84" type="line"/>
    </contour>
    <contour>
      <point x="364" y="143" type="curve"/>
      <point x="304" y="71" type="line"/>
      <point x="315" y="31"/>
      <point x="351" y="-16"/>
      <point x="416" y="-16" type="curve" smooth="yes"/>
      <point x="552" y="-16"/>
      <point x="577" y="182"/>
      <point x="573" y="323" type="curve" smooth="yes"/>
      <point x="567" y="542"/>
      <point x="500" y="726"/>
      <point x="284" y="726" type="curve" smooth="yes"/>
      <point x="200" y="726"/>
      <point x="106" y="693"/>
      <point x="29" y="627" type="curve"/>
      <point x="83" y="557" type="line"/>
      <point x="142" y="601"/>
      <point x="215" y="637"/>
      <point x="287" y="636" type="curve" smooth="yes"/>
      <point x="433" y="634"/>
      <point x="480" y="477"/>
      <point x="484" y="322" type="curve" smooth="yes"/>
      <point x="489" y="136"/>
      <point x="457" y="68"/>
      <point x="412" y="68" type="curve" smooth="yes"/>
      <point x="388" y="68"/>
      <point x="364" y="86"/>
    </contour>
  </outline>
</glyph>
<glyph name="B" format="2">
  <advance width="620"/>
  <unicode hex="0042"/>
  <outline>
    <contour>
      <point x="70" y="710" type="line"/>
      <point x="70" y="0" type="line"/>
      <point x="168" y="0" type="line"/>
      <point x="168" y="710" type="line"/>
    </contour>
    <contour>
      <point x="167" y="413" type="curve"/>
      <point x="167" y="350" type="line"/>
      <point x="234" y="350"/>
      <point x="239" y="350"/>
      <point x="292" y="350" type="curve" smooth="yes"/>
      <point x="418" y="350"/>
      <point x="527" y="418"/>
      <point x="527" y="532" type="curve" smooth="yes"/>
      <point x="527" y="655"/>
      <point x="437" y="710"/>
      <point x="292" y="710" type="curve" smooth="yes"/>
      <point x="252" y="710"/>
      <point x="241" y="710"/>
      <point x="167" y="710" type="curve"/>
      <point x="167" y="622" type="line"/>
      <point x="242" y="622"/>
      <point x="250" y="622"/>
      <point x="292" y="622" type="curve" smooth="yes"/>
      <point x="382" y="622"/>
      <point x="429" y="592"/>
      <point x="429" y="519" type="curve" smooth="yes"/>
      <point x="429" y="443"/>
      <point x="382" y="413"/>
      <point x="292" y="413" type="curve" smooth="yes"/>
      <point x="239" y="413"/>
      <point x="235" y="413"/>
    </contour>
    <contour>
      <point x="167" y="88" type="curve"/>
      <point x="167" y="0" type="line"/>
      <point x="234" y="0"/>
      <point x="239" y="0"/>
      <point x="292" y="0" type="curve" smooth="yes"/>
      <point x="432" y="0"/>
      <point x="565" y="40"/>
      <point x="565" y="199" type="curve" smooth="yes"/>
      <point x="565" y="342"/>
      <point x="422" y="386"/>
      <point x="292" y="386" type="curve" smooth="yes"/>
      <point x="252" y="386"/>
      <point x="241" y="386"/>
      <point x="167" y="386" type="curve"/>
      <point x="167" y="325" type="line"/>
      <point x="242" y="325"/>
      <point x="250" y="325"/>
      <point x="292" y="325" type="curve" smooth="yes"/>
      <point x="384" y="325"/>
      <point x="467" y="306"/>
      <point x="467" y="206" type="curve" smooth="yes"/>
      <point x="467" y="99"/>
      <point x="384" y="88"/>
      <point x="292" y="88" type="curve" smooth="yes"/>
      <point x="239" y="88"/>
      <point x="235" y="88"/>
    </contour>
  </outline>
</glyph>
<glyph name="C" format="2">
  <advance width="620"/>
  <unicode hex="0043"/>
  <anchor x="323" y="0" name="bottom"/>
  <anchor x="323" y="710" name="top"/>
  <outline>
    <contour>
      <point x="341" y="-16" type="curve" smooth="yes"/>
      <point x="441" y="-16"/>
      <point x="509" y="9"/>
      <point x="581" y="70" type="curve"/>
      <point x="524" y="143" type="line"/>
      <point x="466" y="94"/>
      <point x="413" y="74"/>
      <point x="341" y="74" type="curve" smooth="yes"/>
      <point x="211" y="74"/>
      <point x="134" y="177"/>
      <point x="134" y="352" type="curve" smooth="yes"/>
      <point x="134" y="531"/>
      <point x="204" y="636"/>
      <point x="323" y="636" type="curve" smooth="yes"/>
      <point x="402" y="636"/>
      <point x="451" y="598"/>
      <point x="488" y="525" type="curve"/>
      <point x="569" y="565" type="line"/>
      <point x="519" y="675"/>
      <point x="445" y="726"/>
      <point x="321" y="726" type="curve" smooth="yes"/>
      <point x="141" y="726"/>
      <point x="35" y="587"/>
      <point x="35" y="352" type="curve" smooth="yes"/>
      <point x="35" y="121"/>
      <point x="149" y="-16"/>
    </contour>
  </outline>
</glyph>
<glyph name="D" format="2">
  <advance width="620"/>
  <unicode hex="0044"/>
  <anchor x="310" y="0" name="bottom"/>
  <anchor x="310" y="355" name="center"/>
  <anchor x="310" y="710" name="top"/>
  <outline>
    <contour>
      <point x="63" y="710" type="line"/>
      <point x="63" y="0" type="line"/>
      <point x="161" y="0" type="line"/>
      <point x="161" y="710" type="line"/>
    </contour>
    <contour>
      <point x="160" y="88" type="curve"/>
      <point x="160" y="0" type="line"/>
      <point x="184" y="0"/>
      <point x="236" y="0"/>
      <point x="260" y="0" type="curve" smooth="yes"/>
      <point x="460" y="0"/>
      <point x="577" y="140"/>
      <point x="577" y="377" type="curve" smooth="yes"/>
      <point x="577" y="624"/>
      <point x="428" y="710"/>
      <point x="266" y="710" type="curve" smooth="yes"/>
      <point x="231" y="710"/>
      <point x="199" y="710"/>
      <point x="160" y="710" type="curve"/>
      <point x="160" y="622" type="line"/>
      <point x="201" y="622"/>
      <point x="234" y="622"/>
      <point x="266" y="622" type="curve" smooth="yes"/>
      <point x="395" y="622"/>
      <point x="479" y="535"/>
      <point x="479" y="377" type="curve" smooth="yes"/>
      <point x="479" y="241"/>
      <point x="433" y="88"/>
      <point x="260" y="88" type="curve" smooth="yes"/>
      <point x="240" y="88"/>
      <point x="186" y="88"/>
    </contour>
  </outline>
</glyph>
<glyph name="E" format="2">
  <advance width="620"/>
  <unicode hex="0045"/>
  <outline>
    <contour>
      <point x="92" y="710" type="line"/>
      <point x="90" y="0" type="line"/>
      <point x="188" y="0" type="line"/>
      <point x="190" y="710" type="line"/>
    </contour>
    <contour>
      <point x="513" y="414" type="line"/>
      <point x="116" y="414" type="line"/>
      <point x="116" y="326" type="line"/>
      <point x="513" y="326" type="line"/>
    </contour>
    <contour>
      <point x="537" y="710" type="line"/>
      <point x="118" y="710" type="line"/>
      <point x="118" y="622" type="line"/>
      <point x="537" y="622" type="line"/>
    </contour>
    <contour>
      <point x="545" y="88" type="line"/>
      <point x="116" y="88" type="line"/>
      <point x="116" y="0" type="line"/>
      <point x="545" y="0" type="line"/>
    </contour>
  </outline>
</glyph>
<glyph name="F" format="2">
  <advance width="620"/>
  <unicode hex="0046"/>
  <outline>
    <contour>
      <point x="92" y="710" type="line"/>
      <point x="92" y="0" type="line"/>
      <point x="190" y="0" type="line"/>
      <point x="190" y="710" type="line"/>
    </contour>
    <contour>
      <point x="500" y="403" type="line"/>
      <point x="118" y="403" type="line"/>
      <point x="118" y="315" type="line"/>
      <point x="500" y="315" type="line"/>
    </contour>
    <contour>
      <point x="544" y="710" type="line"/>
      <point x="118" y="710" type="line"/>
      <point x="118" y="622" type="line"/>
      <point x="544" y="622" type="line"/>
    </contour>
  </outline>
</glyph>
<glyph name="G" format="2">
  <advance width="620"/>
  <unicode hex="0047"/>
  <anchor x="342" y="0" name="bottom"/>
  <anchor x="330" y="710" name="top"/>
  <outline>
    <contour>
      <point x="319" y="340" type="line"/>
      <point x="319" y="252" type="line"/>
      <point x="477" y="252" type="line"/>
      <point x="477" y="64" type="line"/>
      <point x="575" y="64" type="line"/>
      <point x="575" y="340" type="line"/>
    </contour>
    <contour>
      <point x="552" y="667" type="line"/>
      <point x="504" y="702"/>
      <point x="433" y="726"/>
      <point x="346" y="726" type="curve" smooth="yes"/>
      <point x="145" y="726"/>
      <point x="40" y="587"/>
      <point x="40" y="352" type="curve" smooth="yes"/>
      <point x="40" y="121"/>
      <point x="153" y="-16"/>
      <point x="346" y="-16" type="curve" smooth="yes"/>
      <point x="440" y="-16"/>
      <point x="505" y="7"/>
      <point x="575" y="64" type="curve"/>
      <point x="539" y="153" type="line"/>
      <point x="481" y="99"/>
      <point x="424" y="74"/>
      <point x="346" y="74" type="curve" smooth="yes"/>
      <point x="217" y="74"/>
      <point x="138" y="179"/>
      <point x="138" y="352" type="curve" smooth="yes"/>
      <point x="138" y="528"/>
      <point x="201" y="635"/>
      <point x="348" y="638" type="curve" smooth="yes"/>
      <point x="394" y="639"/>
      <point x="459" y="630"/>
      <point x="507" y="596" type="curve"/>
    </contour>
  </outline>
</glyph>
<glyph name="H" format="2">
  <advance width="620"/>
  <unicode hex="0048"/>
  <outline>
    <contour>
      <point x="80" y="710" type="line"/>
      <point x="80" y="0" type="line"/>
      <point x="178" y="0" type="line"/>
      <point x="178" y="710" type="line"/>
    </contour>
    <contour>
      <point x="442" y="710" type="line"/>
      <point x="442" y="0" type="line"/>
      <point x="540" y="0" type="line"/>
      <point x="540" y="710" type="line"/>
    </contour>
    <contour>
      <point x="511" y="414" type="line"/>
      <point x="97" y="414" type="line"/>
      <point x="97" y="326" type="line"/>
      <point x="511" y="326" type="line"/>
    </contour>
  </outline>
</glyph>
<glyph name="I" format="2">
  <advance width="620"/>
  <unicode hex="0049"/>
  <outline>
    <contour>
      <point x="261" y="0" type="line"/>
      <point x="359" y="0" type="line"/>
      <point x="359" y="710" type="line"/>
      <point x="261" y="710" type="line"/>
    </contour>
    <contour>
      <point x="525" y="622" type="line"/>
      <point x="525" y="710" type="line"/>
      <point x="95" y="710" type="line"/>
      <point x="95" y="622" type="line"/>
    </contour>
    <contour>
      <point x="530" y="0" type="line"/>
      <point x="530" y="88" type="line"/>
      <point x="90" y="88" type="line"/>
      <point x="90" y="0" type="line"/>
    </contour>
  </outline>
</glyph>
<glyph name="J" format="2">
  <advance width="620"/>
  <unicode hex="004A"/>
  <outline>
    <contour>
      <point x="528" y="208" type="curve"/>
      <point x="430" y="208" type="line"/>
      <point x="430" y="104"/>
      <point x="373" y="73"/>
      <point x="292" y="73" type="curve" smooth="yes"/>
      <point x="220" y="73"/>
      <point x="165" y="105"/>
      <point x="127" y="124" type="curve"/>
      <point x="80" y="49" type="line"/>
      <point x="162" y="7"/>
      <point x="231" y="-16"/>
      <point x="319" y="-16" type="curve" smooth="yes"/>
      <point x="413" y="-16"/>
      <point x="528" y="21"/>
    </contour>
    <contour>
      <point x="180" y="710" type="line"/>
      <point x="180" y="622" type="line"/>
      <point x="528" y="622" type="line"/>
      <point x="528" y="710" type="line"/>
    </contour>
    <contour>
      <point x="528" y="710" type="line"/>
      <point x="430" y="710" type="line"/>
      <point x="430" y="202" type="line"/>
      <point x="528" y="202" type="line"/>
    </contour>
  </outline>
</glyph>
<glyph name="K" format="2">
  <advance width="620"/>
  <unicode hex="004B"/>
  <outline>
    <contour>
      <point x="466" y="0" type="line"/>
      <point x="583" y="0" type="line"/>
      <point x="583" y="10" type="line"/>
      <point x="282" y="388" type="line"/>
      <point x="549" y="700" type="line"/>
      <point x="549" y="710" type="line"/>
      <point x="438" y="710" type="line"/>
      <point x="171" y="399" type="line"/>
      <point x="171" y="710" type="line"/>
      <point x="73" y="710" type="line"/>
      <point x="73" y="0" type="line"/>
      <point x="171" y="0" type="line"/>
      <point x="171" y="248" type="line"/>
      <point x="222" y="312" type="line"/>
    </contour>
  </outline>
</glyph>
<glyph name="L" format="2">
  <advance width="620"/>
  <unicode hex="004C"/>
  <outline>
    <contour>
      <point x="101" y="710" type="line"/>
      <point x="101" y="0" type="line"/>
      <point x="199" y="0" type="line"/>
      <point x="199" y="710" type="line"/>
    </contour>
    <contour>
      <point x="539" y="88" type="line"/>
      <point x="117" y="88" type="line"/>
      <point x="117" y="0" type="line"/>
      <point x="539" y="0" type="line"/>
    </contour>
  </outline>
</glyph>
<glyph name="M" format="2">
  <advance width="620"/>
  <unicode hex="004D"/>
  <outline>
    <contour>
      <point x="271" y="260" type="curve"/>
      <point x="351" y="260" type="line"/>
      <point x="419" y="420"/>
      <point x="496" y="570"/>
      <point x="580" y="710" type="curve"/>
      <point x="476" y="710" type="line"/>
      <point x="398" y="570"/>
      <point x="329" y="420"/>
    </contour>
    <contour>
      <point x="33" y="710" type="line"/>
      <point x="33" y="0" type="line"/>
      <point x="131" y="0" type="line"/>
      <point x="131" y="710" type="line"/>
    </contour>
    <contour>
      <point x="489" y="710" type="line"/>
      <point x="489" y="0" type="line"/>
      <point x="587" y="0" type="line"/>
      <point x="587" y="710" type="line"/>
    </contour>
    <contour>
      <point x="349" y="260" type="line"/>
      <point x="291" y="420"/>
      <point x="222" y="570"/>
      <point x="144" y="710" type="curve"/>
      <point x="40" y="710" type="line"/>
      <point x="124" y="570"/>
      <point x="201" y="420"/>
      <point x="269" y="260" type="curve"/>
    </contour>
  </outline>
</glyph>
<glyph name="N" format="2">
  <advance width="620"/>
  <unicode hex="004E"/>
  <outline>
    <contour>
      <point x="557" y="0" type="line"/>
      <point x="177" y="710" type="line"/>
      <point x="63" y="710" type="line"/>
      <point x="447" y="0" type="line"/>
    </contour>
    <contour>
      <point x="56" y="710" type="line"/>
      <point x="56" y="0" type="line"/>
      <point x="154" y="0" type="line"/>
      <point x="154" y="710" type="line"/>
    </contour>
    <contour>
      <point x="466" y="710" type="line"/>
      <point x="466" y="0" type="line"/>
      <point x="564" y="0" type="line"/>
      <point x="564" y="710" type="line"/>
    </contour>
  </outline>
</glyph>
<glyph name="O" format="2">
  <advance width="620"/>
  <unicode hex="004F"/>
  <outline>
    <contour>
      <point x="310" y="-16" type="curve" smooth="yes"/>
      <point x="509" y="-16"/>
      <point x="580" y="148"/>
      <point x="580" y="355" type="curve" smooth="yes"/>
      <point x="580" y="562"/>
      <point x="509" y="726"/>
      <point x="310" y="726" type="curve" smooth="yes"/>
      <point x="112" y="726"/>
      <point x="40" y="562"/>
      <point x="40" y="355" type="curve" smooth="yes"/>
      <point x="40" y="148"/>
      <point x="112" y="-16"/>
    </contour>
    <contour>
      <point x="310" y="73" type="curve" smooth="yes"/>
      <point x="172" y="73"/>
      <point x="139" y="205"/>
      <point x="139" y="355" type="curve" smooth="yes"/>
      <point x="139" y="504"/>
      <point x="172" y="637"/>
      <point x="310" y="637" type="curve" smooth="yes"/>
      <point x="448" y="637"/>
      <point x="481" y="504"/>
      <point x="481" y="355" type="curve" smooth="yes"/>
      <point x="481" y="205"/>
      <point x="448" y="73"/>
    </contour>
  </outline>
</glyph>
<glyph name="P" format="2">
  <advance width="620"/>
  <unicode hex="0050"/>
  <outline>
    <contour>
      <point x="62" y="710" type="line"/>
      <point x="62" y="0" type="line"/>
      <point x="160" y="0" type="line"/>
      <point x="160" y="710" type="line"/>
    </contour>
    <contour>
      <point x="159" y="350" type="curve"/>
      <point x="159" y="262" type="line"/>
      <point x="226" y="262"/>
      <point x="282" y="262"/>
      <point x="335" y="262" type="curve" smooth="yes"/>
      <point x="493" y="262"/>
      <point x="570" y="350"/>
      <point x="570" y="486" type="curve" smooth="yes"/>
      <point x="570" y="622"/>
      <point x="497" y="710"/>
      <point x="335" y="710" type="curve" smooth="yes"/>
      <point x="295" y="710"/>
      <point x="233" y="710"/>
      <point x="159" y="710" type="curve"/>
      <point x="159" y="622" type="line"/>
      <point x="234" y="622"/>
      <point x="293" y="622"/>
      <point x="335" y="622" type="curve" smooth="yes"/>
      <point x="429" y="622"/>
      <point x="474" y="568"/>
      <point x="474" y="486" type="curve" smooth="yes"/>
      <point x="474" y="408"/>
      <point x="429" y="350"/>
      <point x="335" y="350" type="curve" smooth="yes"/>
      <point x="282" y="350"/>
      <point x="227" y="350"/>
    </contour>
  </outline>
</glyph>
<glyph name="Q" format="2">
  <advance width="620"/>
  <unicode hex="0051"/>
  <outline>
    <contour>
      <point x="306" y="-16" type="curve" smooth="yes"/>
      <point x="487" y="-31"/>
      <point x="575" y="148"/>
      <point x="575" y="355" type="curve" smooth="yes"/>
      <point x="575" y="562"/>
      <point x="505" y="726"/>
      <point x="306" y="726" type="curve" smooth="yes"/>
      <point x="108" y="726"/>
      <point x="37" y="562"/>
      <point x="37" y="355" type="curve" smooth="yes"/>
      <point x="37" y="148"/>
      <point x="108" y="0"/>
    </contour>
    <contour>
      <point x="306" y="73" type="curve" smooth="yes"/>
      <point x="168" y="73"/>
      <point x="135" y="205"/>
      <point x="135" y="355" type="curve" smooth="yes"/>
      <point x="135" y="504"/>
      <point x="168" y="637"/>
      <point x="306" y="637" type="curve" smooth="yes"/>
      <point x="444" y="637"/>
      <point x="477" y="504"/>
      <point x="477" y="355" type="curve" smooth="yes"/>
      <point x="477" y="205"/>
      <point x="444" y="73"/>
    </contour>
    <contour>
      <point x="526" y="-78" type="line"/>
      <point x="595" y="-19" type="line"/>
      <point x="466" y="159" type="line" smooth="yes"/>
      <point x="419" y="224"/>
      <point x="364" y="275"/>
      <point x="288" y="275" type="curve" smooth="yes"/>
      <point x="208" y="275"/>
      <point x="147" y="230"/>
      <point x="107" y="187" type="curve"/>
      <point x="160" y="127" type="line"/>
      <point x="184" y="158"/>
      <point x="230" y="198"/>
      <point x="282" y="198" type="curve" smooth="yes"/>
      <point x="337" y="198"/>
      <point x="379" y="149"/>
      <point x="415" y="94" type="curve" smooth="yes"/>
    </contour>
  </outline>
</glyph>
<glyph name="R" format="2">
  <advance width="620"/>
  <unicode hex="0052"/>
  <anchor x="294" y="0" name="bottom"/>
  <anchor x="294" y="710" name="top"/>
  <outline>
    <contour>
      <point x="65" y="710" type="line"/>
      <point x="65" y="0" type="line"/>
      <point x="163" y="0" type="line"/>
      <point x="163" y="710" type="line"/>
    </contour>
    <contour>
      <point x="162" y="370" type="curve"/>
      <point x="162" y="282" type="line"/>
      <point x="209" y="282"/>
      <point x="265" y="282"/>
      <point x="318" y="282" type="curve" smooth="yes"/>
      <point x="476" y="282"/>
      <point x="553" y="365"/>
      <point x="553" y="496" type="curve" smooth="yes"/>
      <point x="553" y="632"/>
      <point x="480" y="710"/>
      <point x="318" y="710" type="curve" smooth="yes"/>
      <point x="278" y="710"/>
      <point x="216" y="710"/>
      <point x="162" y="710" type="curve"/>
      <point x="162" y="622" type="line"/>
      <point x="217" y="622"/>
      <point x="276" y="622"/>
      <point x="318" y="622" type="curve" smooth="yes"/>
      <point x="412" y="622"/>
      <point x="457" y="578"/>
      <point x="457" y="496" type="curve" smooth="yes"/>
      <point x="457" y="423"/>
      <point x="412" y="370"/>
      <point x="318" y="370" type="curve" smooth="yes"/>
      <point x="265" y="370"/>
      <point x="210" y="370"/>
    </contour>
    <contour>
      <point x="377" y="308" type="line"/>
      <point x="269" y="308" type="line"/>
      <point x="473" y="0" type="line"/>
      <point x="580" y="0" type="line"/>
      <point x="580" y="10" type="line"/>
    </contour>
  </outline>
</glyph>
<glyph name="S" format="2">
  <advance width="620"/>
  <unicode hex="0053"/>
  <outline>
    <contour>
      <point x="50" y="92" type="line"/>
      <point x="116" y="30"/>
      <point x="217" y="-16"/>
      <point x="324" y="-16" type="curve" smooth="yes"/>
      <point x="488" y="-16"/>
      <point x="578" y="62"/>
      <point x="578" y="181" type="curve" smooth="yes"/>
      <point x="578" y="401"/>
      <point x="175" y="382"/>
      <point x="175" y="531" type="curve" smooth="yes"/>
      <point x="175" y="595"/>
      <point x="255" y="635"/>
      <point x="321" y="635" type="curve" smooth="yes"/>
      <point x="387" y="635"/>
      <point x="436" y="616"/>
      <point x="491" y="563" type="curve"/>
      <point x="557" y="624" type="line"/>
      <point x="498" y="689"/>
      <point x="411" y="726"/>
      <point x="321" y="726" type="curve" smooth="yes"/>
      <point x="213" y="726"/>
      <point x="77" y="658"/>
      <point x="77" y="529" type="curve" smooth="yes"/>
      <point x="77" y="302"/>
      <point x="479" y="325"/>
      <point x="479" y="181" type="curve" smooth="yes"/>
      <point x="479" y="115"/>
      <point x="418" y="75"/>
      <point x="324" y="75" type="curve" smooth="yes"/>
      <point x="248" y="75"/>
      <point x="170" y="107"/>
      <point x="113" y="160" type="curve"/>
    </contour>
  </outline>
</glyph>
<glyph name="T" format="2">
  <advance width="620"/>
  <unicode hex="0054"/>
  <outline>
    <contour>
      <point x="261" y="0" type="line"/>
      <point x="359" y="0" type="line"/>
      <point x="359" y="710" type="line"/>
      <point x="261" y="710" type="line"/>
    </contour>
    <contour>
      <point x="570" y="622" type="line"/>
      <point x="570" y="710" type="line"/>
      <point x="50" y="710" type="line"/>
      <point x="50" y="622" type="line"/>
    </contour>
  </outline>
</glyph>
<glyph name="U" format="2">
  <advance width="620"/>
  <unicode hex="0055"/>
  <anchor x="310" y="-15" name="bottom"/>
  <anchor x="310" y="710" name="top"/>
  <anchor x="507" y="710" name="topright"/>
  <outline>
    <contour>
      <point x="465" y="710" type="line"/>
      <point x="465" y="277" type="line"/>
      <point x="465" y="139"/>
      <point x="392" y="83"/>
      <point x="310" y="83" type="curve"/>
      <point x="228" y="83"/>
      <point x="155" y="139"/>
      <point x="155" y="277" type="curve"/>
      <point x="155" y="710" type="line"/>
      <point x="55" y="710" type="line"/>
      <point x="55" y="277" type="line" smooth="yes"/>
      <point x="55" y="55"/>
      <point x="193" y="-15"/>
      <point x="310" y="-15" type="curve"/>
      <point x="427" y="-15"/>
      <point x="565" y="55"/>
      <point x="565" y="277" type="curve" smooth="yes"/>
      <point x="565" y="710" type="line"/>
    </contour>
  </outline>
</glyph>
<glyph name="V" format="2">
  <advance width="620"/>
  <unicode hex="0056"/>
  <anchor x="310" y="0" name="bottom"/>
  <anchor x="310" y="710" name="top"/>
  <outline>
    <contour>
      <point x="38" y="710" type="line"/>
      <point x="106" y="406"/>
      <point x="176" y="170"/>
      <point x="258" y="0" type="curve"/>
      <point x="352" y="0" type="line"/>
      <point x="270" y="170"/>
      <point x="207" y="406"/>
      <point x="139" y="710" type="curve"/>
    </contour>
    <contour>
      <point x="582" y="710" type="curve"/>
      <point x="481" y="710" type="line"/>
      <point x="413" y="406"/>
      <point x="350" y="170"/>
      <point x="268" y="0" type="curve"/>
      <point x="362" y="0" type="line"/>
      <point x="444" y="170"/>
      <point x="514" y="406"/>
    </contour>
  </outline>
</glyph>
<glyph name="W" format="2">
  <advance width="620"/>
  <unicode hex="0057"/>
  <outline>
    <contour>
      <point x="30" y="710" type="line"/>
      <point x="26" y="396"/>
      <point x="58" y="159"/>
      <point x="102" y="0" type="curve"/>
      <point x="194" y="0" type="line"/>
      <point x="152" y="159"/>
      <point x="121" y="396"/>
      <point x="128" y="710" type="curve"/>
    </contour>
    <contour>
      <point x="350" y="473" type="line"/>
      <point x="267" y="473" type="line"/>
      <point x="142" y="0" type="line"/>
      <point x="233" y="0" type="line"/>
    </contour>
    <contour>
      <point x="270" y="473" type="line"/>
      <point x="387" y="0" type="line"/>
      <point x="478" y="0" type="line"/>
      <point x="353" y="473" type="line"/>
    </contour>
    <contour>
      <point x="590" y="710" type="curve"/>
      <point x="492" y="710" type="line"/>
      <point x="496" y="396"/>
      <point x="468" y="159"/>
      <point x="426" y="0" type="curve"/>
      <point x="518" y="0" type="line"/>
      <point x="562" y="159"/>
      <point x="591" y="396"/>
    </contour>
  </outline>
</glyph>
<glyph name="X" format="2">
  <advance width="620"/>
  <unicode hex="0058"/>
  <outline>
    <contour>
      <point x="565" y="710" type="line"/>
      <point x="459" y="710" type="line"/>
      <point x="258" y="343" type="line"/>
      <point x="364" y="343" type="line"/>
      <point x="565" y="700" type="line"/>
    </contour>
    <contour>
      <point x="569" y="0" type="line"/>
      <point x="569" y="10" type="line"/>
      <point x="363" y="367" type="line"/>
      <point x="257" y="367" type="line"/>
      <point x="463" y="0" type="line"/>
    </contour>
    <contour>
      <point x="51" y="710" type="line"/>
      <point x="51" y="700" type="line"/>
      <point x="257" y="343" type="line"/>
      <point x="363" y="343" type="line"/>
      <point x="157" y="710" type="line"/>
    </contour>
    <contour>
      <point x="52" y="0" type="line"/>
      <point x="158" y="0" type="line"/>
      <point x="364" y="367" type="line"/>
      <point x="258" y="367" type="line"/>
      <point x="52" y="10" type="line"/>
    </contour>
  </outline>
</glyph>
<glyph name="Y" format="2">
  <advance width="620"/>
  <unicode hex="0059"/>
  <outline>
    <contour>
      <point x="39" y="710" type="line"/>
      <point x="39" y="700" type="line"/>
      <point x="260" y="283" type="line"/>
      <point x="359" y="283" type="line"/>
      <point x="148" y="710" type="line"/>
    </contour>
    <contour>
      <point x="581" y="710" type="line"/>
      <point x="472" y="710" type="line"/>
      <point x="261" y="283" type="line"/>
      <point x="360" y="283" type="line"/>
      <point x="581" y="700" type="line"/>
    </contour>
    <contour>
      <point x="261" y="290" type="line"/>
      <point x="261" y="0" type="line"/>
      <point x="359" y="0" type="line"/>
      <point x="359" y="290" type="line"/>
    </contour>
  </outline>
</glyph>
<glyph name="Z" format="2">
  <advance width="620"/>
  <unicode hex="005A"/>
  <outline>
    <contour>
      <point x="69" y="710" type="line"/>
      <point x="69" y="622" type="line"/>
      <point x="540" y="622" type="line"/>
      <point x="540" y="710" type="line"/>
    </contour>
    <contour>
      <point x="63" y="88" type="line"/>
      <point x="63" y="0" type="line"/>
      <point x="557" y="0" type="line"/>
      <point x="557" y="88" type="line"/>
    </contour>
    <contour>
      <point x="63" y="88" type="line"/>
      <point x="180" y="88" type="line"/>
      <point x="540" y="622" type="line"/>
      <point x="423" y="622" type="line"/>
    </contour>
  </outline>
</glyph>
<glyph name="bracketleft" format="2">
  <advance width="620"/>
  <unicode hex="005B"/>
  <outline>
    <contour>
      <point x="191" y="750" type="line"/>
      <point x="191" y="-120" type="line"/>
      <point x="286" y="-120" type="line"/>
      <point x="286" y="750" type="line"/>
    </contour>
    <contour>
      <point x="470" y="750" type="line"/>
      <point x="215" y="750" type="line"/>
      <point x="215" y="665" type="line"/>
      <point x="470" y="665" type="line"/>
    </contour>
    <contour>
      <point x="470" y="-35" type="line"/>
      <point x="215" y="-35" type="line"/>
      <point x="215" y="-120" type="line"/>
      <point x="470" y="-120" type="line"/>
    </contour>
  </outline>
</glyph>
<glyph name="bracketright" format="2">
  <advance width="620"/>
  <unicode hex="005D"/>
  <outline>
    <contour>
      <point x="429" y="750" type="line"/>
      <point x="334" y="750" type="line"/>
      <point x="334" y="-120" type="line"/>
      <point x="429" y="-120" type="line"/>
    </contour>
    <contour>
      <point x="150" y="750" type="line"/>
      <point x="150" y="665" type="line"/>
      <point x="405" y="665" type="line"/>
      <point x="405" y="750" type="line"/>
    </contour>
    <contour>
      <point x="150" y="-35" type="line"/>
      <point x="150" y="-120" type="line"/>
      <point x="405" y="-120" type="line"/>
      <point x="405" y="-35" type="line"/>
    </contour>
  </outline>
</glyph>
<glyph name="underscore" format="2">
  <advance width="620"/>
  <unicode hex="005F"/>
  <outline>
    <contour>
      <point x="553" y="0" type="line"/>
      <point x="67" y="0" type="line"/>
      <point x="67" y="-86" type="line"/>
      <point x="553" y="-86" type="line"/>
    </contour>
  </outline>
</glyph>
<glyph name="grave" format="2">
  <advance width="620"/>
  <unicode hex="0060"/>
  <outline>
    <contour>
      <point x="300" y="710" type="line"/>
      <point x="158" y="710" type="line"/>
      <point x="158" y="701" type="line"/>
      <point x="323" y="462" type="line"/>
      <point x="389" y="462" type="line"/>
    </contour>
  </outline>
</glyph>
<glyph name="a" format="2">
  <advance width="620"/>
  <unicode hex="0061"/>
  <outline>
    <contour>
      <point x="508" y="131" type="curve" smooth="yes"/>
      <point x="508" y="413" type="line" smooth="yes"/>
      <point x="508" y="554"/>
      <point x="383" y="566"/>
      <point x="310" y="566" type="curve" smooth="yes"/>
      <point x="239" y="566"/>
      <point x="156" y="546"/>
      <point x="87" y="512" type="curve"/>
      <point x="134" y="437" type="line"/>
      <point x="193" y="462"/>
      <point x="252" y="477"/>
      <point x="293" y="477" type="curve" smooth="yes"/>
      <point x="398" y="477"/>
      <point x="410" y="437"/>
      <point x="410" y="361" type="curve" smooth="yes"/>
      <point x="410" y="347" type="line"/>
      <point x="291" y="352"/>
      <point x="70" y="340"/>
      <point x="70" y="156" type="curve" smooth="yes"/>
      <point x="70" y="38"/>
      <point x="170" y="-16"/>
      <point x="255" y="-16" type="curve" smooth="yes"/>
      <point x="344" y="-16"/>
      <point x="396" y="13"/>
      <point x="429" y="49" type="curve"/>
      <point x="449" y="9"/>
      <point x="486" y="-11"/>
      <point x="563" y="-8" type="curve"/>
      <point x="563" y="73" type="line"/>
      <point x="520" y="75"/>
      <point x="508" y="95"/>
    </contour>
    <contour>
      <point x="158" y="161" type="curve" smooth="yes"/>
      <point x="158" y="269"/>
      <point x="303" y="276"/>
      <point x="410" y="268" type="curve"/>
      <point x="410" y="156" type="line"/>
      <point x="387" y="114"/>
      <point x="346" y="74"/>
      <point x="264" y="74" type="curve" smooth="yes"/>
      <point x="209" y="74"/>
      <point x="158" y="106"/>
    </contour>
  </outline>
</glyph>
<glyph name="c" format="2">
  <advance width="620"/>
  <unicode hex="0063"/>
  <outline>
    <contour>
      <point x="337" y="-16" type="curve" smooth="yes"/>
      <point x="417" y="-15"/>
      <point x="490" y="14"/>
      <point x="544" y="62" type="curve"/>
      <point x="494" y="133" type="line"/>
      <point x="448" y="95"/>
      <point x="399" y="71"/>
      <point x="337" y="71" type="curve" smooth="yes"/>
      <point x="225" y="71"/>
      <point x="161" y="146"/>
      <point x="161" y="273" type="curve" smooth="yes"/>
      <point x="161" y="402"/>
      <point x="223" y="478"/>
      <point x="329" y="478" type="curve" smooth="yes"/>
      <point x="382" y="478"/>
      <point x="427" y="451"/>
      <point x="451" y="405" type="curve"/>
      <point x="527" y="440" type="line"/>
      <point x="491" y="519"/>
      <point x="417" y="566"/>
      <point x="329" y="566" type="curve" smooth="yes"/>
      <point x="164" y="566"/>
      <point x="66" y="457"/>
      <point x="66" y="273" type="curve" smooth="yes"/>
      <point x="66" y="88"/>
      <point x="167" y="-18"/>
    </contour>
  </outline>
</glyph>
<glyph name="d" format="2">
  <advance width="620"/>
  <unicode hex="0064"/>
  <outline>
    <contour>
      <point x="504" y="46" type="line"/>
      <point x="504" y="750" type="line"/>
      <point x="409" y="750" type="line"/>
      <point x="409" y="4" type="line"/>
    </contour>
    <contour>
      <point x="496" y="43" type="curve"/>
      <point x="446" y="106" type="line"/>
      <point x="408" y="80"/>
      <point x="369" y="70"/>
      <point x="318" y="70" type="curve" smooth="yes"/>
      <point x="226" y="70"/>
      <point x="155" y="150"/>
      <point x="155" y="273" type="curve" smooth="yes"/>
      <point x="155" y="396"/>
      <point x="204" y="470"/>
      <point x="312" y="470" type="curve" smooth="yes"/>
      <point x="366" y="470"/>
      <point x="420" y="434"/>
      <point x="428" y="392" type="curve"/>
      <point x="471" y="392" type="line"/>
      <point x="464" y="481"/>
      <point x="392" y="558"/>
      <point x="292" y="558" type="curve" smooth="yes"/>
      <point x="168" y="558"/>
      <point x="60" y="456"/>
      <point x="60" y="273" type="curve" smooth="yes"/>
      <point x="60" y="100"/>
      <point x="179" y="-17"/>
      <point x="318" y="-17" type="curve" smooth="yes"/>
      <point x="390" y="-17"/>
      <point x="450" y="13"/>
    </contour>
    <contour>
      <point x="504" y="131" type="curve"/>
      <point x="416" y="70" type="line"/>
      <point x="435" y="16"/>
      <point x="478" y="-12"/>
      <point x="568" y="-8" type="curve"/>
      <point x="568" y="73" type="line"/>
      <point x="525" y="75"/>
      <point x="504" y="95"/>
    </contour>
  </outline>
</glyph>
<glyph name="f" format="2">
  <advance width="620"/>
  <unicode hex="0066"/>
  <outline>
    <contour>
      <point x="64" y="489" type="line"/>
      <point x="64" y="401" type="line"/>
      <point x="537" y="401" type="line"/>
      <point x="537" y="489" type="line"/>
    </contour>
    <contour>
      <point x="344" y="561" type="line"/>
      <point x="251" y="561" type="line"/>
      <point x="251" y="-23" type="line"/>
      <point x="344" y="-23" type="line"/>
    </contour>
    <contour>
      <point x="251" y="561" type="line"/>
      <point x="249" y="613" type="line" smooth="yes"/>
      <point x="244" y="754"/>
      <point x="374" y="766"/>
      <point x="427" y="766" type="curve" smooth="yes"/>
      <point x="489" y="766"/>
      <point x="555" y="746"/>
      <point x="610" y="713" type="curve"/>
      <point x="567" y="639" type="line"/>
      <point x="527" y="663"/>
      <point x="479" y="678"/>
      <point x="444" y="678" type="curve" smooth="yes"/>
      <point x="359" y="678"/>
      <point x="344" y="637"/>
      <point x="344" y="561" type="curve"/>
    </contour>
    <contour>
      <point x="344" y="-23" type="line"/>
      <point x="344" y="-113"/>
      <point x="329" y="-200"/>
      <point x="219" y="-200" type="curve" smooth="yes"/>
      <point x="68" y="-200" type="line"/>
      <point x="68" y="-110" type="line"/>
      <point x="168" y="-110" type="line"/>
      <point x="241" y="-110"/>
      <point x="251" y="-64"/>
      <point x="251" y="-23" type="curve"/>
    </contour>
  </outline>
</glyph>
<glyph name="g" format="2">
  <advance width="620"/>
  <unicode hex="0067"/>
  <outline>
    <contour>
      <point x="302" y="265" type="curve" smooth="yes"/>
      <point x="226" y="265"/>
      <point x="175" y="302"/>
      <point x="176" y="368" type="curve" smooth="yes"/>
      <point x="177" y="423"/>
      <point x="222" y="479"/>
      <point x="302" y="479" type="curve" smooth="yes"/>
      <point x="382" y="479"/>
      <point x="425" y="423"/>
      <point x="426" y="368" type="curve" smooth="yes"/>
      <point x="427" y="302"/>
      <point x="383" y="265"/>
    </contour>
    <contour>
      <point x="404" y="536" type="curve"/>
      <point x="404" y="483" type="line"/>
      <point x="528" y="483"/>
      <point x="564" y="534"/>
      <point x="564" y="641" type="curve"/>
      <point x="459" y="641" type="line"/>
      <point x="459" y="584"/>
      <point x="451" y="536"/>
    </contour>
    <contour>
      <point x="128" y="-45" type="curve"/>
      <point x="54" y="-85" type="line"/>
      <point x="105" y="-178"/>
      <point x="194" y="-216"/>
      <point x="310" y="-216" type="curve" smooth="yes"/>
      <point x="481" y="-216"/>
      <point x="564" y="-140"/>
      <point x="564" y="-33" type="curve" smooth="yes"/>
      <point x="564" y="55"/>
      <point x="495" y="116"/>
      <point x="329" y="114" type="curve" smooth="yes"/>
      <point x="321" y="114"/>
      <point x="308" y="114"/>
      <point x="300" y="114" type="curve" smooth="yes"/>
      <point x="246" y="113"/>
      <point x="213" y="119"/>
      <point x="213" y="145" type="curve" smooth="yes"/>
      <point x="213" y="167"/>
      <point x="241" y="178"/>
      <point x="307" y="183" type="curve" smooth="yes"/>
      <point x="424" y="191"/>
      <point x="522" y="232"/>
      <point x="522" y="368" type="curve" smooth="yes"/>
      <point x="522" y="483"/>
      <point x="428" y="566"/>
      <point x="302" y="566" type="curve" smooth="yes"/>
      <point x="174" y="566"/>
      <point x="80" y="482"/>
      <point x="80" y="368" type="curve" smooth="yes"/>
      <point x="80" y="297"/>
      <point x="119" y="243"/>
      <point x="175" y="214" type="curve"/>
      <point x="139" y="195"/>
      <point x="115" y="169"/>
      <point x="115" y="130" type="curve" smooth="yes"/>
      <point x="115" y="95"/>
      <point x="151" y="29"/>
      <point x="284" y="29" type="curve" smooth="yes"/>
      <point x="339" y="29" type="line" smooth="yes"/>
      <point x="442" y="29"/>
      <point x="470" y="2"/>
      <point x="470" y="-37" type="curve" smooth="yes"/>
      <point x="470" y="-90"/>
      <point x="426" y="-133"/>
      <point x="308" y="-133" type="curve" smooth="yes"/>
      <point x="236" y="-133"/>
      <point x="168" y="-114"/>
    </contour>
  </outline>
</glyph>
<glyph name="h" format="2">
  <advance width="620"/>
  <unicode hex="0068"/>
  <anchor x="310" y="0" name="bottom"/>
  <anchor x="310" y="275" name="center"/>
  <anchor x="310" y="750" name="top"/>
  <outline>
    <contour>
      <point x="114" y="700" type="line"/>
      <point x="114" y="0" type="line"/>
      <point x="209" y="0" type="line"/>
      <point x="209" y="750" type="line"/>
    </contour>
    <contour>
      <point x="196" y="466" type="curve"/>
      <point x="196" y="372" type="line"/>
      <point x="265" y="426"/>
      <point x="319" y="447"/>
      <point x="366" y="447" type="curve" smooth="yes"/>
      <point x="419" y="447"/>
      <point x="445" y="416"/>
      <point x="445" y="339" type="curve" smooth="yes"/>
      <point x="445" y="219"/>
      <point x="445" y="120"/>
      <point x="445" y="0" type="curve"/>
      <point x="544" y="0" type="line"/>
      <point x="544" y="129"/>
      <point x="544" y="236"/>
      <point x="544" y="365" type="curve" smooth="yes"/>
      <point x="544" y="499"/>
      <point x="480" y="543"/>
      <point x="399" y="544" type="curve" smooth="yes"/>
      <point x="328" y="545"/>
      <point x="255" y="509"/>
    </contour>
    <contour>
      <point x="22" y="750" type="line"/>
      <point x="22" y="692" type="line"/>
      <point x="209" y="660" type="line"/>
      <point x="209" y="750" type="line"/>
    </contour>
  </outline>
</glyph>
<glyph name="i" format="2">
  <advance width="620"/>
  <unicode hex="0069"/>
  <outline>
    <contour>
      <point x="305" y="606" type="curve" smooth="yes"/>
      <point x="350" y="606"/>
      <point x="385" y="641"/>
      <point x="385" y="686" type="curve" smooth="yes"/>
      <point x="385" y="730"/>
      <point x="350" y="766"/>
      <point x="305" y="766" type="curve" smooth="yes"/>
      <point x="262" y="766"/>
      <point x="225" y="730"/>
      <point x="225" y="686" type="curve" smooth="yes"/>
      <point x="225" y="641"/>
      <point x="262" y="606"/>
    </contour>
    <contour>
      <point x="149" y="509" type="line"/>
      <point x="149" y="421" type="line"/>
      <point x="382" y="421" type="line"/>
      <point x="382" y="509" type="line"/>
    </contour>
    <contour>
      <point x="382" y="509" type="line"/>
      <point x="284" y="509" type="line"/>
      <point x="284" y="0" type="line"/>
      <point x="382" y="0" type="line"/>
    </contour>
    <contour>
      <point x="95" y="88" type="line"/>
      <point x="95" y="0" type="line"/>
      <point x="543" y="0" type="line"/>
      <point x="543" y="88" type="line"/>
    </contour>
  </outline>
</glyph>
<glyph name="j" format="2">
  <advance width="620"/>
  <unicode hex="006A"/>
  <outline>
    <contour>
      <point x="141" y="513" type="line"/>
      <point x="141" y="425" type="line"/>
      <point x="465" y="425" type="line"/>
      <point x="465" y="513" type="line"/>
    </contour>
    <contour>
      <point x="465" y="513" type="line"/>
      <point x="367" y="513" type="line"/>
      <point x="367" y="7" type="line"/>
      <point x="465" y="7" type="line"/>
    </contour>
    <contour>
      <point x="348" y="606" type="curve" smooth="yes"/>
      <point x="393" y="606"/>
      <point x="428" y="641"/>
      <point x="428" y="686" type="curve" smooth="yes"/>
      <point x="428" y="730"/>
      <point x="393" y="766"/>
      <point x="348" y="766" type="curve" smooth="yes"/>
      <point x="305" y="766"/>
      <point x="268" y="730"/>
      <point x="268" y="686" type="curve" smooth="yes"/>
      <point x="268" y="641"/>
      <point x="305" y="606"/>
    </contour>
    <contour>
      <point x="465" y="7" type="line"/>
      <point x="465" y="-129"/>
      <point x="458" y="-200"/>
      <point x="307" y="-200" type="curve" smooth="yes"/>
      <point x="83" y="-200" type="line"/>
      <point x="83" y="-110" type="line"/>
      <point x="286" y="-110" type="line" smooth="yes"/>
      <point x="363" y="-110"/>
      <point x="367" y="-76"/>
      <point x="367" y="7" type="curve"/>
    </contour>
  </outline>
</glyph>
<glyph name="k" format="2">
  <advance width="620"/>
  <unicode hex="006B"/>
  <anchor x="310" y="0" name="bottom"/>
  <anchor x="310" y="750" name="top"/>
  <outline>
    <contour>
      <point x="464" y="0" type="line"/>
      <point x="575" y="0" type="line"/>
      <point x="575" y="10" type="line"/>
      <point x="318" y="314" type="line"/>
      <point x="532" y="540" type="line"/>
      <point x="532" y="550" type="line"/>
      <point x="418" y="550" type="line"/>
      <point x="193" y="312" type="line"/>
      <point x="193" y="750" type="line"/>
      <point x="95" y="750" type="line"/>
      <point x="95" y="0" type="line"/>
      <point x="193" y="0" type="line"/>
      <point x="193" y="181" type="line"/>
      <point x="257" y="249" type="line"/>
    </contour>
  </outline>
</glyph>
<glyph name="l" format="2">
  <advance width="620"/>
  <unicode hex="006C"/>
  <outline>
    <contour>
      <point x="212" y="700" type="line"/>
      <point x="212" y="177" type="line"/>
      <point x="310" y="177" type="line"/>
      <point x="310" y="750" type="line"/>
    </contour>
    <contour>
      <point x="93" y="750" type="line"/>
      <point x="93" y="693" type="line"/>
      <point x="310" y="655" type="line"/>
      <point x="310" y="750" type="line"/>
    </contour>
    <contour>
      <point x="212" y="177" type="curve"/>
      <point x="310" y="177" type="line"/>
      <point x="310" y="136"/>
      <point x="318" y="90"/>
      <point x="391" y="90" type="curve" smooth="yes"/>
      <point x="509" y="90" type="line"/>
      <point x="509" y="0" type="line"/>
      <point x="342" y="0" type="line" smooth="yes"/>
      <point x="232" y="0"/>
      <point x="212" y="87"/>
    </contour>
  </outline>
</glyph>
<glyph name="n" format="2">
  <advance width="620"/>
  <unicode hex="006E"/>
  <outline>
    <contour>
      <point x="87" y="554" type="line"/>
      <point x="87" y="0" type="line"/>
      <point x="183" y="0" type="line"/>
      <point x="183" y="394" type="line"/>
      <point x="252" y="448"/>
      <point x="306" y="470"/>
      <point x="353" y="470" type="curve" smooth="yes"/>
      <point x="406" y="470"/>
      <point x="432" y="438"/>
      <point x="432" y="361" type="curve" smooth="yes"/>
      <point x="432" y="241"/>
      <point x="432" y="120"/>
      <point x="432" y="0" type="curve"/>
      <point x="531" y="0" type="line"/>
      <point x="531" y="129"/>
      <point x="531" y="248"/>
      <point x="531" y="377" type="curve" smooth="yes"/>
      <point x="531" y="515"/>
      <point x="463" y="565"/>
      <point x="387" y="566" type="curve" smooth="yes"/>
      <point x="319" y="567"/>
      <point x="240" y="532"/>
      <point x="182" y="487" type="curve"/>
      <point x="173" y="554" type="line"/>
    </contour>
  </outline>
</glyph>
<glyph name="p" format="2">
  <advance width="620"/>
  <unicode hex="0070"/>
  <anchor x="310" y="0" name="bottom"/>
  <anchor x="310" y="550" name="top"/>
  <outline>
    <contour>
      <point x="358" y="566" type="curve" smooth="yes"/>
      <point x="200" y="566"/>
      <point x="122" y="399"/>
      <point x="122" y="284" type="curve" smooth="yes"/>
      <point x="122" y="169"/>
      <point x="143" y="-16"/>
      <point x="311" y="-16" type="curve" smooth="yes"/>
      <point x="437" y="-16"/>
      <point x="554" y="110"/>
      <point x="566" y="280" type="curve" smooth="yes"/>
      <point x="578" y="457"/>
      <point x="488" y="566"/>
    </contour>
    <contour>
      <point x="348" y="479" type="curve" smooth="yes"/>
      <point x="444" y="479"/>
      <point x="477" y="397"/>
      <point x="468" y="280" type="curve" smooth="yes"/>
      <point x="458" y="153"/>
      <point x="398" y="72"/>
      <point x="306" y="72" type="curve" smooth="yes"/>
      <point x="209" y="72"/>
      <point x="187" y="184"/>
      <point x="187" y="280" type="curve" smooth="yes"/>
      <point x="187" y="385"/>
      <point x="246" y="479"/>
    </contour>
    <contour>
      <point x="115" y="558" type="line"/>
      <point x="115" y="-197" type="line"/>
      <point x="209" y="-197" type="line"/>
      <point x="209" y="502" type="line"/>
      <point x="199" y="558" type="line"/>
    </contour>
    <contour>
      <point x="22" y="558" type="line"/>
      <point x="22" y="500" type="line"/>
      <point x="209" y="468" type="line"/>
      <point x="209" y="502" type="line"/>
      <point x="199" y="558" type="line"/>
    </contour>
  </outline>
</glyph>
<glyph name="q" format="2">
  <advance width="620"/>
  <unicode hex="0071"/>
  <outline>
    <contour>
      <point x="423" y="558" type="line"/>
      <point x="413" y="493" type="line"/>
      <point x="413" y="-23" type="line"/>
      <point x="508" y="-23" type="line"/>
      <point x="508" y="558" type="line"/>
    </contour>
    <contour>
      <point x="272" y="566" type="curve" smooth="yes"/>
      <point x="130" y="566"/>
      <point x="57" y="429"/>
      <point x="57" y="279" type="curve" smooth="yes"/>
      <point x="57" y="131"/>
      <point x="129" y="-8"/>
      <point x="272" y="-8" type="curve" smooth="yes"/>
      <point x="408" y="-8"/>
      <point x="478" y="151"/>
      <point x="478" y="279" type="curve" smooth="yes"/>
      <point x="478" y="419"/>
      <point x="415" y="566"/>
    </contour>
    <contour>
      <point x="283" y="479" type="curve" smooth="yes"/>
      <point x="377" y="479"/>
      <point x="433" y="376"/>
      <point x="433" y="279" type="curve" smooth="yes"/>
      <point x="433" y="194"/>
      <point x="378" y="80"/>
      <point x="283" y="80" type="curve" smooth="yes"/>
      <point x="184" y="80"/>
      <point x="151" y="189"/>
      <point x="151" y="279" type="curve" smooth="yes"/>
      <point x="151" y="371"/>
      <point x="184" y="479"/>
    </contour>
    <contour>
      <point x="413" y="-23" type="line"/>
      <point x="413" y="-126"/>
      <point x="433" y="-200"/>
      <point x="543" y="-200" type="curve" smooth="yes"/>
      <point x="605" y="-200" type="line"/>
      <point x="605" y="-112" type="line"/>
      <point x="519" y="-112"/>
      <point x="508" y="-102"/>
      <point x="508" y="-23" type="curve"/>
    </contour>
  </outline>
</glyph>
<glyph name="r" format="2">
  <advance width="620"/>
  <unicode hex="0072"/>
  <anchor x="278" y="0" name="bottom"/>
  <anchor x="310" y="550" name="top"/>
  <outline>
    <contour>
      <point x="264" y="558" type="line"/>
      <point x="88" y="558" type="line"/>
      <point x="88" y="500" type="line"/>
      <point x="179" y="484" type="line"/>
      <point x="179" y="0" type="line"/>
      <point x="277" y="0" type="line"/>
      <point x="277" y="388" type="line"/>
      <point x="274" y="484" type="line"/>
    </contour>
    <contour>
      <point x="67" y="88" type="line"/>
      <point x="67" y="0" type="line"/>
      <point x="488" y="0" type="line"/>
      <point x="488" y="88" type="line"/>
    </contour>
    <contour>
      <point x="503" y="434" type="curve"/>
      <point x="573" y="493" type="line"/>
      <point x="547" y="539"/>
      <point x="494" y="565"/>
      <point x="437" y="566" type="curve" smooth="yes"/>
      <point x="358" y="567"/>
      <point x="292" y="505"/>
      <point x="234" y="447" type="curve"/>
      <point x="234" y="349" type="line"/>
      <point x="302" y="418"/>
      <point x="356" y="474"/>
      <point x="413" y="474" type="curve" smooth="yes"/>
      <point x="447" y="474"/>
      <point x="481" y="461"/>
    </contour>
  </outline>
</glyph>
<glyph name="t" format="2">
  <advance width="620"/>
  <unicode hex="0074"/>
  <outline>
    <contour>
      <point x="71" y="550" type="line"/>
      <point x="71" y="462" type="line"/>
      <point x="529" y="462" type="line"/>
      <point x="529" y="550" type="line"/>
    </contour>
    <contour>
      <point x="323" y="679" type="line"/>
      <point x="225" y="679" type="line"/>
      <point x="225" y="177" type="line" smooth="yes"/>
      <point x="225" y="87"/>
      <point x="245" y="0"/>
      <point x="353" y="0" type="curve" smooth="yes"/>
      <point x="526" y="0" type="line"/>
      <point x="526" y="90" type="line"/>
      <point x="404" y="90" type="line" smooth="yes"/>
      <point x="331" y="90"/>
      <point x="323" y="136"/>
      <point x="323" y="177" type="curve" smooth="yes"/>
    </contour>
  </outline>
</glyph>
<glyph name="u" format="2">
  <advance width="620"/>
  <unicode hex="0075"/>
  <outline>
    <contour>
      <point x="433" y="70" type="line"/>
      <point x="452" y="16"/>
      <point x="487" y="-12"/>
      <point x="576" y="-8" type="curve"/>
      <point x="576" y="73" type="line"/>
      <point x="533" y="75"/>
      <point x="519" y="95"/>
      <point x="519" y="131" type="curve" smooth="yes"/>
      <point x="519" y="550" type="line"/>
      <point x="423" y="550" type="line"/>
      <point x="423" y="70" type="line"/>
    </contour>
    <contour>
      <point x="77" y="550" type="line"/>
      <point x="77" y="206" type="line" smooth="yes"/>
      <point x="77" y="42"/>
      <point x="146" y="-15"/>
      <point x="237" y="-16" type="curve" smooth="yes"/>
      <point x="310" y="-17"/>
      <point x="382" y="25"/>
      <point x="442" y="74" type="curve"/>
      <point x="442" y="167" type="line"/>
      <point x="370" y="103"/>
      <point x="317" y="81"/>
      <point x="266" y="81" type="curve" smooth="yes"/>
      <point x="188" y="81"/>
      <point x="176" y="155"/>
      <point x="176" y="257" type="curve" smooth="yes"/>
      <point x="176" y="550" type="line"/>
    </contour>
  </outline>
</glyph>
<glyph name="v" format="2">
  <advance width="620"/>
  <unicode hex="0076"/>
  <outline>
    <contour>
      <point x="57" y="550" type="line"/>
      <point x="126" y="267"/>
      <point x="179" y="132"/>
      <point x="255" y="0" type="curve"/>
      <point x="356" y="0" type="line"/>
      <point x="280" y="132"/>
      <point x="228" y="267"/>
      <point x="160" y="550" type="curve"/>
    </contour>
    <contour>
      <point x="563" y="550" type="curve"/>
      <point x="460" y="550" type="line"/>
      <point x="392" y="267"/>
      <point x="340" y="132"/>
      <point x="264" y="0" type="curve"/>
      <point x="365" y="0" type="line"/>
      <point x="441" y="132"/>
      <point x="494" y="267"/>
    </contour>
  </outline>
</glyph>
<glyph name="x" format="2">
  <advance width="620"/>
  <unicode hex="0078"/>
  <anchor x="310" y="0" name="bottom"/>
  <anchor x="310" y="550" name="top"/>
  <outline>
    <contour>
      <point x="81" y="0" type="line"/>
      <point x="184" y="0" type="line"/>
      <point x="372" y="310" type="line"/>
      <point x="267" y="310" type="line"/>
      <point x="81" y="10" type="line"/>
    </contour>
    <contour>
      <point x="377" y="240" type="line"/>
      <point x="189" y="550" type="line"/>
      <point x="86" y="550" type="line"/>
      <point x="86" y="540" type="line"/>
      <point x="272" y="240" type="line"/>
    </contour>
    <contour>
      <point x="539" y="0" type="line"/>
      <point x="539" y="10" type="line"/>
      <point x="350" y="310" type="line"/>
      <point x="245" y="310" type="line"/>
      <point x="436" y="0" type="line"/>
    </contour>
    <contour>
      <point x="240" y="240" type="line"/>
      <point x="345" y="240" type="line"/>
      <point x="534" y="540" type="line"/>
      <point x="534" y="550" type="line"/>
      <point x="431" y="550" type="line"/>
    </contour>
  </outline>
</glyph>
<glyph name="y" format="2">
  <advance width="620"/>
  <unicode hex="0079"/>
  <outline>
    <contour>
      <point x="131" y="545" type="line"/>
      <point x="128" y="222" type="line" smooth="yes"/>
      <point x="127" y="62"/>
      <point x="202" y="1"/>
      <point x="293" y="0" type="curve" smooth="yes"/>
      <point x="385" y="-1"/>
      <point x="434" y="49"/>
      <point x="492" y="107" type="curve"/>
      <point x="492" y="198" type="line"/>
      <point x="413" y="134"/>
      <point x="373" y="96"/>
      <point x="311" y="96" type="curve" smooth="yes"/>
      <point x="234" y="96"/>
      <point x="226" y="171"/>
      <point x="226" y="273" type="curve" smooth="yes"/>
      <point x="226" y="545" type="line"/>
    </contour>
    <contour>
      <point x="441" y="-23" type="line" smooth="yes"/>
      <point x="441" y="-100"/>
      <point x="374" y="-125"/>
      <point x="301" y="-125" type="curve" smooth="yes"/>
      <point x="171" y="-125" type="line"/>
      <point x="171" y="-215" type="line"/>
      <point x="352" y="-215" type="line" smooth="yes"/>
      <point x="462" y="-215"/>
      <point x="539" y="-153"/>
      <point x="539" y="-23" type="curve" smooth="yes"/>
      <point x="539" y="550" type="line"/>
      <point x="441" y="550" type="line"/>
    </contour>
    <contour>
      <point x="47" y="545" type="line"/>
      <point x="47" y="477" type="line"/>
      <point x="225" y="451" type="line"/>
      <point x="225" y="545" type="line"/>
    </contour>
  </outline>
</glyph>
<glyph name="z" format="2">
  <advance width="620"/>
  <unicode hex="007A"/>
  <outline>
    <contour>
      <point x="91" y="550" type="line"/>
      <point x="91" y="462" type="line"/>
      <point x="519" y="462" type="line"/>
      <point x="519" y="550" type="line"/>
    </contour>
    <contour>
      <point x="85" y="88" type="line"/>
      <point x="85" y="0" type="line"/>
      <point x="535" y="0" type="line"/>
      <point x="535" y="88" type="line"/>
    </contour>
    <contour>
      <point x="85" y="88" type="line"/>
      <point x="211" y="88" type="line"/>
      <point x="519" y="462" type="line"/>
      <point x="393" y="462" type="line"/>
    </contour>
  </outline>
</glyph>
<glyph name="braceleft" format="2">
  <advance width="620"/>
  <unicode hex="007B"/>
  <outline>
    <contour>
      <point x="80" y="359" type="line"/>
      <point x="80" y="271" type="line"/>
      <point x="140" y="271" type="line" smooth="yes"/>
      <point x="197" y="271"/>
      <point x="251" y="213"/>
      <point x="251" y="166" type="curve" smooth="yes"/>
      <point x="251" y="108"/>
      <point x="206" y="75"/>
      <point x="206" y="4" type="curve" smooth="yes"/>
      <point x="206" y="-55"/>
      <point x="237" y="-101"/>
      <point x="307" y="-116" type="curve" smooth="yes"/>
      <point x="345" y="-124"/>
      <point x="416" y="-133"/>
      <point x="454" y="-135" type="curve"/>
      <point x="454" y="-37" type="line"/>
      <point x="405" y="-34"/>
      <point x="304" y="-30"/>
      <point x="301" y="19" type="curve" smooth="yes"/>
      <point x="298" y="65"/>
      <point x="346" y="103"/>
      <point x="346" y="169" type="curve" smooth="yes"/>
      <point x="346" y="231"/>
      <point x="292" y="287"/>
      <point x="247" y="315" type="curve"/>
      <point x="292" y="343"/>
      <point x="346" y="399"/>
      <point x="346" y="461" type="curve" smooth="yes"/>
      <point x="346" y="527"/>
      <point x="298" y="565"/>
      <point x="301" y="611" type="curve" smooth="yes"/>
      <point x="304" y="660"/>
      <point x="405" y="664"/>
      <point x="454" y="667" type="curve"/>
      <point x="454" y="765" type="line"/>
      <point x="416" y="763"/>
      <point x="345" y="754"/>
      <point x="307" y="746" type="curve" smooth="yes"/>
      <point x="237" y="731"/>
      <point x="206" y="685"/>
      <point x="206" y="626" type="curve" smooth="yes"/>
      <point x="206" y="555"/>
      <point x="251" y="522"/>
      <point x="251" y="464" type="curve" smooth="yes"/>
      <point x="251" y="417"/>
      <point x="197" y="359"/>
      <point x="140" y="359" type="curve" smooth="yes"/>
    </contour>
  </outline>
</glyph>
<glyph name="bar" format="2">
  <advance width="620"/>
  <unicode hex="007C"/>
  <outline>
    <contour>
      <point x="359" y="766" type="line"/>
      <point x="261" y="766" type="line"/>
      <point x="261" y="-160" type="line"/>
      <point x="359" y="-160" type="line"/>
    </contour>
  </outline>
</glyph>
<glyph name="braceright" format="2">
  <advance width="620"/>
  <unicode hex="007D"/>
  <outline>
    <contour>
      <point x="524" y="355" type="line"/>
      <point x="454" y="355" type="line" smooth="yes"/>
      <point x="397" y="355"/>
      <point x="383" y="414"/>
      <point x="383" y="461" type="curve" smooth="yes"/>
      <point x="383" y="519"/>
      <point x="402" y="548"/>
      <point x="402" y="619" type="curve" smooth="yes"/>
      <point x="402" y="678"/>
      <point x="374" y="724"/>
      <point x="304" y="739" type="curve" smooth="yes"/>
      <point x="266" y="747"/>
      <point x="218" y="752"/>
      <point x="180" y="754" type="curve"/>
      <point x="180" y="666" type="line"/>
      <point x="212" y="664"/>
      <point x="253" y="657"/>
      <point x="281" y="648" type="curve" smooth="yes"/>
      <point x="301" y="642"/>
      <point x="314" y="619"/>
      <point x="314" y="599" type="curve" smooth="yes"/>
      <point x="314" y="553"/>
      <point x="299" y="537"/>
      <point x="299" y="459" type="curve" smooth="yes"/>
      <point x="299" y="402"/>
      <point x="328" y="348"/>
      <point x="370" y="315" type="curve"/>
      <point x="328" y="282"/>
      <point x="299" y="228"/>
      <point x="299" y="171" type="curve" smooth="yes"/>
      <point x="299" y="93"/>
      <point x="314" y="77"/>
      <point x="314" y="31" type="curve" smooth="yes"/>
      <point x="314" y="11"/>
      <point x="301" y="-12"/>
      <point x="281" y="-18" type="curve" smooth="yes"/>
      <point x="253" y="-27"/>
      <point x="212" y="-34"/>
      <point x="180" y="-36" type="curve"/>
      <point x="180" y="-124" type="line"/>
      <point x="218" y="-122"/>
      <point x="266" y="-117"/>
      <point x="304" y="-109" type="curve" smooth="yes"/>
      <point x="374" y="-94"/>
      <point x="402" y="-48"/>
      <point x="402" y="11" type="curve" smooth="yes"/>
      <point x="402" y="82"/>
      <point x="383" y="111"/>
      <point x="383" y="169" type="curve" smooth="yes"/>
      <point x="383" y="216"/>
      <point x="397" y="275"/>
      <point x="454" y="275" type="curve" smooth="yes"/>
      <point x="524" y="275" type="line"/>
    </contour>
  </outline>
</glyph>
<glyph name="asciitilde" format="2">
  <advance width="620"/>
  <unicode hex="007E"/>
  <outline>
    <contour>
      <point x="285" y="285" type="curve" smooth="yes"/>
      <point x="401" y="180"/>
      <point x="439" y="169"/>
      <point x="580" y="345" type="curve"/>
      <point x="520" y="394" type="line"/>
      <point x="420" y="276"/>
      <point x="416" y="271"/>
      <point x="335" y="346" type="curve" smooth="yes"/>
      <point x="219" y="451"/>
      <point x="181" y="462"/>
      <point x="40" y="286" type="curve"/>
      <point x="100" y="237" type="line"/>
      <point x="200" y="355"/>
      <point x="204" y="360"/>
    </contour>
  </outline>
</glyph>
<glyph name="yen" format="2">
  <advance width="620"/>
  <unicode hex="00A5"/>
  <outline>
    <contour>
      <point x="555" y="700" type="line"/>
      <point x="453" y="700" type="line"/>
      <point x="299" y="393" type="line"/>
      <point x="391" y="393" type="line"/>
      <point x="555" y="691" type="line"/>
    </contour>
    <contour>
      <point x="262" y="384" type="line"/>
      <point x="265" y="10" type="line"/>
      <point x="355" y="10" type="line"/>
      <point x="358" y="384" type="line"/>
    </contour>
    <contour>
      <point x="515" y="322" type="line"/>
      <point x="515" y="392" type="line"/>
      <point x="515" y="395" type="line"/>
      <point x="101" y="395" type="line"/>
      <point x="101" y="322" type="line"/>
    </contour>
    <contour>
      <point x="515" y="183" type="line"/>
      <point x="515" y="253" type="line"/>
      <point x="515" y="256" type="line"/>
      <point x="101" y="256" type="line"/>
      <point x="101" y="183" type="line"/>
    </contour>
    <contour>
      <point x="65" y="700" type="line"/>
      <point x="65" y="691" type="line"/>
      <point x="229" y="393" type="line"/>
      <point x="321" y="393" type="line"/>
      <point x="167" y="700" type="line"/>
    </contour>
  </outline>
</glyph>
<glyph name="section" format="2">
  <advance width="620"/>
  <unicode hex="00A7"/>
  <outline>
    <contour>
      <point x="378" y="247" type="curve"/>
      <point x="446" y="195" type="line"/>
      <point x="483" y="231"/>
      <point x="529" y="274"/>
      <point x="529" y="335" type="curve" smooth="yes"/>
      <point x="529" y="492"/>
      <point x="201" y="515"/>
      <point x="203" y="610" type="curve" smooth="yes"/>
      <point x="204" y="650"/>
      <point x="265" y="680"/>
      <point x="324" y="680" type="curve" smooth="yes"/>
      <point x="381" y="680"/>
      <point x="428" y="661"/>
      <point x="474" y="625" type="curve"/>
      <point x="529" y="687" type="line"/>
      <point x="472" y="738"/>
      <point x="402" y="766"/>
      <point x="324" y="766" type="curve" smooth="yes"/>
      <point x="229" y="766"/>
      <point x="105" y="708"/>
      <point x="105" y="607" type="curve" smooth="yes"/>
      <point x="105" y="443"/>
      <point x="436" y="443"/>
      <point x="436" y="333" type="curve" smooth="yes"/>
      <point x="436" y="309"/>
      <point x="420" y="286"/>
    </contour>
    <contour>
      <point x="309" y="478" type="curve"/>
      <point x="235" y="529" type="line"/>
      <point x="198" y="517"/>
      <point x="106" y="466"/>
      <point x="106" y="396" type="curve" smooth="yes"/>
      <point x="106" y="236"/>
      <point x="433" y="217"/>
      <point x="431" y="131" type="curve" smooth="yes"/>
      <point x="430" y="91"/>
      <point x="375" y="67"/>
      <point x="316" y="67" type="curve" smooth="yes"/>
      <point x="265" y="67"/>
      <point x="203" y="88"/>
      <point x="160" y="134" type="curve"/>
      <point x="105" y="73" type="line"/>
      <point x="162" y="15"/>
      <point x="244" y="-16"/>
      <point x="316" y="-16" type="curve" smooth="yes"/>
      <point x="411" y="-16"/>
      <point x="529" y="33"/>
      <point x="529" y="134" type="curve" smooth="yes"/>
      <point x="529" y="285"/>
      <point x="202" y="295"/>
      <point x="202" y="398" type="curve" smooth="yes"/>
      <point x="202" y="435"/>
      <point x="263" y="467"/>
    </contour>
  </outline>
</glyph>
<glyph name="copyright" format="2">
  <advance width="620"/>
  <unicode hex="00A9"/>
  <outline>
    <contour>
      <point x="310" y="42" type="curve" smooth="yes"/>
      <point x="490" y="42"/>
      <point x="585" y="178"/>
      <point x="585" y="360" type="curve" smooth="yes"/>
      <point x="585" y="542"/>
      <point x="490" y="678"/>
      <point x="310" y="678" type="curve" smooth="yes"/>
      <point x="130" y="678"/>
      <point x="35" y="542"/>
      <point x="35" y="360" type="curve" smooth="yes"/>
      <point x="35" y="178"/>
      <point x="130" y="42"/>
    </contour>
    <contour>
      <point x="310" y="86" type="curve" smooth="yes"/>
      <point x="157" y="88"/>
      <point x="84" y="201"/>
      <point x="84" y="360" type="curve" smooth="yes"/>
      <point x="84" y="519"/>
      <point x="157" y="636"/>
      <point x="310" y="636" type="curve" smooth="yes"/>
      <point x="463" y="636"/>
      <point x="536" y="519"/>
      <point x="536" y="360" type="curve" smooth="yes"/>
      <point x="536" y="201"/>
      <point x="463" y="84"/>
    </contour>
    <contour>
      <point x="314" y="157" type="curve" smooth="yes"/>
      <point x="359" y="157"/>
      <point x="405" y="172"/>
      <point x="444" y="212" type="curve"/>
      <point x="399" y="266" type="line"/>
      <point x="369" y="239"/>
      <point x="341" y="229"/>
      <point x="312" y="229" type="curve" smooth="yes"/>
      <point x="265" y="229"/>
      <point x="219" y="268"/>
      <point x="219" y="359" type="curve" smooth="yes"/>
      <point x="219" y="441"/>
      <point x="258" y="498"/>
      <point x="312" y="498" type="curve" smooth="yes"/>
      <point x="341" y="498"/>
      <point x="364" y="485"/>
      <point x="383" y="455" type="curve"/>
      <point x="438" y="488" type="line"/>
      <point x="418" y="528"/>
      <point x="380" y="571"/>
      <point x="310" y="571" type="curve" smooth="yes"/>
      <point x="220" y="571"/>
      <point x="147" y="497"/>
      <point x="147" y="361" type="curve" smooth="yes"/>
      <point x="147" y="225"/>
      <point x="221" y="157"/>
    </contour>
  </outline>
</glyph>
<glyph name="guillemetleft" format="2">
  <advance width="620"/>
  <unicode hex="00AB"/>
  <outline>
    <contour>
      <point x="63" y="275" type="line"/>
      <point x="117" y="221" type="line"/>
      <point x="360" y="464" type="line"/>
      <point x="306" y="518" type="line"/>
    </contour>
    <contour>
      <point x="63" y="275" type="line"/>
      <point x="306" y="32" type="line"/>
      <point x="360" y="86" type="line"/>
      <point x="117" y="329" type="line"/>
    </contour>
    <contour>
      <point x="263" y="275" type="line"/>
      <point x="317" y="221" type="line"/>
      <point x="560" y="464" type="line"/>
      <point x="506" y="518" type="line"/>
    </contour>
    <contour>
      <point x="263" y="275" type="line"/>
      <point x="506" y="32" type="line"/>
      <point x="560" y="86" type="line"/>
      <point x="317" y="329" type="line"/>
    </contour>
  </outline>
</glyph>
<glyph name="registered" format="2">
  <advance width="620"/>
  <unicode hex="00AE"/>
  <outline>
    <contour>
      <point x="310" y="42" type="curve" smooth="yes"/>
      <point x="490" y="42"/>
      <point x="585" y="178"/>
      <point x="585" y="360" type="curve" smooth="yes"/>
      <point x="585" y="542"/>
      <point x="490" y="678"/>
      <point x="310" y="678" type="curve" smooth="yes"/>
      <point x="130" y="678"/>
      <point x="35" y="542"/>
      <point x="35" y="360" type="curve" smooth="yes"/>
      <point x="35" y="178"/>
      <point x="130" y="42"/>
    </contour>
    <contour>
      <point x="310" y="86" type="curve" smooth="yes"/>
      <point x="157" y="88"/>
      <point x="84" y="201"/>
      <point x="84" y="360" type="curve" smooth="yes"/>
      <point x="84" y="519"/>
      <point x="157" y="636"/>
      <point x="310" y="636" type="curve" smooth="yes"/>
      <point x="463" y="636"/>
      <point x="536" y="519"/>
      <point x="536" y="360" type="curve" smooth="yes"/>
      <point x="536" y="201"/>
      <point x="463" y="84"/>
    </contour>
    <contour>
      <point x="180" y="550" type="line"/>
      <point x="180" y="180" type="line"/>
      <point x="244" y="180" type="line"/>
      <point x="244" y="550" type="line"/>
    </contour>
    <contour>
      <point x="240" y="377" type="curve"/>
      <point x="240" y="318" type="line"/>
      <point x="264" y="318"/>
      <point x="289" y="318"/>
      <point x="316" y="318" type="curve" smooth="yes"/>
      <point x="396" y="318"/>
      <point x="446" y="360"/>
      <point x="446" y="434" type="curve" smooth="yes"/>
      <point x="446" y="508"/>
      <point x="398" y="550"/>
      <point x="316" y="550" type="curve" smooth="yes"/>
      <point x="296" y="550"/>
      <point x="268" y="550"/>
      <point x="240" y="550" type="curve"/>
      <point x="240" y="491" type="line"/>
      <point x="268" y="491"/>
      <point x="294" y="491"/>
      <point x="315" y="491" type="curve" smooth="yes"/>
      <point x="367" y="491"/>
      <point x="383" y="459"/>
      <point x="383" y="434" type="curve" smooth="yes"/>
      <point x="383" y="396"/>
      <point x="361" y="377"/>
      <point x="315" y="377" type="curve" smooth="yes"/>
      <point x="288" y="377"/>
      <point x="265" y="377"/>
    </contour>
    <contour>
      <point x="352" y="342" type="line"/>
      <point x="278" y="342" type="line"/>
      <point x="385" y="180" type="line"/>
      <point x="458" y="180" type="line"/>
      <point x="458" y="185" type="line"/>
    </contour>
  </outline>
</glyph>
<glyph name="degree" format="2">
  <advance width="620"/>
  <unicode hex="00B0"/>
  <outline>
    <contour>
      <point x="226" y="434" type="curve" smooth="yes"/>
      <point x="312" y="434"/>
      <point x="372" y="490"/>
      <point x="372" y="580" type="curve" smooth="yes"/>
      <point x="372" y="670"/>
      <point x="317" y="726"/>
      <point x="226" y="726" type="curve" smooth="yes"/>
      <point x="140" y="726"/>
      <point x="80" y="670"/>
      <point x="80" y="580" type="curve" smooth="yes"/>
      <point x="80" y="490"/>
      <point x="140" y="434"/>
    </contour>
    <contour>
      <point x="225" y="496" type="curve" smooth="yes"/>
      <point x="178" y="496"/>
      <point x="148" y="531"/>
      <point x="148" y="579" type="curve" smooth="yes"/>
      <point x="148" y="629"/>
      <point x="178" y="664"/>
      <point x="225" y="664" type="curve" smooth="yes"/>
      <point x="275" y="664"/>
      <point x="304" y="629"/>
      <point x="304" y="579" type="curve" smooth="yes"/>
      <point x="304" y="531"/>
      <point x="275" y="496"/>
    </contour>
  </outline>
</glyph>
<glyph name="plusminus" format="2">
  <advance width="620"/>
  <unicode hex="00B1"/>
  <outline>
    <contour>
      <point x="520" y="439" type="line"/>
      <point x="100" y="439" type="line"/>
      <point x="100" y="353" type="line"/>
      <point x="520" y="353" type="line"/>
    </contour>
    <contour>
      <point x="355" y="170" type="line"/>
      <point x="355" y="622" type="line"/>
      <point x="265" y="622" type="line"/>
      <point x="265" y="170" type="line"/>
    </contour>
    <contour>
      <point x="100" y="99" type="line"/>
      <point x="100" y="13" type="line"/>
      <point x="520" y="13" type="line"/>
      <point x="520" y="99" type="line"/>
    </contour>
  </outline>
</glyph>
<glyph name="paragraph" format="2">
  <advance width="620"/>
  <unicode hex="00B6"/>
  <outline>
    <contour>
      <point x="367" y="750" type="line"/>
      <point x="281" y="750" type="line"/>
      <point x="281" y="-60" type="line"/>
      <point x="367" y="-60" type="line"/>
    </contour>
    <contour>
      <point x="291" y="318" type="curve"/>
      <point x="291" y="750" type="line"/>
      <point x="176" y="750"/>
      <point x="85" y="657"/>
      <point x="85" y="534" type="curve" smooth="yes"/>
      <point x="85" y="411"/>
      <point x="176" y="318"/>
    </contour>
    <contour>
      <point x="525" y="750" type="line"/>
      <point x="441" y="750" type="line"/>
      <point x="441" y="-60" type="line"/>
      <point x="525" y="-60" type="line"/>
    </contour>
    <contour>
      <point x="327" y="750" type="line"/>
      <point x="327" y="693" type="line"/>
      <point x="477" y="693" type="line"/>
      <point x="477" y="750" type="line"/>
    </contour>
  </outline>
</glyph>
<glyph name="ordmasculine" format="2">
  <advance width="620"/>
  <unicode hex="00BA"/>
  <outline>
    <contour>
      <point x="228" y="381" type="curve" smooth="yes"/>
      <point x="319" y="381"/>
      <point x="376" y="450"/>
      <point x="376" y="554" type="curve" smooth="yes"/>
      <point x="376" y="658"/>
      <point x="321" y="726"/>
      <point x="228" y="726" type="curve" smooth="yes"/>
      <point x="137" y="726"/>
      <point x="80" y="658"/>
      <point x="80" y="554" type="curve" smooth="yes"/>
      <point x="80" y="450"/>
      <point x="137" y="381"/>
    </contour>
    <contour>
      <point x="228" y="452" type="curve" smooth="yes"/>
      <point x="178" y="452"/>
      <point x="151" y="493"/>
      <point x="151" y="554" type="curve" smooth="yes"/>
      <point x="151" y="615"/>
      <point x="178" y="656"/>
      <point x="228" y="656" type="curve" smooth="yes"/>
      <point x="278" y="656"/>
      <point x="305" y="615"/>
      <point x="305" y="554" type="curve" smooth="yes"/>
      <point x="305" y="493"/>
      <point x="278" y="452"/>
    </contour>
  </outline>
</glyph>
<glyph name="guillemetright" format="2">
  <advance width="620"/>
  <unicode hex="00BB"/>
  <outline>
    <contour>
      <point x="557" y="275" type="line"/>
      <point x="314" y="518" type="line"/>
      <point x="260" y="464" type="line"/>
      <point x="503" y="221" type="line"/>
    </contour>
    <contour>
      <point x="557" y="275" type="line"/>
      <point x="503" y="329" type="line"/>
      <point x="260" y="86" type="line"/>
      <point x="314" y="32" type="line"/>
    </contour>
    <contour>
      <point x="357" y="275" type="line"/>
      <point x="114" y="518" type="line"/>
      <point x="60" y="464" type="line"/>
      <point x="303" y="221" type="line"/>
    </contour>
    <contour>
      <point x="357" y="275" type="line"/>
      <point x="303" y="329" type="line"/>
      <point x="60" y="86" type="line"/>
      <point x="114" y="32" type="line"/>
    </contour>
  </outline>
</glyph>
<glyph name="AE" format="2">
  <advance width="620"/>
  <unicode hex="00C6"/>
  <outline>
    <contour>
      <point x="14" y="0" type="curve"/>
      <point x="111" y="0" type="line"/>
      <point x="169" y="277"/>
      <point x="232" y="539"/>
      <point x="313" y="710" type="curve"/>
      <point x="225" y="710" type="line"/>
      <point x="143" y="540"/>
      <point x="80" y="298"/>
    </contour>
    <contour>
      <point x="91" y="255" type="line"/>
      <point x="91" y="170" type="line"/>
      <point x="344" y="170" type="line"/>
      <point x="344" y="255" type="line"/>
    </contour>
    <contour>
      <point x="300" y="710" type="line"/>
      <point x="300" y="0" type="line"/>
      <point x="385" y="0" type="line"/>
      <point x="385" y="710" type="line"/>
    </contour>
    <contour>
      <point x="562" y="392" type="line"/>
      <point x="323" y="392" type="line"/>
      <point x="323" y="308" type="line"/>
      <point x="562" y="308" type="line"/>
    </contour>
    <contour>
      <point x="586" y="710" type="line"/>
      <point x="247" y="710" type="line"/>
      <point x="247" y="626" type="line"/>
      <point x="586" y="626" type="line"/>
    </contour>
    <contour>
      <point x="594" y="84" type="line"/>
      <point x="323" y="84" type="line"/>
      <point x="323" y="0" type="line"/>
      <point x="594" y="0" type="line"/>
    </contour>
  </outline>
</glyph>
<glyph name="multiply" format="2">
  <advance width="620"/>
  <unicode hex="00D7"/>
  <outline>
    <contour>
      <point x="163" y="93" type="line"/>
      <point x="518" y="448" type="line"/>
      <point x="456" y="510" type="line"/>
      <point x="101" y="155" type="line"/>
    </contour>
    <contour>
      <point x="456" y="93" type="line"/>
      <point x="519" y="156" type="line"/>
      <point x="164" y="511" type="line"/>
      <point x="101" y="448" type="line"/>
    </contour>
  </outline>
</glyph>
<glyph name="Oslash" format="2">
  <advance width="620"/>
  <unicode hex="00D8"/>
  <anchor x="310" y="0" name="bottom"/>
  <anchor x="310" y="355" name="center"/>
  <anchor x="310" y="710" name="top"/>
  <anchor x="40" y="710" name="topleft"/>
  <anchor x="463" y="679" name="topright"/>
  <outline>
    <contour>
      <point x="22" y="-86" type="line"/>
      <point x="114" y="-86" type="line"/>
      <point x="598" y="790" type="line"/>
      <point x="598" y="796" type="line"/>
      <point x="506" y="796" type="line"/>
      <point x="22" y="-80" type="line"/>
    </contour>
    <component base="O"/>
  </outline>
</glyph>
<glyph name="germandbls" format="2">
  <advance width="620"/>
  <unicode hex="00DF"/>
  <outline>
    <contour>
      <point x="600" y="288"/>
      <point x="495" y="351" type="curve" smooth="yes"/>
      <point x="435" y="387"/>
      <point x="356" y="395"/>
      <point x="355" y="426" type="curve" smooth="yes"/>
      <point x="354" y="458"/>
      <point x="438" y="476"/>
      <point x="469" y="569" type="curve" smooth="yes"/>
      <point x="498" y="655"/>
      <point x="428" y="766"/>
      <point x="288" y="766" type="curve" smooth="yes"/>
      <point x="198" y="766"/>
      <point x="64" y="730"/>
      <point x="64" y="535" type="curve" smooth="yes"/>
      <point x="64" y="0" type="line"/>
      <point x="161" y="0" type="line"/>
      <point x="161" y="515" type="line" smooth="yes"/>
      <point x="161" y="638"/>
      <point x="220" y="675"/>
      <point x="297" y="669" type="curve" smooth="yes"/>
      <point x="377" y="663"/>
      <point x="392" y="592"/>
      <point x="348" y="543" type="curve" smooth="yes"/>
      <point x="322" y="514"/>
      <point x="249" y="478"/>
      <point x="249" y="415" type="curve" smooth="yes"/>
      <point x="249" y="361"/>
      <point x="314" y="332"/>
      <point x="396" y="303" type="curve" smooth="yes"/>
      <point x="482" y="273"/>
      <point x="489" y="199"/>
      <point x="467" y="158" type="curve" smooth="yes"/>
      <point x="439" y="106"/>
      <point x="372" y="67"/>
      <point x="249" y="115" type="curve"/>
      <point x="224" y="19" type="line"/>
      <point x="352" y="-27"/>
      <point x="479" y="-21"/>
      <point x="551" y="99" type="curve" smooth="yes"/>
      <point x="588" y="161"/>
    </contour>
  </outline>
</glyph>
<glyph name="ae" format="2">
  <advance width="620"/>
  <unicode hex="00E6"/>
  <outline>
    <contour>
      <point x="330" y="152" type="curve"/>
      <point x="329" y="405" type="line" smooth="yes"/>
      <point x="328" y="536"/>
      <point x="263" y="560"/>
      <point x="223" y="566" type="curve" smooth="yes"/>
      <point x="170" y="574"/>
      <point x="103" y="544"/>
      <point x="44" y="505" type="curve"/>
      <point x="92" y="437" type="line"/>
      <point x="139" y="468"/>
      <point x="184" y="486"/>
      <point x="216" y="480" type="curve" smooth="yes"/>
      <point x="261" y="471"/>
      <point x="258" y="406"/>
      <point x="258" y="334" type="curve"/>
      <point x="152" y="340"/>
      <point x="28" y="293"/>
      <point x="28" y="145" type="curve" smooth="yes"/>
      <point x="28" y="29"/>
      <point x="106" y="-16"/>
      <point x="164" y="-16" type="curve" smooth="yes"/>
      <point x="241" y="-16"/>
      <point x="285" y="34"/>
      <point x="306" y="101" type="curve"/>
      <point x="314" y="118"/>
      <point x="322" y="135"/>
    </contour>
    <contour>
      <point x="108" y="145" type="curve" smooth="yes"/>
      <point x="108" y="208"/>
      <point x="153" y="264"/>
      <point x="259" y="257" type="curve"/>
      <point x="259" y="156" type="line"/>
      <point x="252" y="109"/>
      <point x="221" y="67"/>
      <point x="178" y="67" type="curve" smooth="yes"/>
      <point x="139" y="67"/>
      <point x="108" y="99"/>
    </contour>
    <contour>
      <point x="441" y="-16" type="curve" smooth="yes"/>
      <point x="477" y="-16"/>
      <point x="523" y="-8"/>
      <point x="577" y="41" type="curve"/>
      <point x="532" y="104" type="line"/>
      <point x="498" y="75"/>
      <point x="470" y="64"/>
      <point x="441" y="64" type="curve" smooth="yes"/>
      <point x="370" y="64"/>
      <point x="332" y="143"/>
      <point x="336" y="239" type="curve"/>
      <point x="580" y="239" type="line"/>
      <point x="609" y="404"/>
      <point x="560" y="566"/>
      <point x="429" y="566" type="curve" smooth="yes"/>
      <point x="333" y="566"/>
      <point x="260" y="465"/>
      <point x="260" y="273" type="curve" smooth="yes"/>
      <point x="260" y="124"/>
      <point x="310" y="-16"/>
    </contour>
    <contour>
      <point x="335" y="312" type="line"/>
      <point x="336" y="420"/>
      <point x="375" y="485"/>
      <point x="428" y="485" type="curve" smooth="yes"/>
      <point x="487" y="485"/>
      <point x="521" y="403"/>
      <point x="513" y="312" type="curve"/>
    </contour>
  </outline>
</glyph>
<glyph name="eth" format="2">
  <advance width="620"/>
  <unicode hex="00F0"/>
  <outline>
    <contour>
      <point x="433" y="208" type="curve" smooth="yes"/>
      <point x="433" y="130"/>
      <point x="378" y="67"/>
      <point x="300" y="67" type="curve" smooth="yes"/>
      <point x="214" y="67"/>
      <point x="167" y="130"/>
      <point x="167" y="208" type="curve" smooth="yes"/>
      <point x="167" y="303"/>
      <point x="214" y="369"/>
      <point x="300" y="369" type="curve" smooth="yes"/>
      <point x="378" y="369"/>
      <point x="433" y="303"/>
    </contour>
    <contour>
      <point x="72" y="208" type="curve" smooth="yes"/>
      <point x="72" y="79"/>
      <point x="163" y="-16"/>
      <point x="301" y="-16" type="curve" smooth="yes"/>
      <point x="490" y="-16"/>
      <point x="550" y="157"/>
      <point x="534" y="322" type="curve" smooth="yes"/>
      <point x="521" y="459"/>
      <point x="459" y="623"/>
      <point x="202" y="766" type="curve"/>
      <point x="157" y="691" type="line"/>
      <point x="320" y="604"/>
      <point x="422" y="484"/>
      <point x="437" y="388" type="curve"/>
      <point x="409" y="424"/>
      <point x="354" y="455"/>
      <point x="288" y="455" type="curve" smooth="yes"/>
      <point x="160" y="455"/>
      <point x="72" y="348"/>
    </contour>
    <contour>
      <point x="157" y="550" type="line"/>
      <point x="200" y="491" type="line"/>
      <point x="483" y="695" type="line"/>
      <point x="439" y="755" type="line"/>
    </contour>
  </outline>
</glyph>
<glyph name="oslash" format="2">
  <advance width="620"/>
  <unicode hex="00F8"/>
  <anchor x="310" y="0" name="bottom"/>
  <anchor x="310" y="275" name="center"/>
  <anchor x="558" y="10" name="ogonek"/>
  <anchor x="310" y="550" name="top"/>
  <anchor x="600" y="550" name="topright"/>
  <outline>
    <contour>
      <point x="32" y="-86" type="line"/>
      <point x="124" y="-86" type="line"/>
      <point x="588" y="631" type="line"/>
      <point x="588" y="637" type="line"/>
      <point x="496" y="637" type="line"/>
      <point x="32" y="-80" type="line"/>
    </contour>
    <component base="o"/>
  </outline>
</glyph>
<glyph name="thorn" format="2">
  <advance width="620"/>
  <unicode hex="00FE"/>
  <outline>
    <contour>
      <point x="347" y="-16" type="curve" smooth="yes"/>
      <point x="489" y="-16"/>
      <point x="562" y="121"/>
      <point x="562" y="271" type="curve" smooth="yes"/>
      <point x="562" y="419"/>
      <point x="490" y="558"/>
      <point x="347" y="558" type="curve" smooth="yes"/>
      <point x="211" y="558"/>
      <point x="141" y="399"/>
      <point x="141" y="271" type="curve" smooth="yes"/>
      <point x="141" y="131"/>
      <point x="214" y="-16"/>
    </contour>
    <contour>
      <point x="336" y="71" type="curve" smooth="yes"/>
      <point x="242" y="71"/>
      <point x="186" y="174"/>
      <point x="186" y="271" type="curve" smooth="yes"/>
      <point x="186" y="356"/>
      <point x="241" y="470"/>
      <point x="336" y="470" type="curve" smooth="yes"/>
      <point x="435" y="470"/>
      <point x="468" y="361"/>
      <point x="468" y="271" type="curve" smooth="yes"/>
      <point x="468" y="179"/>
      <point x="435" y="71"/>
    </contour>
    <contour>
      <point x="113" y="750" type="line"/>
      <point x="113" y="-200" type="line"/>
      <point x="207" y="-200" type="line"/>
      <point x="207" y="750" type="line"/>
    </contour>
  </outline>
</glyph>
<glyph name="Hbar" format="2">
  <advance width="620"/>
  <unicode hex="0126"/>
  <anchor x="310" y="0" name="bottom"/>
  <anchor x="310" y="710" name="top"/>
  <outline>
    <contour>
      <point x="14" y="604" type="line"/>
      <point x="14" y="530" type="line"/>
      <point x="606" y="530" type="line"/>
      <point x="606" y="604" type="line"/>
    </contour>
    <component base="H"/>
  </outline>
</glyph>
<glyph name="idotless" format="2">
  <advance width="620"/>
  <unicode hex="0131"/>
  <anchor x="295" y="0" name="bottom"/>
  <anchor x="533" y="0" name="ogonek"/>
  <anchor x="295" y="550" name="top"/>
  <outline>
    <contour>
      <point x="139" y="509" type="line"/>
      <point x="139" y="421" type="line"/>
      <point x="372" y="421" type="line"/>
      <point x="372" y="509" type="line"/>
    </contour>
    <contour>
      <point x="372" y="509" type="line"/>
      <point x="274" y="509" type="line"/>
      <point x="274" y="0" type="line"/>
      <point x="372" y="0" type="line"/>
    </contour>
    <contour>
      <point x="85" y="88" type="line"/>
      <point x="85" y="0" type="line"/>
      <point x="533" y="0" type="line"/>
      <point x="533" y="88" type="line"/>
    </contour>
  </outline>
</glyph>
<glyph name="lslash" format="2">
  <advance width="620"/>
  <unicode hex="0142"/>
  <anchor x="300" y="0" name="bottom"/>
  <anchor x="310" y="355" name="center"/>
  <anchor x="282" y="750" name="top"/>
  <anchor x="310" y="750" name="topright"/>
  <outline>
    <contour>
      <point x="456" y="540" type="line"/>
      <point x="450" y="540" type="line"/>
      <point x="72" y="317" type="line"/>
      <point x="72" y="225" type="line"/>
      <point x="78" y="225" type="line"/>
      <point x="456" y="448" type="line"/>
    </contour>
    <component base="l"/>
  </outline>
</glyph>
<glyph name="Eng" format="2">
  <advance width="620"/>
  <unicode hex="014A"/>
  <anchor x="310" y="0" name="bottom"/>
  <anchor x="310" y="710" name="top"/>
  <outline>
    <contour>
      <point x="553" y="7" type="line"/>
      <point x="177" y="710" type="line"/>
      <point x="63" y="710" type="line"/>
      <point x="474" y="-29" type="line"/>
    </contour>
    <contour>
      <point x="56" y="710" type="line"/>
      <point x="56" y="0" type="line"/>
      <point x="154" y="0" type="line"/>
      <point x="154" y="710" type="line"/>
    </contour>
    <contour>
      <point x="466" y="710" type="line"/>
      <point x="466" y="0" type="line"/>
      <point x="564" y="0" type="line"/>
      <point x="564" y="710" type="line"/>
    </contour>
    <contour>
      <point x="350" y="-113" type="line"/>
      <point x="350" y="-200" type="line"/>
      <point x="410" y="-200" type="line" smooth="yes"/>
      <point x="564" y="-200"/>
      <point x="564" y="-124"/>
      <point x="564" y="7" type="curve"/>
      <point x="466" y="7" type="line"/>
      <point x="466" y="-100"/>
      <point x="464" y="-113"/>
      <point x="386" y="-113" type="curve" smooth="yes"/>
    </contour>
  </outline>
</glyph>
<glyph name="Tbar" format="2">
  <advance width="620"/>
  <unicode hex="0166"/>
  <anchor x="310" y="0" name="bottom"/>
  <anchor x="310" y="710" name="top"/>
  <outline>
    <contour>
      <point x="104" y="404" type="line"/>
      <point x="104" y="330" type="line"/>
      <point x="516" y="330" type="line"/>
      <point x="516" y="404" type="line"/>
    </contour>
    <component base="T"/>
  </outline>
</glyph>
<glyph name="tbar" format="2">
  <advance width="620"/>
  <unicode hex="0167"/>
  <anchor x="371" y="0" name="bottom"/>
  <anchor x="310" y="275" name="center"/>
  <anchor x="310" y="550" name="top"/>
  <anchor x="310" y="750" name="topright"/>
  <outline>
    <contour>
      <point x="104" y="354" type="line"/>
      <point x="104" y="280" type="line"/>
      <point x="454" y="280" type="line"/>
      <point x="454" y="354" type="line"/>
    </contour>
    <component base="t"/>
  </outline>
</glyph>
<glyph name="Schwa" format="2">
  <advance width="620"/>
  <unicode hex="018F"/>
  <outline>
    <contour>
      <point x="91" y="675" type="curve"/>
      <point x="137" y="592" type="line"/>
      <point x="200" y="624"/>
      <point x="250" y="630"/>
      <point x="283" y="630" type="curve" smooth="yes"/>
      <point x="391" y="630"/>
      <point x="468" y="541"/>
      <point x="476" y="397" type="curve"/>
      <point x="64" y="397" type="line"/>
      <point x="21" y="189"/>
      <point x="100" y="-16"/>
      <point x="307" y="-16" type="curve" smooth="yes"/>
      <point x="488" y="-16"/>
      <point x="580" y="104"/>
      <point x="580" y="358" type="curve" smooth="yes"/>
      <point x="580" y="592"/>
      <point x="469" y="726"/>
      <point x="290" y="726" type="curve" smooth="yes"/>
      <point x="235" y="726"/>
      <point x="176" y="720"/>
    </contour>
    <contour>
      <point x="476" y="305" type="line"/>
      <point x="478" y="165"/>
      <point x="422" y="84"/>
      <point x="310" y="84" type="curve" smooth="yes"/>
      <point x="201" y="84"/>
      <point x="144" y="165"/>
      <point x="149" y="305" type="curve"/>
    </contour>
  </outline>
</glyph>
<glyph name="jdotless" format="2">
  <advance width="620"/>
  <unicode hex="0237"/>
  <anchor x="310" y="-200" name="bottom"/>
  <anchor x="348" y="550" name="top"/>
  <outline>
    <contour>
      <point x="141" y="513" type="line"/>
      <point x="141" y="425" type="line"/>
      <point x="465" y="425" type="line"/>
      <point x="465" y="513" type="line"/>
    </contour>
    <contour>
      <point x="465" y="513" type="line"/>
      <point x="367" y="513" type="line"/>
      <point x="367" y="7" type="line"/>
      <point x="465" y="7" type="line"/>
    </contour>
    <contour>
      <point x="465" y="7" type="line"/>
      <point x="465" y="-129"/>
      <point x="458" y="-200"/>
      <point x="307" y="-200" type="curve" smooth="yes"/>
      <point x="83" y="-200" type="line"/>
      <point x="83" y="-110" type="line"/>
      <point x="286" y="-110" type="line" smooth="yes"/>
      <point x="363" y="-110"/>
      <point x="367" y="-76"/>
      <point x="367" y="7" type="curve"/>
    </contour>
  </outline>
</glyph>
<glyph name="schwa" format="2">
  <advance width="620"/>
  <unicode hex="0259"/>
  <outline>
    <contour>
      <point x="115" y="530" type="curve"/>
      <point x="148" y="453" type="line"/>
      <point x="205" y="475"/>
      <point x="255" y="480"/>
      <point x="282" y="480" type="curve" smooth="yes"/>
      <point x="373" y="480"/>
      <point x="449" y="436"/>
      <point x="464" y="322" type="curve"/>
      <point x="83" y="322" type="line"/>
      <point x="39" y="161"/>
      <point x="113" y="-16"/>
      <point x="307" y="-16" type="curve" smooth="yes"/>
      <point x="463" y="-16"/>
      <point x="562" y="89"/>
      <point x="562" y="277" type="curve" smooth="yes"/>
      <point x="562" y="463"/>
      <point x="451" y="566"/>
      <point x="292" y="566" type="curve" smooth="yes"/>
      <point x="245" y="566"/>
      <point x="192" y="562"/>
    </contour>
    <contour>
      <point x="468" y="237" type="line"/>
      <point x="468" y="144"/>
      <point x="410" y="72"/>
      <point x="310" y="72" type="curve" smooth="yes"/>
      <point x="206" y="72"/>
      <point x="150" y="144"/>
      <point x="158" y="237" type="curve"/>
    </contour>
  </outline>
</glyph>
<glyph name="ringhalfright" format="2">
  <advance width="620"/>
  <unicode hex="02BE"/>
  <outline>
    <contour>
      <point x="248" y="692" type="line"/>
      <point x="320" y="692"/>
      <point x="357" y="649"/>
      <point x="357" y="595" type="curve" smooth="yes"/>
      <point x="357" y="546"/>
      <point x="320" y="500"/>
      <point x="248" y="500" type="curve"/>
      <point x="248" y="442" type="line"/>
      <point x="359" y="442"/>
      <point x="420" y="508"/>
      <point x="420" y="596" type="curve" smooth="yes"/>
      <point x="420" y="684"/>
      <point x="359" y="750"/>
      <point x="248" y="750" type="curve"/>
    </contour>
  </outline>
</glyph>
<glyph name="verticallinemod" format="2">
  <advance width="620"/>
  <unicode hex="02C8"/>
  <outline>
    <contour>
      <point x="360" y="750" type="line"/>
      <point x="260" y="750" type="line"/>
      <point x="260" y="390" type="line"/>
      <point x="360" y="390" type="line"/>
    </contour>
  </outline>
</glyph>
<glyph name="verticallinelowmod" format="2">
  <advance width="620"/>
  <unicode hex="02CC"/>
  <outline>
    <contour>
      <point x="360" y="160" type="line"/>
      <point x="260" y="160" type="line"/>
      <point x="260" y="-200" type="line"/>
      <point x="360" y="-200" type="line"/>
    </contour>
  </outline>
</glyph>
<glyph name="gravecomb" format="2">
  <unicode hex="0300"/>
  <anchor x="291" y="550" name="_top"/>
  <anchor x="291" y="786" name="top"/>
  <outline>
    <contour>
      <point x="287" y="786" type="line"/>
      <point x="173" y="786" type="line"/>
      <point x="173" y="780" type="line"/>
      <point x="278" y="628" type="line"/>
      <point x="349" y="628" type="line"/>
    </contour>
  </outline>
</glyph>
<glyph name="acutecomb" format="2">
  <unicode hex="0301"/>
  <outline>
    <contour>
      <point x="340" y="786" type="line"/>
      <point x="278" y="628" type="line"/>
      <point x="349" y="628" type="line"/>
      <point x="454" y="780" type="line"/>
      <point x="454" y="786" type="line"/>
    </contour>
  </outline>
</glyph>
<glyph name="circumflexcomb" format="2">
  <unicode hex="0302"/>
  <outline>
    <contour>
      <point x="351" y="786" type="line"/>
      <point x="257" y="786" type="line"/>
      <point x="257" y="780" type="line"/>
      <point x="388" y="628" type="line"/>
      <point x="473" y="628" type="line"/>
    </contour>
    <contour>
      <point x="257" y="786" type="line"/>
      <point x="135" y="628" type="line"/>
      <point x="220" y="628" type="line"/>
      <point x="351" y="780" type="line"/>
      <point x="351" y="786" type="line"/>
    </contour>
  </outline>
</glyph>
<glyph name="tildecomb" format="2">
  <unicode hex="0303"/>
  <anchor x="300" y="550" name="_top"/>
  <anchor x="300" y="776" name="top"/>
  <outline>
    <contour>
      <point x="320" y="727" type="curve" smooth="yes"/>
      <point x="252" y="783"/>
      <point x="222" y="814"/>
      <point x="115" y="689" type="curve"/>
      <point x="167" y="647" type="line"/>
      <point x="233" y="721"/>
      <point x="236" y="715"/>
      <point x="298" y="666" type="curve" smooth="yes"/>
      <point x="370" y="610"/>
      <point x="389" y="606"/>
      <point x="485" y="721" type="curve"/>
      <point x="434" y="760" type="line"/>
      <point x="376" y="694"/>
      <point x="371" y="685"/>
    </contour>
  </outline>
</glyph>
<glyph name="macroncomb" format="2">
  <unicode hex="0304"/>
  <anchor x="310" y="550" name="_top"/>
  <outline>
    <contour>
      <point x="155" y="723" type="line"/>
      <point x="155" y="642" type="line"/>
      <point x="465" y="642" type="line"/>
      <point x="465" y="723" type="line"/>
    </contour>
  </outline>
</glyph>
<glyph name="brevecomb" format="2">
  <unicode hex="0306"/>
  <anchor x="310" y="620" name="bottom"/>
  <anchor x="310" y="787" name="top"/>
  <outline>
    <contour>
      <point x="479" y="787" type="curve"/>
      <point x="397" y="787" type="line"/>
      <point x="396" y="727"/>
      <point x="362" y="694"/>
      <point x="310" y="694" type="curve" smooth="yes"/>
      <point x="257" y="694"/>
      <point x="224" y="727"/>
      <point x="223" y="787" type="curve"/>
      <point x="141" y="787" type="line"/>
      <point x="142" y="689"/>
      <point x="208" y="620"/>
      <point x="310" y="620" type="curve" smooth="yes"/>
      <point x="409" y="620"/>
      <point x="478" y="689"/>
    </contour>
  </outline>
</glyph>
<glyph name="dotaccentcomb" format="2">
  <unicode hex="0307"/>
  <anchor x="305" y="550" name="_top"/>
  <anchor x="305" y="766" name="top"/>
  <outline>
    <contour>
      <point x="305" y="606" type="curve" smooth="yes"/>
      <point x="350" y="606"/>
      <point x="385" y="641"/>
      <point x="385" y="686" type="curve" smooth="yes"/>
      <point x="385" y="730"/>
      <point x="350" y="766"/>
      <point x="305" y="766" type="curve" smooth="yes"/>
      <point x="262" y="766"/>
      <point x="225" y="730"/>
      <point x="225" y="686" type="curve" smooth="yes"/>
      <point x="225" y="641"/>
      <point x="262" y="606"/>
    </contour>
  </outline>
</glyph>
<glyph name="dieresiscomb" format="2">
  <unicode hex="0308"/>
  <outline>
    <contour>
      <point x="158" y="760" type="line"/>
      <point x="158" y="654" type="line"/>
      <point x="264" y="654" type="line"/>
      <point x="264" y="760" type="line"/>
    </contour>
    <contour>
      <point x="356" y="760" type="line"/>
      <point x="356" y="654" type="line"/>
      <point x="462" y="654" type="line"/>
      <point x="462" y="760" type="line"/>
    </contour>
  </outline>
</glyph>
<glyph name="hookabovecomb" format="2">
  <unicode hex="0309"/>
  <anchor x="310" y="550" name="_top"/>
  <anchor x="310" y="811" name="top"/>
  <outline>
    <contour>
      <point x="274" y="647" type="curve" smooth="yes"/>
      <point x="274" y="631"/>
      <point x="274" y="640"/>
      <point x="274" y="628" type="curve"/>
      <point x="342" y="628" type="line"/>
      <point x="344" y="637" type="line" smooth="yes"/>
      <point x="346" y="646"/>
      <point x="351" y="651"/>
      <point x="358" y="655" type="curve" smooth="yes"/>
      <point x="378" y="668"/>
      <point x="390" y="673"/>
      <point x="411" y="691" type="curve" smooth="yes"/>
      <point x="435" y="711"/>
      <point x="433" y="743"/>
      <point x="419" y="762" type="curve" smooth="yes"/>
      <point x="394" y="796"/>
      <point x="318" y="814"/>
      <point x="196" y="811" type="curve"/>
      <point x="196" y="752" type="line"/>
      <point x="246" y="753"/>
      <point x="335" y="751"/>
      <point x="359" y="736" type="curve" smooth="yes"/>
      <point x="366" y="731"/>
      <point x="365" y="721"/>
      <point x="360" y="717" type="curve" smooth="yes"/>
      <point x="341" y="702"/>
      <point x="319" y="696"/>
      <point x="288" y="674" type="curve" smooth="yes"/>
      <point x="279" y="668"/>
      <point x="274" y="656"/>
    </contour>
  </outline>
</glyph>
<glyph name="caroncomb" format="2">
  <unicode hex="030C"/>
  <anchor x="304" y="550" name="_top"/>
  <anchor x="304" y="786" name="top"/>
  <outline>
    <contour>
      <point x="257" y="628" type="line"/>
      <point x="351" y="628" type="line"/>
      <point x="351" y="634" type="line"/>
      <point x="220" y="786" type="line"/>
      <point x="135" y="786" type="line"/>
    </contour>
    <contour>
      <point x="351" y="628" type="line"/>
      <point x="473" y="786" type="line"/>
      <point x="388" y="786" type="line"/>
      <point x="257" y="634" type="line"/>
      <point x="257" y="628" type="line"/>
    </contour>
  </outline>
</glyph>
<glyph name="dotbelowcomb" format="2">
  <unicode hex="0323"/>
  <anchor x="310" y="0" name="_bottom"/>
  <anchor x="310" y="-200" name="bottom"/>
  <outline>
    <contour>
      <point x="310" y="-216" type="curve" smooth="yes"/>
      <point x="355" y="-216"/>
      <point x="390" y="-181"/>
      <point x="390" y="-136" type="curve" smooth="yes"/>
      <point x="390" y="-92"/>
      <point x="355" y="-56"/>
      <point x="310" y="-56" type="curve" smooth="yes"/>
      <point x="267" y="-56"/>
      <point x="230" y="-92"/>
      <point x="230" y="-136" type="curve" smooth="yes"/>
      <point x="230" y="-181"/>
      <point x="267" y="-216"/>
    </contour>
  </outline>
</glyph>
<glyph name="cedillacomb" format="2">
  <unicode hex="0327"/>
  <outline>
    <contour>
      <point x="282" y="-101" type="line"/>
      <point x="354" y="-77"/>
      <point x="390" y="-97"/>
      <point x="389" y="-129" type="curve" smooth="yes"/>
      <point x="388" y="-163"/>
      <point x="347" y="-178"/>
      <point x="317" y="-178" type="curve" smooth="yes"/>
      <point x="291" y="-178"/>
      <point x="252" y="-170"/>
      <point x="218" y="-149" type="curve"/>
      <point x="193" y="-202" type="line"/>
      <point x="225" y="-223"/>
      <point x="269" y="-238"/>
      <point x="315" y="-238" type="curve" smooth="yes"/>
      <point x="393" y="-238"/>
      <point x="454" y="-198"/>
      <point x="456" y="-126" type="curve" smooth="yes"/>
      <point x="457" y="-82"/>
      <point x="417" y="-28"/>
      <point x="334" y="-40" type="curve"/>
      <point x="381" y="41" type="line"/>
      <point x="312" y="41" type="line"/>
      <point x="257" y="-67" type="line"/>
    </contour>
  </outline>
</glyph>
<glyph name="ogonekcomb" format="2">
  <unicode hex="0328"/>
  <anchor x="411" y="3" name="_ogonek"/>
  <outline>
    <contour>
      <point x="411" y="3" type="curve"/>
      <point x="387" y="37" type="line"/>
      <point x="295" y="-3"/>
      <point x="205" y="-48"/>
      <point x="220" y="-131" type="curve" smooth="yes"/>
      <point x="231" y="-192"/>
      <point x="303" y="-215"/>
      <point x="392" y="-228" type="curve"/>
      <point x="408" y="-162" type="line"/>
      <point x="368" y="-156"/>
      <point x="300" y="-146"/>
      <point x="293" y="-114" type="curve" smooth="yes"/>
      <point x="282" y="-64"/>
      <point x="348" y="-31"/>
    </contour>
  </outline>
</glyph>
<glyph name="brevebelowcomb" format="2">
  <unicode hex="032E"/>
  <anchor x="310" y="0" name="_bottom"/>
  <outline>
    <contour>
      <point x="472" y="-67" type="curve"/>
      <point x="395" y="-67" type="line"/>
      <point x="394" y="-126"/>
      <point x="360" y="-163"/>
      <point x="310" y="-163" type="curve" smooth="yes"/>
      <point x="259" y="-163"/>
      <point x="226" y="-126"/>
      <point x="225" y="-67" type="curve"/>
      <point x="148" y="-67" type="line"/>
      <point x="149" y="-163"/>
      <point x="211" y="-233"/>
      <point x="310" y="-234" type="curve" smooth="yes"/>
      <point x="406" y="-235"/>
      <point x="471" y="-163"/>
    </contour>
  </outline>
</glyph>
<glyph name="macronbelowcomb" format="2">
  <unicode hex="0331"/>
  <anchor x="310" y="0" name="_bottom"/>
  <outline>
    <contour>
      <point x="155" y="-84" type="line"/>
      <point x="155" y="-162" type="line"/>
      <point x="465" y="-162" type="line"/>
      <point x="465" y="-84" type="line"/>
    </contour>
  </outline>
</glyph>
<glyph name="mu" format="2">
  <advance width="620"/>
  <unicode hex="03BC"/>
  <outline>
    <contour>
      <point x="435" y="0" type="line"/>
      <point x="531" y="0" type="line"/>
      <point x="531" y="550" type="line"/>
      <point x="435" y="550" type="line"/>
    </contour>
    <contour>
      <point x="148" y="550" type="line"/>
      <point x="148" y="266" type="line"/>
      <point x="148" y="92"/>
      <point x="144" y="-16"/>
      <point x="267" y="-16" type="curve" smooth="yes"/>
      <point x="340" y="-16"/>
      <point x="394" y="25"/>
      <point x="454" y="74" type="curve"/>
      <point x="454" y="167" type="line"/>
      <point x="382" y="103"/>
      <point x="329" y="81"/>
      <point x="278" y="81" type="curve" smooth="yes"/>
      <point x="200" y="81"/>
      <point x="188" y="155"/>
      <point x="188" y="257" type="curve" smooth="yes"/>
      <point x="188" y="550" type="line"/>
    </contour>
    <contour>
      <point x="89" y="-200" type="line"/>
      <point x="185" y="-200" type="line"/>
      <point x="185" y="550" type="line"/>
      <point x="89" y="550" type="line"/>
    </contour>
  </outline>
</glyph>
<glyph name="Hcedilla" format="2">
  <advance width="620"/>
  <unicode hex="1E28"/>
  <anchor x="310" y="0" name="bottom"/>
  <anchor x="310" y="710" name="top"/>
  <outline>
    <contour>
      <point x="170" y="19" type="line"/>
      <point x="103" y="19" type="line"/>
      <point x="59" y="-67" type="line"/>
      <point x="84" y="-101" type="line"/>
      <point x="156" y="-77"/>
      <point x="192" y="-97"/>
      <point x="191" y="-129" type="curve" smooth="yes"/>
      <point x="190" y="-163"/>
      <point x="149" y="-178"/>
      <point x="119" y="-178" type="curve" smooth="yes"/>
      <point x="93" y="-178"/>
      <point x="54" y="-170"/>
      <point x="20" y="-149" type="curve"/>
      <point x="-5" y="-202" type="line"/>
      <point x="27" y="-223"/>
      <point x="71" y="-238"/>
      <point x="117" y="-238" type="curve" smooth="yes"/>
      <point x="195" y="-238"/>
      <point x="256" y="-198"/>
      <point x="258" y="-126" type="curve" smooth="yes"/>
      <point x="259" y="-82"/>
      <point x="219" y="-28"/>
      <point x="136" y="-40" type="curve"/>
    </contour>
    <component base="H"/>
  </outline>
</glyph>
<glyph name="Germandbls" format="2">
  <advance width="620"/>
  <unicode hex="1E9E"/>
  <outline>
    <contour>
      <point x="308" y="669" type="curve" smooth="yes"/>
      <point x="224" y="669"/>
      <point x="153" y="635"/>
      <point x="153" y="500" type="curve" smooth="yes"/>
      <point x="153" y="0" type="line"/>
      <point x="58" y="0" type="line"/>
      <point x="58" y="520" type="line" smooth="yes"/>
      <point x="58" y="727"/>
      <point x="204" y="766"/>
      <point x="305" y="766" type="curve" smooth="yes"/>
      <point x="461" y="766"/>
      <point x="546" y="653"/>
      <point x="550" y="541" type="curve"/>
      <point x="428" y="409" type="line"/>
      <point x="567" y="353"/>
      <point x="610" y="257"/>
      <point x="589" y="164" type="curve" smooth="yes"/>
      <point x="561" y="38"/>
      <point x="464" y="-51"/>
      <point x="251" y="19" type="curve"/>
      <point x="251" y="115" type="line"/>
      <point x="399" y="56"/>
      <point x="476" y="106"/>
      <point x="494" y="184" type="curve" smooth="yes"/>
      <point x="511" y="259"/>
      <point x="443" y="333"/>
      <point x="311" y="346" type="curve"/>
      <point x="311" y="428" type="line"/>
      <point x="441" y="571" type="line"/>
      <point x="428" y="628"/>
      <point x="374" y="669"/>
    </contour>
  </outline>
</glyph>
<glyph name="endash" format="2">
  <advance width="620"/>
  <unicode hex="2013"/>
  <outline>
    <contour>
      <point x="545" y="350" type="line"/>
      <point x="75" y="350" type="line"/>
      <point x="75" y="264" type="line"/>
      <point x="545" y="264" type="line"/>
    </contour>
  </outline>
</glyph>
<glyph name="emdash" format="2">
  <advance width="620"/>
  <unicode hex="2014"/>
  <outline>
    <contour>
      <point x="595" y="350" type="line"/>
      <point x="25" y="350" type="line"/>
      <point x="25" y="264" type="line"/>
      <point x="595" y="264" type="line"/>
    </contour>
  </outline>
</glyph>
<glyph name="quoteleft" format="2">
  <advance width="620"/>
  <unicode hex="2018"/>
  <outline>
    <contour>
      <point x="338" y="542" type="line"/>
      <point x="380" y="710" type="line"/>
      <point x="324" y="710" type="line"/>
      <point x="243" y="542" type="line"/>
    </contour>
    <contour>
      <point x="301" y="578" type="curve" smooth="yes"/>
      <point x="265" y="578"/>
      <point x="235" y="547"/>
      <point x="235" y="508" type="curve" smooth="yes"/>
      <point x="235" y="472"/>
      <point x="265" y="440"/>
      <point x="301" y="440" type="curve" smooth="yes"/>
      <point x="341" y="440"/>
      <point x="372" y="472"/>
      <point x="372" y="508" type="curve" smooth="yes"/>
      <point x="372" y="547"/>
      <point x="341" y="578"/>
    </contour>
  </outline>
</glyph>
<glyph name="quoteright" format="2">
  <advance width="620"/>
  <unicode hex="2019"/>
  <outline>
    <contour>
      <point x="277" y="624" type="line"/>
      <point x="235" y="456" type="line"/>
      <point x="291" y="456" type="line"/>
      <point x="372" y="624" type="line"/>
    </contour>
    <contour>
      <point x="314" y="588" type="curve" smooth="yes"/>
      <point x="350" y="588"/>
      <point x="380" y="619"/>
      <point x="380" y="658" type="curve" smooth="yes"/>
      <point x="380" y="694"/>
      <point x="350" y="726"/>
      <point x="314" y="726" type="curve" smooth="yes"/>
      <point x="274" y="726"/>
      <point x="243" y="694"/>
      <point x="243" y="658" type="curve" smooth="yes"/>
      <point x="243" y="619"/>
      <point x="274" y="588"/>
    </contour>
  </outline>
</glyph>
<glyph name="quotedblleft" format="2">
  <advance width="620"/>
  <unicode hex="201C"/>
  <outline>
    <contour>
      <point x="437" y="542" type="line"/>
      <point x="479" y="710" type="line"/>
      <point x="423" y="710" type="line"/>
      <point x="342" y="542" type="line"/>
    </contour>
    <contour>
      <point x="400" y="578" type="curve" smooth="yes"/>
      <point x="364" y="578"/>
      <point x="334" y="547"/>
      <point x="334" y="508" type="curve" smooth="yes"/>
      <point x="334" y="472"/>
      <point x="364" y="440"/>
      <point x="400" y="440" type="curve" smooth="yes"/>
      <point x="440" y="440"/>
      <point x="471" y="472"/>
      <point x="471" y="508" type="curve" smooth="yes"/>
      <point x="471" y="547"/>
      <point x="440" y="578"/>
    </contour>
    <contour>
      <point x="248" y="542" type="line"/>
      <point x="290" y="710" type="line"/>
      <point x="234" y="710" type="line"/>
      <point x="153" y="542" type="line"/>
    </contour>
    <contour>
      <point x="211" y="578" type="curve" smooth="yes"/>
      <point x="175" y="578"/>
      <point x="145" y="547"/>
      <point x="145" y="508" type="curve" smooth="yes"/>
      <point x="145" y="472"/>
      <point x="175" y="440"/>
      <point x="211" y="440" type="curve" smooth="yes"/>
      <point x="251" y="440"/>
      <point x="282" y="472"/>
      <point x="282" y="508" type="curve" smooth="yes"/>
      <point x="282" y="547"/>
      <point x="251" y="578"/>
    </contour>
  </outline>
</glyph>
<glyph name="quotedblright" format="2">
  <advance width="620"/>
  <unicode hex="201D"/>
  <outline>
    <contour>
      <point x="205" y="624" type="line"/>
      <point x="163" y="456" type="line"/>
      <point x="219" y="456" type="line"/>
      <point x="300" y="624" type="line"/>
    </contour>
    <contour>
      <point x="242" y="588" type="curve" smooth="yes"/>
      <point x="278" y="588"/>
      <point x="308" y="619"/>
      <point x="308" y="658" type="curve" smooth="yes"/>
      <point x="308" y="694"/>
      <point x="278" y="726"/>
      <point x="242" y="726" type="curve" smooth="yes"/>
      <point x="202" y="726"/>
      <point x="171" y="694"/>
      <point x="171" y="658" type="curve" smooth="yes"/>
      <point x="171" y="619"/>
      <point x="202" y="588"/>
    </contour>
    <contour>
      <point x="394" y="624" type="line"/>
      <point x="352" y="456" type="line"/>
      <point x="408" y="456" type="line"/>
      <point x="489" y="624" type="line"/>
    </contour>
    <contour>
      <point x="431" y="588" type="curve" smooth="yes"/>
      <point x="467" y="588"/>
      <point x="497" y="619"/>
      <point x="497" y="658" type="curve" smooth="yes"/>
      <point x="497" y="694"/>
      <point x="467" y="726"/>
      <point x="431" y="726" type="curve" smooth="yes"/>
      <point x="391" y="726"/>
      <point x="360" y="694"/>
      <point x="360" y="658" type="curve" smooth="yes"/>
      <point x="360" y="619"/>
      <point x="391" y="588"/>
    </contour>
  </outline>
</glyph>
<glyph name="quotedblbase" format="2">
  <advance width="620"/>
  <unicode hex="201E"/>
  <outline>
    <contour>
      <point x="182" y="36" type="line"/>
      <point x="140" y="-132" type="line"/>
      <point x="196" y="-132" type="line"/>
      <point x="277" y="36" type="line"/>
    </contour>
    <contour>
      <point x="219" y="0" type="curve" smooth="yes"/>
      <point x="255" y="0"/>
      <point x="285" y="31"/>
      <point x="285" y="70" type="curve" smooth="yes"/>
      <point x="285" y="106"/>
      <point x="255" y="138"/>
      <point x="219" y="138" type="curve" smooth="yes"/>
      <point x="179" y="138"/>
      <point x="148" y="106"/>
      <point x="148" y="70" type="curve" smooth="yes"/>
      <point x="148" y="31"/>
      <point x="179" y="0"/>
    </contour>
    <contour>
      <point x="371" y="36" type="line"/>
      <point x="329" y="-132" type="line"/>
      <point x="385" y="-132" type="line"/>
      <point x="466" y="36" type="line"/>
    </contour>
    <contour>
      <point x="408" y="0" type="curve" smooth="yes"/>
      <point x="444" y="0"/>
      <point x="474" y="31"/>
      <point x="474" y="70" type="curve" smooth="yes"/>
      <point x="474" y="106"/>
      <point x="444" y="138"/>
      <point x="408" y="138" type="curve" smooth="yes"/>
      <point x="368" y="138"/>
      <point x="337" y="106"/>
      <point x="337" y="70" type="curve" smooth="yes"/>
      <point x="337" y="31"/>
      <point x="368" y="0"/>
    </contour>
  </outline>
</glyph>
<glyph name="dagger" format="2">
  <advance width="620"/>
  <unicode hex="2020"/>
  <outline>
    <contour>
      <point x="271" y="570" type="line"/>
      <point x="271" y="-20" type="line"/>
      <point x="349" y="-20" type="line"/>
      <point x="349" y="570" type="line"/>
    </contour>
    <contour>
      <point x="135" y="339" type="line"/>
      <point x="485" y="339" type="line"/>
      <point x="485" y="412" type="line"/>
      <point x="135" y="412" type="line"/>
    </contour>
  </outline>
</glyph>
<glyph name="daggerdbl" format="2">
  <advance width="620"/>
  <unicode hex="2021"/>
  <outline>
    <contour>
      <point x="271" y="570" type="line"/>
      <point x="271" y="-20" type="line"/>
      <point x="349" y="-20" type="line"/>
      <point x="349" y="570" type="line"/>
    </contour>
    <contour>
      <point x="135" y="348" type="line"/>
      <point x="485" y="348" type="line"/>
      <point x="485" y="418" type="line"/>
      <point x="135" y="418" type="line"/>
    </contour>
    <contour>
      <point x="135" y="132" type="line"/>
      <point x="485" y="132" type="line"/>
      <point x="485" y="202" type="line"/>
      <point x="135" y="202" type="line"/>
    </contour>
  </outline>
</glyph>
<glyph name="bullet" format="2">
  <advance width="620"/>
  <unicode hex="2022"/>
  <outline>
    <contour>
      <point x="310" y="224" type="curve" smooth="yes"/>
      <point x="379" y="224"/>
      <point x="435" y="281"/>
      <point x="435" y="350" type="curve" smooth="yes"/>
      <point x="435" y="419"/>
      <point x="379" y="474"/>
      <point x="310" y="474" type="curve" smooth="yes"/>
      <point x="241" y="474"/>
      <point x="185" y="419"/>
      <point x="185" y="350" type="curve" smooth="yes"/>
      <point x="185" y="281"/>
      <point x="241" y="224"/>
    </contour>
  </outline>
</glyph>
<glyph name="twodotenleader" format="2">
  <advance width="620"/>
  <unicode hex="2025"/>
  <outline>
    <contour>
      <point x="180" y="-16" type="curve" smooth="yes"/>
      <point x="211" y="-16"/>
      <point x="235" y="8"/>
      <point x="235" y="39" type="curve" smooth="yes"/>
      <point x="235" y="69"/>
      <point x="211" y="94"/>
      <point x="180" y="94" type="curve" smooth="yes"/>
      <point x="151" y="94"/>
      <point x="125" y="69"/>
      <point x="125" y="39" type="curve" smooth="yes"/>
      <point x="125" y="8"/>
      <point x="151" y="-16"/>
    </contour>
    <contour>
      <point x="440" y="-16" type="curve" smooth="yes"/>
      <point x="471" y="-16"/>
      <point x="495" y="8"/>
      <point x="495" y="39" type="curve" smooth="yes"/>
      <point x="495" y="69"/>
      <point x="471" y="94"/>
      <point x="440" y="94" type="curve" smooth="yes"/>
      <point x="411" y="94"/>
      <point x="385" y="69"/>
      <point x="385" y="39" type="curve" smooth="yes"/>
      <point x="385" y="8"/>
      <point x="411" y="-16"/>
    </contour>
  </outline>
</glyph>
<glyph name="ellipsis" format="2">
  <advance width="620"/>
  <unicode hex="2026"/>
  <outline>
    <contour>
      <point x="310" y="-16" type="curve" smooth="yes"/>
      <point x="341" y="-16"/>
      <point x="365" y="8"/>
      <point x="365" y="39" type="curve" smooth="yes"/>
      <point x="365" y="69"/>
      <point x="341" y="94"/>
      <point x="310" y="94" type="curve" smooth="yes"/>
      <point x="281" y="94"/>
      <point x="255" y="69"/>
      <point x="255" y="39" type="curve" smooth="yes"/>
      <point x="255" y="8"/>
      <point x="281" y="-16"/>
    </contour>
    <contour>
      <point x="128" y="-16" type="curve" smooth="yes"/>
      <point x="159" y="-16"/>
      <point x="183" y="8"/>
      <point x="183" y="39" type="curve" smooth="yes"/>
      <point x="183" y="69"/>
      <point x="159" y="94"/>
      <point x="128" y="94" type="curve" smooth="yes"/>
      <point x="99" y="94"/>
      <point x="73" y="69"/>
      <point x="73" y="39" type="curve" smooth="yes"/>
      <point x="73" y="8"/>
      <point x="99" y="-16"/>
    </contour>
    <contour>
      <point x="492" y="-16" type="curve" smooth="yes"/>
      <point x="523" y="-16"/>
      <point x="547" y="8"/>
      <point x="547" y="39" type="curve" smooth="yes"/>
      <point x="547" y="69"/>
      <point x="523" y="94"/>
      <point x="492" y="94" type="curve" smooth="yes"/>
      <point x="463" y="94"/>
      <point x="437" y="69"/>
      <point x="437" y="39" type="curve" smooth="yes"/>
      <point x="437" y="8"/>
      <point x="463" y="-16"/>
    </contour>
  </outline>
</glyph>
<glyph name="guilsinglleft" format="2">
  <advance width="620"/>
  <unicode hex="2039"/>
  <outline>
    <contour>
      <point x="175" y="275" type="line"/>
      <point x="232" y="218" type="line"/>
      <point x="475" y="461" type="line"/>
      <point x="418" y="518" type="line"/>
    </contour>
    <contour>
      <point x="175" y="275" type="line"/>
      <point x="418" y="32" type="line"/>
      <point x="475" y="89" type="line"/>
      <point x="232" y="332" type="line"/>
    </contour>
  </outline>
</glyph>
<glyph name="naira" format="2">
  <advance width="620"/>
  <unicode hex="20A6"/>
  <outline>
    <contour>
      <point x="112" y="700" type="line"/>
      <point x="425" y="10" type="line"/>
      <point x="509" y="10" type="line"/>
      <point x="196" y="700" type="line"/>
    </contour>
    <contour>
      <point x="86" y="700" type="line"/>
      <point x="86" y="10" type="line"/>
      <point x="169" y="10" type="line"/>
      <point x="169" y="700" type="line"/>
    </contour>
    <contour>
      <point x="535" y="10" type="line"/>
      <point x="535" y="700" type="line"/>
      <point x="452" y="700" type="line"/>
      <point x="452" y="10" type="line"/>
    </contour>
    <contour>
      <point x="598" y="387" type="line"/>
      <point x="598" y="442" type="line"/>
      <point x="22" y="442" type="line"/>
      <point x="22" y="387" type="line"/>
    </contour>
    <contour>
      <point x="598" y="268" type="line"/>
      <point x="598" y="323" type="line"/>
      <point x="22" y="323" type="line"/>
      <point x="22" y="268" type="line"/>
    </contour>
  </outline>
</glyph>
<glyph name="won" format="2">
  <advance width="620"/>
  <unicode hex="20A9"/>
  <outline>
    <contour>
      <point x="53" y="700" type="line"/>
      <point x="49" y="388"/>
      <point x="80" y="169"/>
      <point x="123" y="10" type="curve"/>
      <point x="199" y="10" type="line"/>
      <point x="162" y="169"/>
      <point x="133" y="388"/>
      <point x="140" y="700" type="curve"/>
    </contour>
    <contour>
      <point x="346" y="473" type="line"/>
      <point x="274" y="473" type="line"/>
      <point x="150" y="10" type="line"/>
      <point x="230" y="10" type="line"/>
    </contour>
    <contour>
      <point x="274" y="473" type="line"/>
      <point x="390" y="10" type="line"/>
      <point x="470" y="10" type="line"/>
      <point x="346" y="473" type="line"/>
    </contour>
    <contour>
      <point x="567" y="700" type="curve"/>
      <point x="480" y="700" type="line"/>
      <point x="484" y="388"/>
      <point x="458" y="169"/>
      <point x="421" y="10" type="curve"/>
      <point x="497" y="10" type="line"/>
      <point x="540" y="169"/>
      <point x="568" y="388"/>
    </contour>
    <contour>
      <point x="598" y="387" type="line"/>
      <point x="598" y="442" type="line"/>
      <point x="22" y="442" type="line"/>
      <point x="22" y="387" type="line"/>
    </contour>
    <contour>
      <point x="258" y="268" type="line"/>
      <point x="258" y="323" type="line"/>
      <point x="22" y="323" type="line"/>
      <point x="22" y="268" type="line"/>
    </contour>
    <contour>
      <point x="598" y="268" type="line"/>
      <point x="598" y="323" type="line"/>
      <point x="362" y="323" type="line"/>
      <point x="362" y="268" type="line"/>
    </contour>
  </outline>
</glyph>
<glyph name="euro" format="2">
  <advance width="620"/>
  <unicode hex="20AC"/>
  <outline>
    <contour>
      <point x="534" y="532" type="curve"/>
      <point x="540" y="529" type="line"/>
      <point x="583" y="606" type="line"/>
      <point x="541" y="664"/>
      <point x="472" y="710"/>
      <point x="373" y="710" type="curve" smooth="yes"/>
      <point x="215" y="710"/>
      <point x="99" y="567"/>
      <point x="100" y="354" type="curve" smooth="yes"/>
      <point x="101" y="137"/>
      <point x="223" y="0"/>
      <point x="388" y="0" type="curve" smooth="yes"/>
      <point x="483" y="0"/>
      <point x="546" y="37"/>
      <point x="582" y="72" type="curve"/>
      <point x="582" y="167" type="line"/>
      <point x="574" y="167" type="line"/>
      <point x="520" y="114"/>
      <point x="467" y="87"/>
      <point x="393" y="87" type="curve" smooth="yes"/>
      <point x="269" y="87"/>
      <point x="193" y="191"/>
      <point x="193" y="353" type="curve" smooth="yes"/>
      <point x="193" y="519"/>
      <point x="264" y="624"/>
      <point x="382" y="624" type="curve" smooth="yes"/>
      <point x="451" y="624"/>
      <point x="511" y="577"/>
    </contour>
    <contour>
      <point x="459" y="371" type="line"/>
      <point x="496" y="438" type="line"/>
      <point x="496" y="444" type="line"/>
      <point x="19" y="444" type="line"/>
      <point x="19" y="371" type="line"/>
    </contour>
    <contour>
      <point x="386" y="235" type="line"/>
      <point x="421" y="301" type="line"/>
      <point x="423" y="307" type="line"/>
      <point x="18" y="307" type="line"/>
      <point x="18" y="235" type="line"/>
    </contour>
  </outline>
</glyph>
<glyph name="peso" format="2">
  <advance width="620"/>
  <unicode hex="20B1"/>
  <outline>
    <contour>
      <point x="91" y="700" type="line"/>
      <point x="91" y="10" type="line"/>
      <point x="179" y="10" type="line"/>
      <point x="179" y="700" type="line"/>
    </contour>
    <contour>
      <point x="167" y="318" type="curve"/>
      <point x="167" y="236" type="line"/>
      <point x="234" y="236"/>
      <point x="249" y="236"/>
      <point x="302" y="236" type="curve" smooth="yes"/>
      <point x="437" y="236"/>
      <point x="530" y="333"/>
      <point x="530" y="468" type="curve" smooth="yes"/>
      <point x="530" y="594"/>
      <point x="441" y="696"/>
      <point x="302" y="700" type="curve" smooth="yes"/>
      <point x="262" y="701"/>
      <point x="241" y="700"/>
      <point x="167" y="700" type="curve"/>
      <point x="167" y="618" type="line"/>
      <point x="242" y="618"/>
      <point x="262" y="620"/>
      <point x="304" y="618" type="curve" smooth="yes"/>
      <point x="395" y="614"/>
      <point x="448" y="541"/>
      <point x="448" y="468" type="curve" smooth="yes"/>
      <point x="448" y="390"/>
      <point x="395" y="318"/>
      <point x="304" y="318" type="curve" smooth="yes"/>
      <point x="251" y="318"/>
      <point x="235" y="318"/>
    </contour>
    <contour>
      <point x="598" y="501" type="line"/>
      <point x="598" y="556" type="line"/>
      <point x="22" y="556" type="line"/>
      <point x="22" y="501" type="line"/>
    </contour>
    <contour>
      <point x="598" y="380" type="line"/>
      <point x="598" y="435" type="line"/>
      <point x="22" y="435" type="line"/>
      <point x="22" y="380" type="line"/>
    </contour>
  </outline>
</glyph>
<glyph name="rupeeIndian" format="2">
  <advance width="620"/>
  <unicode hex="20B9"/>
  <outline>
    <contour>
      <point x="195" y="294" type="line"/>
      <point x="87" y="294" type="line"/>
      <point x="348" y="10" type="line"/>
      <point x="452" y="10" type="line"/>
      <point x="452" y="20" type="line"/>
    </contour>
    <contour>
      <point x="543" y="630" type="line"/>
      <point x="543" y="700" type="line"/>
      <point x="87" y="700" type="line"/>
      <point x="87" y="630" type="line"/>
    </contour>
    <contour>
      <point x="543" y="462" type="line"/>
      <point x="543" y="532" type="line"/>
      <point x="87" y="532" type="line"/>
      <point x="87" y="462" type="line"/>
    </contour>
    <contour>
      <point x="87" y="364" type="curve"/>
      <point x="87" y="294" type="line"/>
      <point x="154" y="294"/>
      <point x="169" y="294"/>
      <point x="222" y="294" type="curve" smooth="yes"/>
      <point x="363" y="294"/>
      <point x="455" y="365"/>
      <point x="455" y="491" type="curve" smooth="yes"/>
      <point x="455" y="607"/>
      <point x="367" y="666"/>
      <point x="222" y="666" type="curve" smooth="yes"/>
      <point x="182" y="666"/>
      <point x="161" y="666"/>
      <point x="87" y="666" type="curve"/>
      <point x="87" y="618" type="line"/>
      <point x="162" y="618"/>
      <point x="182" y="618"/>
      <point x="224" y="618" type="curve" smooth="yes"/>
      <point x="323" y="618"/>
      <point x="371" y="564"/>
      <point x="371" y="491" type="curve" smooth="yes"/>
      <point x="371" y="417"/>
      <point x="323" y="364"/>
      <point x="224" y="364" type="curve" smooth="yes"/>
      <point x="171" y="364"/>
      <point x="155" y="364"/>
    </contour>
  </outline>
</glyph>
<glyph name="liraTurkish" format="2">
  <advance width="620"/>
  <unicode hex="20BA"/>
  <outline>
    <contour>
      <point x="165" y="700" type="line"/>
      <point x="165" y="10" type="line"/>
      <point x="253" y="10" type="line"/>
      <point x="253" y="700" type="line"/>
    </contour>
    <contour>
      <point x="38" y="510" type="line"/>
      <point x="38" y="434" type="line"/>
      <point x="404" y="519" type="line"/>
      <point x="404" y="595" type="line"/>
    </contour>
    <contour>
      <point x="38" y="372" type="line"/>
      <point x="38" y="296" type="line"/>
      <point x="404" y="381" type="line"/>
      <point x="404" y="457" type="line"/>
    </contour>
    <contour>
      <point x="576" y="353" type="curve"/>
      <point x="489" y="353" type="line"/>
      <point x="484" y="223"/>
      <point x="432" y="92"/>
      <point x="272" y="92" type="curve"/>
      <point x="272" y="10" type="line"/>
      <point x="460" y="10"/>
      <point x="571" y="130"/>
    </contour>
    <contour>
      <point x="213" y="92" type="line"/>
      <point x="213" y="10" type="line"/>
      <point x="272" y="10" type="line"/>
      <point x="272" y="92" type="line"/>
    </contour>
  </outline>
</glyph>
<glyph name="ruble" format="2">
  <advance width="620"/>
  <unicode hex="20BD"/>
  <outline>
    <contour>
      <point x="122" y="700" type="line"/>
      <point x="122" y="10" type="line"/>
      <point x="210" y="10" type="line"/>
      <point x="210" y="700" type="line"/>
    </contour>
    <contour>
      <point x="46" y="374" type="curve"/>
      <point x="46" y="292" type="line"/>
      <point x="113" y="292"/>
      <point x="279" y="292"/>
      <point x="332" y="292" type="curve" smooth="yes"/>
      <point x="467" y="292"/>
      <point x="560" y="363"/>
      <point x="560" y="496" type="curve" smooth="yes"/>
      <point x="560" y="624"/>
      <point x="471" y="700"/>
      <point x="332" y="700" type="curve" smooth="yes"/>
      <point x="292" y="700"/>
      <point x="266" y="700"/>
      <point x="192" y="700" type="curve"/>
      <point x="192" y="618" type="line"/>
      <point x="267" y="618"/>
      <point x="292" y="618"/>
      <point x="334" y="618" type="curve" smooth="yes"/>
      <point x="423" y="618"/>
      <point x="476" y="571"/>
      <point x="476" y="496" type="curve" smooth="yes"/>
      <point x="476" y="420"/>
      <point x="423" y="374"/>
      <point x="334" y="374" type="curve" smooth="yes"/>
      <point x="281" y="374"/>
      <point x="114" y="374"/>
    </contour>
    <contour>
      <point x="433" y="138" type="line"/>
      <point x="433" y="214" type="line"/>
      <point x="46" y="214" type="line"/>
      <point x="46" y="138" type="line"/>
    </contour>
  </outline>
</glyph>
<glyph name="servicemark" format="2">
  <advance width="620"/>
  <unicode hex="2120"/>
  <outline>
    <contour>
      <point x="38" y="454" type="line"/>
      <point x="67" y="429"/>
      <point x="112" y="407"/>
      <point x="159" y="407" type="curve" smooth="yes"/>
      <point x="231" y="407"/>
      <point x="273" y="442"/>
      <point x="273" y="492" type="curve" smooth="yes"/>
      <point x="273" y="576"/>
      <point x="102" y="589"/>
      <point x="102" y="635" type="curve" smooth="yes"/>
      <point x="102" y="659"/>
      <point x="126" y="671"/>
      <point x="159" y="671" type="curve" smooth="yes"/>
      <point x="187" y="671"/>
      <point x="215" y="657"/>
      <point x="232" y="641" type="curve"/>
      <point x="264" y="679" type="line"/>
      <point x="239" y="704"/>
      <point x="199" y="723"/>
      <point x="159" y="723" type="curve" smooth="yes"/>
      <point x="103" y="723"/>
      <point x="44" y="698"/>
      <point x="44" y="635" type="curve" smooth="yes"/>
      <point x="44" y="543"/>
      <point x="216" y="538"/>
      <point x="216" y="494" type="curve" smooth="yes"/>
      <point x="216" y="469"/>
      <point x="194" y="459"/>
      <point x="163" y="459" type="curve" smooth="yes"/>
      <point x="133" y="459"/>
      <point x="95" y="476"/>
      <point x="72" y="497" type="curve"/>
    </contour>
    <contour>
      <point x="305" y="710" type="line"/>
      <point x="305" y="414" type="line"/>
      <point x="360" y="414" type="line"/>
      <point x="360" y="710" type="line"/>
    </contour>
    <contour>
      <point x="527" y="710" type="line"/>
      <point x="527" y="414" type="line"/>
      <point x="582" y="414" type="line"/>
      <point x="582" y="710" type="line"/>
    </contour>
    <contour>
      <point x="469" y="527" type="line"/>
      <point x="443" y="594"/>
      <point x="404" y="653"/>
      <point x="366" y="710" type="curve"/>
      <point x="310" y="710" type="line"/>
      <point x="352" y="653"/>
      <point x="386" y="595"/>
      <point x="417" y="527" type="curve"/>
    </contour>
    <contour>
      <point x="418" y="527" type="curve"/>
      <point x="470" y="527" type="line"/>
      <point x="501" y="595"/>
      <point x="535" y="653"/>
      <point x="577" y="710" type="curve"/>
      <point x="521" y="710" type="line"/>
      <point x="483" y="653"/>
      <point x="444" y="594"/>
    </contour>
  </outline>
</glyph>
<glyph name="trademark" format="2">
  <advance width="620"/>
  <unicode hex="2122"/>
  <outline>
    <contour>
      <point x="125" y="417" type="line"/>
      <point x="185" y="417" type="line"/>
      <point x="185" y="710" type="line"/>
      <point x="125" y="710" type="line"/>
    </contour>
    <contour>
      <point x="274" y="654" type="line"/>
      <point x="274" y="710" type="line"/>
      <point x="36" y="710" type="line"/>
      <point x="36" y="654" type="line"/>
    </contour>
    <contour>
      <point x="307" y="710" type="line"/>
      <point x="307" y="414" type="line"/>
      <point x="362" y="414" type="line"/>
      <point x="362" y="710" type="line"/>
    </contour>
    <contour>
      <point x="529" y="710" type="line"/>
      <point x="529" y="414" type="line"/>
      <point x="584" y="414" type="line"/>
      <point x="584" y="710" type="line"/>
    </contour>
    <contour>
      <point x="471" y="527" type="line"/>
      <point x="445" y="594"/>
      <point x="406" y="653"/>
      <point x="368" y="710" type="curve"/>
      <point x="312" y="710" type="line"/>
      <point x="354" y="653"/>
      <point x="388" y="595"/>
      <point x="419" y="527" type="curve"/>
    </contour>
    <contour>
      <point x="420" y="527" type="curve"/>
      <point x="472" y="527" type="line"/>
      <point x="503" y="595"/>
      <point x="537" y="653"/>
      <point x="579" y="710" type="curve"/>
      <point x="523" y="710" type="line"/>
      <point x="485" y="653"/>
      <point x="446" y="594"/>
    </contour>
  </outline>
</glyph>
<glyph name="minus" format="2">
  <advance width="620"/>
  <unicode hex="2212"/>
  <outline>
    <contour>
      <point x="550" y="347" type="line"/>
      <point x="70" y="347" type="line"/>
      <point x="70" y="258" type="line"/>
      <point x="550" y="258" type="line"/>
    </contour>
  </outline>
</glyph>
<glyph name="notequal" format="2">
  <advance width="620"/>
  <unicode hex="2260"/>
  <outline>
    <contour>
      <point x="545" y="250" type="line"/>
      <point x="75" y="250" type="line"/>
      <point x="75" y="164" type="line"/>
      <point x="545" y="164" type="line"/>
    </contour>
    <contour>
      <point x="545" y="452" type="line"/>
      <point x="75" y="452" type="line"/>
      <point x="75" y="366" type="line"/>
      <point x="545" y="366" type="line"/>
    </contour>
    <contour>
      <point x="425" y="600" type="line"/>
      <point x="123" y="40" type="line"/>
      <point x="123" y="30" type="line"/>
      <point x="205" y="30" type="line"/>
      <point x="507" y="590" type="line"/>
      <point x="507" y="600" type="line"/>
    </contour>
  </outline>
</glyph>
<glyph name="greaterequal" format="2">
  <advance width="620"/>
  <unicode hex="2265"/>
  <outline>
    <contour>
      <point x="110" y="607" type="line"/>
      <point x="110" y="512" type="line"/>
      <point x="530" y="356" type="line"/>
      <point x="530" y="440" type="line"/>
      <point x="120" y="607" type="line"/>
    </contour>
    <contour>
      <point x="110" y="169" type="line"/>
      <point x="120" y="169" type="line"/>
      <point x="530" y="341" type="line"/>
      <point x="530" y="425" type="line"/>
      <point x="110" y="264" type="line"/>
    </contour>
    <contour>
      <point x="530" y="99" type="line"/>
      <point x="110" y="99" type="line"/>
      <point x="110" y="13" type="line"/>
      <point x="530" y="13" type="line"/>
    </contour>
  </outline>
</glyph>
<glyph name="boxLightHorizontal" format="2">
  <advance width="620"/>
  <unicode hex="2500"/>
  <outline>
    <contour>
      <point x="630" y="382" type="line"/>
      <point x="-10" y="382" type="line"/>
      <point x="-10" y="314" type="line"/>
      <point x="630" y="314" type="line"/>
    </contour>
  </outline>
</glyph>
<glyph name="boxHeavyHorizontal" format="2">
  <advance width="620"/>
  <unicode hex="2501"/>
  <outline>
    <contour>
      <point x="630" y="433" type="line"/>
      <point x="-10" y="433" type="line"/>
      <point x="-10" y="263" type="line"/>
      <point x="630" y="263" type="line"/>
    </contour>
  </outline>
</glyph>
<glyph name="boxHeavyVertical" format="2">
  <advance width="620"/>
  <unicode hex="2503"/>
  <outline>
    <contour>
      <point x="395" y="-430" type="line"/>
      <point x="395" y="1130" type="line"/>
      <point x="225" y="1130" type="line"/>
      <point x="225" y="-430" type="line"/>
    </contour>
  </outline>
</glyph>
<glyph name="boxLightTripleDashHorizontal" format="2">
  <advance width="620"/>
  <unicode hex="2504"/>
  <outline>
    <contour>
      <point x="630" y="382" type="line"/>
      <point x="510" y="382" type="line"/>
      <point x="510" y="314" type="line"/>
      <point x="630" y="314" type="line"/>
    </contour>
    <contour>
      <point x="110" y="382" type="line"/>
      <point x="-10" y="382" type="line"/>
      <point x="-10" y="314" type="line"/>
      <point x="110" y="314" type="line"/>
    </contour>
    <contour>
      <point x="420" y="382" type="line"/>
      <point x="200" y="382" type="line"/>
      <point x="200" y="314" type="line"/>
      <point x="420" y="314" type="line"/>
    </contour>
  </outline>
</glyph>
<glyph name="boxHeavyTripleDashHorizontal" format="2">
  <advance width="620"/>
  <unicode hex="2505"/>
  <outline>
    <contour>
      <point x="630" y="433" type="line"/>
      <point x="510" y="433" type="line"/>
      <point x="510" y="263" type="line"/>
      <point x="630" y="263" type="line"/>
    </contour>
    <contour>
      <point x="110" y="433" type="line"/>
      <point x="-10" y="433" type="line"/>
      <point x="-10" y="263" type="line"/>
      <point x="110" y="263" type="line"/>
    </contour>
    <contour>
      <point x="420" y="433" type="line"/>
      <point x="200" y="433" type="line"/>
      <point x="200" y="263" type="line"/>
      <point x="420" y="263" type="line"/>
    </contour>
  </outline>
</glyph>
<glyph name="boxLightTripleDashVertical" format="2">
  <advance width="620"/>
  <unicode hex="2506"/>
  <outline>
    <contour>
      <point x="344" y="825" type="line"/>
      <point x="344" y="1130" type="line"/>
      <point x="276" y="1130" type="line"/>
      <point x="276" y="825" type="line"/>
    </contour>
    <contour>
      <point x="344" y="-430" type="line"/>
      <point x="344" y="-125" type="line"/>
      <point x="276" y="-125" type="line"/>
      <point x="276" y="-430" type="line"/>
    </contour>
    <contour>
      <point x="344" y="80" type="line"/>
      <point x="344" y="620" type="line"/>
      <point x="276" y="620" type="line"/>
      <point x="276" y="80" type="line"/>
    </contour>
  </outline>
</glyph>
<glyph name="boxHeavyTripleDashVertical" format="2">
  <advance width="620"/>
  <unicode hex="2507"/>
  <outline>
    <contour>
      <point x="394" y="825" type="line"/>
      <point x="394" y="1130" type="line"/>
      <point x="226" y="1130" type="line"/>
      <point x="226" y="825" type="line"/>
    </contour>
    <contour>
      <point x="394" y="-430" type="line"/>
      <point x="394" y="-125" type="line"/>
      <point x="226" y="-125" type="line"/>
      <point x="226" y="-430" type="line"/>
    </contour>
    <contour>
      <point x="394" y="80" type="line"/>
      <point x="394" y="620" type="line"/>
      <point x="226" y="620" type="line"/>
      <point x="226" y="80" type="line"/>
    </contour>
  </outline>
</glyph>
<glyph name="boxHeavyQuadrupleDashHorizontal" format="2">
  <advance width="620"/>
  <unicode hex="2509"/>
  <outline>
    <contour>
      <point x="630" y="433" type="line"/>
      <point x="565" y="433" type="line"/>
      <point x="565" y="263" type="line"/>
      <point x="630" y="263" type="line"/>
    </contour>
    <contour>
      <point x="468" y="433" type="line"/>
      <point x="358" y="433" type="line"/>
      <point x="358" y="263" type="line"/>
      <point x="468" y="263" type="line"/>
    </contour>
    <contour>
      <point x="262" y="433" type="line"/>
      <point x="152" y="433" type="line"/>
      <point x="152" y="263" type="line"/>
      <point x="262" y="263" type="line"/>
    </contour>
    <contour>
      <point x="55" y="433" type="line"/>
      <point x="-10" y="433" type="line"/>
      <point x="-10" y="263" type="line"/>
      <point x="55" y="263" type="line"/>
    </contour>
  </outline>
</glyph>
<glyph name="boxLightQuadrupleDashVertical" format="2">
  <advance width="620"/>
  <unicode hex="250A"/>
  <outline>
    <contour>
      <point x="344" y="460" type="line"/>
      <point x="344" y="760" type="line"/>
      <point x="276" y="760" type="line"/>
      <point x="276" y="460" type="line"/>
    </contour>
    <contour>
      <point x="344" y="-60" type="line"/>
      <point x="344" y="240" type="line"/>
      <point x="276" y="240" type="line"/>
      <point x="276" y="-60" type="line"/>
    </contour>
    <contour>
      <point x="344" y="980" type="line"/>
      <point x="344" y="1130" type="line"/>
      <point x="276" y="1130" type="line"/>
      <point x="276" y="980" type="line"/>
    </contour>
    <contour>
      <point x="344" y="-430" type="line"/>
      <point x="344" y="-280" type="line"/>
      <point x="276" y="-280" type="line"/>
      <point x="276" y="-430" type="line"/>
    </contour>
  </outline>
</glyph>
<glyph name="boxLightDownAndRight" format="2">
  <advance width="620"/>
  <unicode hex="250C"/>
  <outline>
    <contour>
      <point x="344" y="-430" type="line"/>
      <point x="344" y="382" type="line"/>
      <point x="276" y="382" type="line"/>
      <point x="276" y="-430" type="line"/>
    </contour>
    <contour>
      <point x="630" y="382" type="line"/>
      <point x="276" y="382" type="line"/>
      <point x="276" y="314" type="line"/>
      <point x="630" y="314" type="line"/>
    </contour>
  </outline>
</glyph>
<glyph name="boxHeavyDownAndRight" format="2">
  <advance width="620"/>
  <unicode hex="250F"/>
  <outline>
    <contour>
      <point x="395" y="-430" type="line"/>
      <point x="395" y="382" type="line"/>
      <point x="225" y="382" type="line"/>
      <point x="225" y="-430" type="line"/>
    </contour>
    <contour>
      <point x="630" y="433" type="line"/>
      <point x="225" y="433" type="line"/>
      <point x="225" y="263" type="line"/>
      <point x="630" y="263" type="line"/>
    </contour>
  </outline>
</glyph>
<glyph name="boxHeavyDownAndLeft" format="2">
  <advance width="620"/>
  <unicode hex="2513"/>
  <outline>
    <contour>
      <point x="395" y="-430" type="line"/>
      <point x="395" y="382" type="line"/>
      <point x="225" y="382" type="line"/>
      <point x="225" y="-430" type="line"/>
    </contour>
    <contour>
      <point x="395" y="433" type="line"/>
      <point x="-10" y="433" type="line"/>
      <point x="-10" y="263" type="line"/>
      <point x="395" y="263" type="line"/>
    </contour>
  </outline>
</glyph>
<glyph name="boxUpHeavyAndRightLight" format="2">
  <advance width="620"/>
  <unicode hex="2516"/>
  <outline>
    <contour>
      <point x="630" y="382" type="line"/>
      <point x="276" y="382" type="line"/>
      <point x="276" y="314" type="line"/>
      <point x="630" y="314" type="line"/>
    </contour>
    <contour>
      <point x="395" y="314" type="line"/>
      <point x="395" y="1130" type="line"/>
      <point x="225" y="1130" type="line"/>
      <point x="225" y="314" type="line"/>
    </contour>
  </outline>
</glyph>
<glyph name="boxLightUpAndLeft" format="2">
  <advance width="620"/>
  <unicode hex="2518"/>
  <outline>
    <contour>
      <point x="344" y="382" type="line"/>
      <point x="-10" y="382" type="line"/>
      <point x="-10" y="314" type="line"/>
      <point x="344" y="314" type="line"/>
    </contour>
    <contour>
      <point x="344" y="314" type="line"/>
      <point x="344" y="1130" type="line"/>
      <point x="276" y="1130" type="line"/>
      <point x="276" y="314" type="line"/>
    </contour>
    <contour>
      <point x="344" y="314" type="line"/>
      <point x="344" y="1130" type="line"/>
      <point x="276" y="1130" type="line"/>
      <point x="276" y="314" type="line"/>
    </contour>
  </outline>
</glyph>
<glyph name="boxUpLightAndLeftHeavy" format="2">
  <advance width="620"/>
  <unicode hex="2519"/>
  <outline>
    <contour>
      <point x="344" y="314" type="line"/>
      <point x="344" y="1130" type="line"/>
      <point x="276" y="1130" type="line"/>
      <point x="276" y="314" type="line"/>
    </contour>
    <contour>
      <point x="344" y="314" type="line"/>
      <point x="344" y="1130" type="line"/>
      <point x="276" y="1130" type="line"/>
      <point x="276" y="314" type="line"/>
    </contour>
    <contour>
      <point x="344" y="433" type="line"/>
      <point x="-10" y="433" type="line"/>
      <point x="-10" y="263" type="line"/>
      <point x="344" y="263" type="line"/>
    </contour>
  </outline>
</glyph>
<glyph name="boxUpHeavyAndLeftLight" format="2">
  <advance width="620"/>
  <unicode hex="251A"/>
  <outline>
    <contour>
      <point x="344" y="382" type="line"/>
      <point x="-10" y="382" type="line"/>
      <point x="-10" y="314" type="line"/>
      <point x="344" y="314" type="line"/>
    </contour>
    <contour>
      <point x="395" y="314" type="line"/>
      <point x="395" y="1130" type="line"/>
      <point x="225" y="1130" type="line"/>
      <point x="225" y="314" type="line"/>
    </contour>
  </outline>
</glyph>
<glyph name="boxVerticalLightAndRightHeavy" format="2">
  <advance width="620"/>
  <unicode hex="251D"/>
  <outline>
    <contour>
      <point x="630" y="433" type="line"/>
      <point x="276" y="433" type="line"/>
      <point x="276" y="263" type="line"/>
      <point x="630" y="263" type="line"/>
    </contour>
    <contour>
      <point x="344" y="-430" type="line"/>
      <point x="344" y="1130" type="line"/>
      <point x="276" y="1130" type="line"/>
      <point x="276" y="-430" type="line"/>
    </contour>
  </outline>
</glyph>
<glyph name="boxVerticalHeavyAndRightLight" format="2">
  <advance width="620"/>
  <unicode hex="2520"/>
  <outline>
    <contour>
      <point x="630" y="382" type="line"/>
      <point x="276" y="382" type="line"/>
      <point x="276" y="314" type="line"/>
      <point x="630" y="314" type="line"/>
    </contour>
    <contour>
      <point x="395" y="-430" type="line"/>
      <point x="395" y="1130" type="line"/>
      <point x="225" y="1130" type="line"/>
      <point x="225" y="-430" type="line"/>
    </contour>
  </outline>
</glyph>
<glyph name="boxUpLightAndRightDownHeavy" format="2">
  <advance width="620"/>
  <unicode hex="2522"/>
  <outline>
    <contour>
      <point x="344" y="-430" type="line"/>
      <point x="344" y="1130" type="line"/>
      <point x="276" y="1130" type="line"/>
      <point x="276" y="-430" type="line"/>
    </contour>
    <contour>
      <point x="395" y="-430" type="line"/>
      <point x="395" y="386" type="line"/>
      <point x="225" y="386" type="line"/>
      <point x="225" y="-430" type="line"/>
    </contour>
    <contour>
      <point x="630" y="433" type="line"/>
      <point x="225" y="433" type="line"/>
      <point x="225" y="263" type="line"/>
      <point x="630" y="263" type="line"/>
    </contour>
  </outline>
</glyph>
<glyph name="boxHeavyVerticalAndRight" format="2">
  <advance width="620"/>
  <unicode hex="2523"/>
  <outline>
    <contour>
      <point x="395" y="-430" type="line"/>
      <point x="395" y="1130" type="line"/>
      <point x="225" y="1130" type="line"/>
      <point x="225" y="-430" type="line"/>
    </contour>
    <contour>
      <point x="630" y="433" type="line"/>
      <point x="225" y="433" type="line"/>
      <point x="225" y="263" type="line"/>
      <point x="630" y="263" type="line"/>
    </contour>
  </outline>
</glyph>
<glyph name="boxVerticalLightAndLeftHeavy" format="2">
  <advance width="620"/>
  <unicode hex="2525"/>
  <outline>
    <contour>
      <point x="344" y="-430" type="line"/>
      <point x="344" y="1130" type="line"/>
      <point x="276" y="1130" type="line"/>
      <point x="276" y="-430" type="line"/>
    </contour>
    <contour>
      <point x="344" y="-430" type="line"/>
      <point x="344" y="1130" type="line"/>
      <point x="276" y="1130" type="line"/>
      <point x="276" y="-430" type="line"/>
    </contour>
    <contour>
      <point x="344" y="433" type="line"/>
      <point x="-10" y="433" type="line"/>
      <point x="-10" y="263" type="line"/>
      <point x="344" y="263" type="line"/>
    </contour>
  </outline>
</glyph>
<glyph name="boxDownHeavyAndLeftUpLight" format="2">
  <advance width="620"/>
  <unicode hex="2527"/>
  <outline>
    <contour>
      <point x="344" y="-430" type="line"/>
      <point x="344" y="1130" type="line"/>
      <point x="276" y="1130" type="line"/>
      <point x="276" y="-430" type="line"/>
    </contour>
    <contour>
      <point x="344" y="-430" type="line"/>
      <point x="344" y="1130" type="line"/>
      <point x="276" y="1130" type="line"/>
      <point x="276" y="-430" type="line"/>
    </contour>
    <contour>
      <point x="344" y="382" type="line"/>
      <point x="-10" y="382" type="line"/>
      <point x="-10" y="314" type="line"/>
      <point x="344" y="314" type="line"/>
    </contour>
    <contour>
      <point x="395" y="-430" type="line"/>
      <point x="395" y="382" type="line"/>
      <point x="225" y="382" type="line"/>
      <point x="225" y="-430" type="line"/>
    </contour>
  </outline>
</glyph>
<glyph name="boxDownLightAndLeftUpHeavy" format="2">
  <advance width="620"/>
  <unicode hex="2529"/>
  <outline>
    <contour>
      <point x="395" y="433" type="line"/>
      <point x="-10" y="433" type="line"/>
      <point x="-10" y="263" type="line"/>
      <point x="395" y="263" type="line"/>
    </contour>
    <contour>
      <point x="344" y="-430" type="line"/>
      <point x="344" y="1130" type="line"/>
      <point x="276" y="1130" type="line"/>
      <point x="276" y="-430" type="line"/>
    </contour>
    <contour>
      <point x="395" y="314" type="line"/>
      <point x="395" y="1130" type="line"/>
      <point x="225" y="1130" type="line"/>
      <point x="225" y="314" type="line"/>
    </contour>
  </outline>
</glyph>
<glyph name="boxLeftHeavyAndRightDownLight" format="2">
  <advance width="620"/>
  <unicode hex="252D"/>
  <outline>
    <contour>
      <point x="344" y="-430" type="line"/>
      <point x="344" y="382" type="line"/>
      <point x="276" y="382" type="line"/>
      <point x="276" y="-430" type="line"/>
    </contour>
    <contour>
      <point x="630" y="382" type="line"/>
      <point x="-10" y="382" type="line"/>
      <point x="-10" y="314" type="line"/>
      <point x="630" y="314" type="line"/>
    </contour>
    <contour>
      <point x="345" y="433" type="line"/>
      <point x="-10" y="433" type="line"/>
      <point x="-10" y="263" type="line"/>
      <point x="345" y="263" type="line"/>
    </contour>
  </outline>
</glyph>
<glyph name="boxLeftLightAndRightDownHeavy" format="2">
  <advance width="620"/>
  <unicode hex="2532"/>
  <outline>
    <contour>
      <point x="630" y="382" type="line"/>
      <point x="-10" y="382" type="line"/>
      <point x="-10" y="314" type="line"/>
      <point x="630" y="314" type="line"/>
    </contour>
    <contour>
      <point x="395" y="-430" type="line"/>
      <point x="395" y="382" type="line"/>
      <point x="225" y="382" type="line"/>
      <point x="225" y="-430" type="line"/>
    </contour>
    <contour>
      <point x="630" y="433" type="line"/>
      <point x="225" y="433" type="line"/>
      <point x="225" y="263" type="line"/>
      <point x="630" y="263" type="line"/>
    </contour>
  </outline>
</glyph>
<glyph name="boxHeavyDownAndHorizontal" format="2">
  <advance width="620"/>
  <unicode hex="2533"/>
  <outline>
    <contour>
      <point x="395" y="-430" type="line"/>
      <point x="395" y="382" type="line"/>
      <point x="225" y="382" type="line"/>
      <point x="225" y="-430" type="line"/>
    </contour>
    <contour>
      <point x="630" y="433" type="line"/>
      <point x="-10" y="433" type="line"/>
      <point x="-10" y="263" type="line"/>
      <point x="630" y="263" type="line"/>
    </contour>
  </outline>
</glyph>
<glyph name="boxLeftHeavyAndRightVerticalLight" format="2">
  <advance width="620"/>
  <unicode hex="253D"/>
  <outline>
    <contour>
      <point x="630" y="382" type="line"/>
      <point x="-10" y="382" type="line"/>
      <point x="-10" y="314" type="line"/>
      <point x="630" y="314" type="line"/>
    </contour>
    <contour>
      <point x="344" y="-430" type="line"/>
      <point x="344" y="1130" type="line"/>
      <point x="276" y="1130" type="line"/>
      <point x="276" y="-430" type="line"/>
    </contour>
    <contour>
      <point x="344" y="433" type="line"/>
      <point x="-10" y="433" type="line"/>
      <point x="-10" y="263" type="line"/>
      <point x="344" y="263" type="line"/>
    </contour>
  </outline>
</glyph>
<glyph name="boxUpLightAndDownHorizontalHeavy" format="2">
  <advance width="620"/>
  <unicode hex="2548"/>
  <outline>
    <contour>
      <point x="344" y="-430" type="line"/>
      <point x="344" y="1130" type="line"/>
      <point x="276" y="1130" type="line"/>
      <point x="276" y="-430" type="line"/>
    </contour>
    <contour>
      <point x="630" y="433" type="line"/>
      <point x="-10" y="433" type="line"/>
      <point x="-10" y="263" type="line"/>
      <point x="630" y="263" type="line"/>
    </contour>
    <contour>
      <point x="395" y="-430" type="line"/>
      <point x="395" y="433" type="line"/>
      <point x="225" y="433" type="line"/>
      <point x="225" y="-430" type="line"/>
    </contour>
  </outline>
</glyph>
<glyph name="boxLightDoubleDashHorizontal" format="2">
  <advance width="620"/>
  <unicode hex="254C"/>
  <outline>
    <contour>
      <point x="630" y="382" type="line"/>
      <point x="390" y="382" type="line"/>
      <point x="390" y="314" type="line"/>
      <point x="630" y="314" type="line"/>
    </contour>
    <contour>
      <point x="230" y="382" type="line"/>
      <point x="-10" y="382" type="line"/>
      <point x="-10" y="314" type="line"/>
      <point x="230" y="314" type="line"/>
    </contour>
  </outline>
</glyph>
<glyph name="boxHeavyDoubleDashHorizontal" format="2">
  <advance width="620"/>
  <unicode hex="254D"/>
  <outline>
    <contour>
      <point x="630" y="433" type="line"/>
      <point x="390" y="433" type="line"/>
      <point x="390" y="263" type="line"/>
      <point x="630" y="263" type="line"/>
    </contour>
    <contour>
      <point x="230" y="433" type="line"/>
      <point x="-10" y="433" type="line"/>
      <point x="-10" y="263" type="line"/>
      <point x="230" y="263" type="line"/>
    </contour>
  </outline>
</glyph>
<glyph name="boxLightDoubleDashVertical" format="2">
  <advance width="620"/>
  <unicode hex="254E"/>
  <outline>
    <contour>
      <point x="344" y="500" type="line"/>
      <point x="344" y="1130" type="line"/>
      <point x="276" y="1130" type="line"/>
      <point x="276" y="500" type="line"/>
    </contour>
    <contour>
      <point x="344" y="-430" type="line"/>
      <point x="344" y="200" type="line"/>
      <point x="276" y="200" type="line"/>
      <point x="276" y="-430" type="line"/>
    </contour>
  </outline>
</glyph>
<glyph name="boxHeavyDoubleDashVertical" format="2">
  <advance width="620"/>
  <unicode hex="254F"/>
  <outline>
    <contour>
      <point x="395" y="500" type="line"/>
      <point x="395" y="1130" type="line"/>
      <point x="225" y="1130" type="line"/>
      <point x="225" y="500" type="line"/>
    </contour>
    <contour>
      <point x="395" y="-430" type="line"/>
      <point x="395" y="200" type="line"/>
      <point x="225" y="200" type="line"/>
      <point x="225" y="-430" type="line"/>
    </contour>
  </outline>
</glyph>
<glyph name="boxDownDoubleAndRightSingle" format="2">
  <advance width="620"/>
  <unicode hex="2553"/>
  <outline>
    <contour>
      <point x="630" y="382" type="line"/>
      <point x="208" y="382" type="line"/>
      <point x="208" y="314" type="line"/>
      <point x="630" y="314" type="line"/>
    </contour>
    <contour>
      <point x="276" y="-430" type="line"/>
      <point x="276" y="382" type="line"/>
      <point x="208" y="382" type="line"/>
      <point x="208" y="-430" type="line"/>
    </contour>
    <contour>
      <point x="412" y="-430" type="line"/>
      <point x="412" y="382" type="line"/>
      <point x="344" y="382" type="line"/>
      <point x="344" y="-430" type="line"/>
    </contour>
  </outline>
</glyph>
<glyph name="boxDoubleDownAndRight" format="2">
  <advance width="620"/>
  <unicode hex="2554"/>
  <outline>
    <contour>
      <point x="630" y="450" type="line"/>
      <point x="208" y="450" type="line"/>
      <point x="208" y="382" type="line"/>
      <point x="630" y="382" type="line"/>
    </contour>
    <contour>
      <point x="630" y="314" type="line"/>
      <point x="344" y="314" type="line"/>
      <point x="344" y="246" type="line"/>
      <point x="630" y="246" type="line"/>
    </contour>
    <contour>
      <point x="276" y="-428" type="line"/>
      <point x="276" y="450" type="line"/>
      <point x="208" y="450" type="line"/>
      <point x="208" y="-428" type="line"/>
    </contour>
    <contour>
      <point x="412" y="-430" type="line"/>
      <point x="412" y="314" type="line"/>
      <point x="344" y="314" type="line"/>
      <point x="344" y="-430" type="line"/>
    </contour>
  </outline>
</glyph>
<glyph name="boxDownSingleAndLeftDouble" format="2">
  <advance width="620"/>
  <unicode hex="2555"/>
  <outline>
    <contour>
      <point x="344" y="450" type="line"/>
      <point x="-10" y="450" type="line"/>
      <point x="-10" y="382" type="line"/>
      <point x="344" y="382" type="line"/>
    </contour>
    <contour>
      <point x="344" y="314" type="line"/>
      <point x="-10" y="314" type="line"/>
      <point x="-10" y="246" type="line"/>
      <point x="344" y="246" type="line"/>
    </contour>
    <contour>
      <point x="344" y="-430" type="line"/>
      <point x="344" y="450" type="line"/>
      <point x="276" y="450" type="line"/>
      <point x="276" y="-430" type="line"/>
    </contour>
  </outline>
</glyph>
<glyph name="boxDoubleDownAndLeft" format="2">
  <advance width="620"/>
  <unicode hex="2557"/>
  <outline>
    <contour>
      <point x="412" y="450" type="line"/>
      <point x="-10" y="450" type="line"/>
      <point x="-10" y="382" type="line"/>
      <point x="412" y="382" type="line"/>
    </contour>
    <contour>
      <point x="276" y="314" type="line"/>
      <point x="-10" y="314" type="line"/>
      <point x="-10" y="246" type="line"/>
      <point x="276" y="246" type="line"/>
    </contour>
    <contour>
      <point x="276" y="-430" type="line"/>
      <point x="276" y="314" type="line"/>
      <point x="208" y="314" type="line"/>
      <point x="208" y="-430" type="line"/>
    </contour>
    <contour>
      <point x="412" y="-430" type="line"/>
      <point x="412" y="450" type="line"/>
      <point x="344" y="450" type="line"/>
      <point x="344" y="-430" type="line"/>
    </contour>
  </outline>
</glyph>
<glyph name="boxUpSingleAndRightDouble" format="2">
  <advance width="620"/>
  <unicode hex="2558"/>
  <outline>
    <contour>
      <point x="344" y="246" type="line"/>
      <point x="344" y="1130" type="line"/>
      <point x="276" y="1130" type="line"/>
      <point x="276" y="246" type="line"/>
    </contour>
    <contour>
      <point x="630" y="450" type="line"/>
      <point x="276" y="450" type="line"/>
      <point x="276" y="382" type="line"/>
      <point x="630" y="382" type="line"/>
    </contour>
    <contour>
      <point x="630" y="314" type="line"/>
      <point x="276" y="314" type="line"/>
      <point x="276" y="246" type="line"/>
      <point x="630" y="246" type="line"/>
    </contour>
  </outline>
</glyph>
<glyph name="boxDoubleUpAndRight" format="2">
  <advance width="620"/>
  <unicode hex="255A"/>
  <outline>
    <contour>
      <point x="344" y="382" type="line"/>
      <point x="412" y="382" type="line"/>
      <point x="412" y="1130" type="line"/>
      <point x="344" y="1130" type="line"/>
    </contour>
    <contour>
      <point x="208" y="246" type="line"/>
      <point x="276" y="246" type="line"/>
      <point x="276" y="1130" type="line"/>
      <point x="208" y="1130" type="line"/>
    </contour>
    <contour>
      <point x="630" y="246" type="line"/>
      <point x="630" y="314" type="line"/>
      <point x="208" y="314" type="line"/>
      <point x="208" y="246" type="line"/>
    </contour>
    <contour>
      <point x="630" y="382" type="line"/>
      <point x="630" y="450" type="line"/>
      <point x="344" y="450" type="line"/>
      <point x="344" y="382" type="line"/>
    </contour>
  </outline>
</glyph>
<glyph name="boxUpSingleAndLeftDouble" format="2">
  <advance width="620"/>
  <unicode hex="255B"/>
  <outline>
    <contour>
      <point x="344" y="246" type="line"/>
      <point x="344" y="1130" type="line"/>
      <point x="276" y="1130" type="line"/>
      <point x="276" y="246" type="line"/>
    </contour>
    <contour>
      <point x="344" y="450" type="line"/>
      <point x="-10" y="450" type="line"/>
      <point x="-10" y="382" type="line"/>
      <point x="344" y="382" type="line"/>
    </contour>
    <contour>
      <point x="344" y="314" type="line"/>
      <point x="-10" y="314" type="line"/>
      <point x="-10" y="246" type="line"/>
      <point x="344" y="246" type="line"/>
    </contour>
  </outline>
</glyph>
<glyph name="boxVerticalDoubleAndRightSingle" format="2">
  <advance width="620"/>
  <unicode hex="255F"/>
  <outline>
    <contour>
      <point x="276" y="-430" type="line"/>
      <point x="276" y="1130" type="line"/>
      <point x="208" y="1130" type="line"/>
      <point x="208" y="-430" type="line"/>
    </contour>
    <contour>
      <point x="412" y="-430" type="line"/>
      <point x="412" y="1130" type="line"/>
      <point x="344" y="1130" type="line"/>
      <point x="344" y="-430" type="line"/>
    </contour>
    <contour>
      <point x="631" y="382" type="line"/>
      <point x="344" y="382" type="line"/>
      <point x="344" y="314" type="line"/>
      <point x="631" y="314" type="line"/>
    </contour>
  </outline>
</glyph>
<glyph name="boxVerticalSingleAndLeftDouble" format="2">
  <advance width="620"/>
  <unicode hex="2561"/>
  <outline>
    <contour>
      <point x="344" y="450" type="line"/>
      <point x="-10" y="450" type="line"/>
      <point x="-10" y="382" type="line"/>
      <point x="344" y="382" type="line"/>
    </contour>
    <contour>
      <point x="344" y="314" type="line"/>
      <point x="-10" y="314" type="line"/>
      <point x="-10" y="246" type="line"/>
      <point x="344" y="246" type="line"/>
    </contour>
    <contour>
      <point x="344" y="-430" type="line"/>
      <point x="344" y="1130" type="line"/>
      <point x="276" y="1130" type="line"/>
      <point x="276" y="-430" type="line"/>
    </contour>
  </outline>
</glyph>
<glyph name="boxDoubleDownAndHorizontal" format="2">
  <advance width="620"/>
  <unicode hex="2566"/>
  <outline>
    <contour>
      <point x="630" y="450" type="line"/>
      <point x="-10" y="450" type="line"/>
      <point x="-10" y="382" type="line"/>
      <point x="630" y="382" type="line"/>
    </contour>
    <contour>
      <point x="276" y="314" type="line"/>
      <point x="-10" y="314" type="line"/>
      <point x="-10" y="246" type="line"/>
      <point x="276" y="246" type="line"/>
    </contour>
    <contour>
      <point x="276" y="-430" type="line"/>
      <point x="276" y="314" type="line"/>
      <point x="208" y="314" type="line"/>
      <point x="208" y="-430" type="line"/>
    </contour>
    <contour>
      <point x="412" y="-430" type="line"/>
      <point x="412" y="314" type="line"/>
      <point x="344" y="314" type="line"/>
      <point x="344" y="-430" type="line"/>
    </contour>
    <contour>
      <point x="630" y="314" type="line"/>
      <point x="344" y="314" type="line"/>
      <point x="344" y="246" type="line"/>
      <point x="630" y="246" type="line"/>
    </contour>
  </outline>
</glyph>
<glyph name="boxUpSingleAndHorizontalDouble" format="2">
  <advance width="620"/>
  <unicode hex="2567"/>
  <outline>
    <contour>
      <point x="630" y="450" type="line"/>
      <point x="-10" y="450" type="line"/>
      <point x="-10" y="382" type="line"/>
      <point x="630" y="382" type="line"/>
    </contour>
    <contour>
      <point x="630" y="314" type="line"/>
      <point x="-10" y="314" type="line"/>
      <point x="-10" y="246" type="line"/>
      <point x="630" y="246" type="line"/>
    </contour>
    <contour>
      <point x="344" y="382" type="line"/>
      <point x="344" y="1130" type="line"/>
      <point x="276" y="1130" type="line"/>
      <point x="276" y="382" type="line"/>
    </contour>
  </outline>
</glyph>
<glyph name="boxUpDoubleAndHorizontalSingle" format="2">
  <advance width="620"/>
  <unicode hex="2568"/>
  <outline>
    <contour>
      <point x="630" y="382" type="line"/>
      <point x="-10" y="382" type="line"/>
      <point x="-10" y="314" type="line"/>
      <point x="630" y="314" type="line"/>
    </contour>
    <contour>
      <point x="276" y="314" type="line"/>
      <point x="276" y="1130" type="line"/>
      <point x="208" y="1130" type="line"/>
      <point x="208" y="314" type="line"/>
    </contour>
    <contour>
      <point x="412" y="314" type="line"/>
      <point x="412" y="1130" type="line"/>
      <point x="344" y="1130" type="line"/>
      <point x="344" y="314" type="line"/>
    </contour>
  </outline>
</glyph>
<glyph name="boxVerticalSingleAndHorizontalDouble" format="2">
  <advance width="620"/>
  <unicode hex="256A"/>
  <outline>
    <contour>
      <point x="630" y="450" type="line"/>
      <point x="-10" y="450" type="line"/>
      <point x="-10" y="382" type="line"/>
      <point x="630" y="382" type="line"/>
    </contour>
    <contour>
      <point x="630" y="314" type="line"/>
      <point x="-10" y="314" type="line"/>
      <point x="-10" y="246" type="line"/>
      <point x="630" y="246" type="line"/>
    </contour>
    <contour>
      <point x="344" y="-430" type="line"/>
      <point x="344" y="1130" type="line"/>
      <point x="276" y="1130" type="line"/>
      <point x="276" y="-430" type="line"/>
    </contour>
  </outline>
</glyph>
<glyph name="boxVerticalDoubleAndHorizontalSingle" format="2">
  <advance width="620"/>
  <unicode hex="256B"/>
  <outline>
    <contour>
      <point x="276" y="-430" type="line"/>
      <point x="276" y="1130" type="line"/>
      <point x="208" y="1130" type="line"/>
      <point x="208" y="-430" type="line"/>
    </contour>
    <contour>
      <point x="412" y="-430" type="line"/>
      <point x="412" y="1130" type="line"/>
      <point x="344" y="1130" type="line"/>
      <point x="344" y="-430" type="line"/>
    </contour>
    <contour>
      <point x="630" y="382" type="line"/>
      <point x="-10" y="382" type="line"/>
      <point x="-10" y="314" type="line"/>
      <point x="630" y="314" type="line"/>
    </contour>
  </outline>
</glyph>
<glyph name="boxLightDiagonalUpperRightToLowerLeft" format="2">
  <advance width="620"/>
  <unicode hex="2571"/>
  <outline>
    <contour>
      <point x="-48" y="38" type="line"/>
      <point x="0" y="-10" type="line"/>
      <point x="668" y="658" type="line"/>
      <point x="620" y="706" type="line"/>
    </contour>
  </outline>
</glyph>
<glyph name="boxLightDiagonalUpperLeftToLowerRight" format="2">
  <advance width="620"/>
  <unicode hex="2572"/>
  <outline>
    <contour>
      <point x="0" y="706" type="line"/>
      <point x="-48" y="658" type="line"/>
      <point x="620" y="-10" type="line"/>
      <point x="668" y="38" type="line"/>
    </contour>
  </outline>
</glyph>
<glyph name="boxLightDiagonalCross" format="2">
  <advance width="620"/>
  <unicode hex="2573"/>
  <outline>
    <contour>
      <point x="-48" y="38" type="line"/>
      <point x="0" y="-10" type="line"/>
      <point x="668" y="658" type="line"/>
      <point x="620" y="706" type="line"/>
    </contour>
    <contour>
      <point x="620" y="-10" type="line"/>
      <point x="668" y="38" type="line"/>
      <point x="0" y="706" type="line"/>
      <point x="-48" y="658" type="line"/>
    </contour>
  </outline>
</glyph>
<glyph name="boxLightLeft" format="2">
  <advance width="620"/>
  <unicode hex="2574"/>
  <outline>
    <contour>
      <point x="276" y="382" type="line"/>
      <point x="-10" y="382" type="line"/>
      <point x="-10" y="314" type="line"/>
      <point x="276" y="314" type="line"/>
    </contour>
  </outline>
</glyph>
<glyph name="boxLightRight" format="2">
  <advance width="620"/>
  <unicode hex="2576"/>
  <outline>
    <contour>
      <point x="630" y="382" type="line"/>
      <point x="344" y="382" type="line"/>
      <point x="344" y="314" type="line"/>
      <point x="630" y="314" type="line"/>
    </contour>
  </outline>
</glyph>
<glyph name="boxLightDown" format="2">
  <advance width="620"/>
  <unicode hex="2577"/>
  <outline>
    <contour>
      <point x="344" y="-430" type="line"/>
      <point x="344" y="314" type="line"/>
      <point x="276" y="314" type="line"/>
      <point x="276" y="-430" type="line"/>
    </contour>
  </outline>
</glyph>
<glyph name="boxHeavyLeft" format="2">
  <advance width="620"/>
  <unicode hex="2578"/>
  <outline>
    <contour>
      <point x="276" y="433" type="line"/>
      <point x="-10" y="433" type="line"/>
      <point x="-10" y="263" type="line"/>
      <point x="276" y="263" type="line"/>
    </contour>
  </outline>
</glyph>
<glyph name="boxHeavyUp" format="2">
  <advance width="620"/>
  <unicode hex="2579"/>
  <outline>
    <contour>
      <point x="395" y="382" type="line"/>
      <point x="395" y="1130" type="line"/>
      <point x="225" y="1130" type="line"/>
      <point x="225" y="382" type="line"/>
    </contour>
  </outline>
</glyph>
<glyph name="boxHeavyRight" format="2">
  <advance width="620"/>
  <unicode hex="257A"/>
  <outline>
    <contour>
      <point x="630" y="433" type="line"/>
      <point x="344" y="433" type="line"/>
      <point x="344" y="263" type="line"/>
      <point x="630" y="263" type="line"/>
    </contour>
  </outline>
</glyph>
<glyph name="boxHeavyDown" format="2">
  <advance width="620"/>
  <unicode hex="257B"/>
  <outline>
    <contour>
      <point x="395" y="-430" type="line"/>
      <point x="395" y="314" type="line"/>
      <point x="225" y="314" type="line"/>
      <point x="225" y="-430" type="line"/>
    </contour>
  </outline>
</glyph>
<glyph name="boxLightLeftAndHeavyRight" format="2">
  <advance width="620"/>
  <unicode hex="257C"/>
  <outline>
    <contour>
      <point x="276" y="433" type="line"/>
      <point x="276" y="263" type="line"/>
      <point x="630" y="263" type="line"/>
      <point x="630" y="433" type="line"/>
    </contour>
    <contour>
      <point x="-10" y="382" type="line"/>
      <point x="-10" y="314" type="line"/>
      <point x="412" y="314" type="line"/>
      <point x="412" y="382" type="line"/>
    </contour>
  </outline>
</glyph>
<glyph name="boxLightUpAndHeavyDown" format="2">
  <advance width="620"/>
  <unicode hex="257D"/>
  <outline>
    <contour>
      <point x="395" y="386" type="line"/>
      <point x="225" y="386" type="line"/>
      <point x="225" y="-430" type="line"/>
      <point x="395" y="-430" type="line"/>
    </contour>
    <contour>
      <point x="344" y="1130" type="line"/>
      <point x="276" y="1130" type="line"/>
      <point x="276" y="272" type="line"/>
      <point x="344" y="272" type="line"/>
    </contour>
  </outline>
</glyph>
<glyph name="boxHeavyLeftAndLightRight" format="2">
  <advance width="620"/>
  <unicode hex="257E"/>
  <outline>
    <contour>
      <point x="344" y="433" type="line"/>
      <point x="-10" y="433" type="line"/>
      <point x="-10" y="263" type="line"/>
      <point x="344" y="263" type="line"/>
    </contour>
    <contour>
      <point x="630" y="382" type="line"/>
      <point x="208" y="382" type="line"/>
      <point x="208" y="314" type="line"/>
      <point x="630" y="314" type="line"/>
    </contour>
  </outline>
</glyph>
<glyph name="boxHeavyUpAndLightDown" format="2">
  <advance width="620"/>
  <unicode hex="257F"/>
  <outline>
    <contour>
      <point x="395" y="314" type="line"/>
      <point x="395" y="1130" type="line"/>
      <point x="225" y="1130" type="line"/>
      <point x="225" y="314" type="line"/>
    </contour>
    <contour>
      <point x="344" y="-430" type="line"/>
      <point x="344" y="428" type="line"/>
      <point x="276" y="428" type="line"/>
      <point x="276" y="-430" type="line"/>
    </contour>
  </outline>
</glyph>
<glyph name="ampersand_ampersand" format="2">
  <advance width="620"/>
  <outline>
    <contour>
      <point x="-448" y="565" type="curve" smooth="yes"/>
      <point x="-448" y="512"/>
      <point x="-412" y="458"/>
      <point x="-384" y="421" type="curve" smooth="yes"/>
      <point x="-51" y="-16" type="line"/>
      <point x="16" y="40" type="line"/>
      <point x="-294" y="442" type="line" smooth="yes"/>
      <point x="-323" y="479"/>
      <point x="-350" y="517"/>
      <point x="-350" y="557" type="curve" smooth="yes"/>
      <point x="-350" y="609"/>
      <point x="-312" y="637"/>
      <point x="-266" y="637" type="curve" smooth="yes"/>
      <point x="-206" y="637"/>
      <point x="-183" y="587"/>
      <point x="-183" y="550" type="curve"/>
      <point x="-85" y="550" type="line"/>
      <point x="-85" y="640"/>
      <point x="-148" y="725"/>
      <point x="-263" y="725" type="curve" smooth="yes"/>
      <point x="-388" y="725"/>
      <point x="-448" y="654"/>
    </contour>
    <contour>
      <point x="-77" y="404" type="line"/>
      <point x="-147" y="191" type="line" smooth="yes"/>
      <point x="-169" y="123"/>
      <point x="-221" y="73"/>
      <point x="-291" y="72" type="curve" smooth="yes"/>
      <point x="-372" y="71"/>
      <point x="-423" y="119"/>
      <point x="-423" y="198" type="curve" smooth="yes"/>
      <point x="-423" y="277"/>
      <point x="-352" y="343"/>
      <point x="-272" y="343" type="curve"/>
      <point x="-281" y="412" type="line"/>
      <point x="-410" y="410"/>
      <point x="-520" y="312"/>
      <point x="-520" y="198" type="curve" smooth="yes"/>
      <point x="-520" y="63"/>
      <point x="-431" y="-16"/>
      <point x="-290" y="-16" type="curve" smooth="yes"/>
      <point x="-168" y="-16"/>
      <point x="-101" y="54"/>
      <point x="-76" y="128" type="curve" smooth="yes"/>
      <point x="12" y="394" type="line"/>
      <point x="12" y="404" type="line"/>
    </contour>
    <contour>
      <point x="56" y="565" type="curve" smooth="yes"/>
      <point x="56" y="512"/>
      <point x="92" y="458"/>
      <point x="120" y="421" type="curve" smooth="yes"/>
      <point x="453" y="-16" type="line"/>
      <point x="520" y="40" type="line"/>
      <point x="208" y="442" type="line" smooth="yes"/>
      <point x="180" y="478"/>
      <point x="154" y="517"/>
      <point x="154" y="557" type="curve" smooth="yes"/>
      <point x="154" y="609"/>
      <point x="192" y="637"/>
      <point x="238" y="637" type="curve" smooth="yes"/>
      <point x="298" y="637"/>
      <point x="321" y="587"/>
      <point x="321" y="550" type="curve"/>
      <point x="419" y="550" type="line"/>
      <point x="419" y="640"/>
      <point x="356" y="725"/>
      <point x="241" y="725" type="curve" smooth="yes"/>
      <point x="116" y="725"/>
      <point x="56" y="654"/>
    </contour>
    <contour>
      <point x="427" y="404" type="line"/>
      <point x="357" y="191" type="line" smooth="yes"/>
      <point x="335" y="123"/>
      <point x="281" y="73"/>
      <point x="211" y="72" type="curve" smooth="yes"/>
      <point x="132" y="71"/>
      <point x="81" y="119"/>
      <point x="81" y="198" type="curve" smooth="yes"/>
      <point x="81" y="277"/>
      <point x="152" y="343"/>
      <point x="232" y="343" type="curve"/>
      <point x="221" y="412" type="line"/>
      <point x="94" y="410"/>
      <point x="-16" y="312"/>
      <point x="-16" y="198" type="curve" smooth="yes"/>
      <point x="-16" y="63"/>
      <point x="73" y="-16"/>
      <point x="212" y="-16" type="curve" smooth="yes"/>
      <point x="334" y="-16"/>
      <point x="398" y="54"/>
      <point x="423" y="128" type="curve" smooth="yes"/>
      <point x="512" y="394" type="line"/>
      <point x="512" y="404" type="line"/>
    </contour>
  </outline>
</glyph>
